<?xml version="1.0" standalone="no"?>
<!DOCTYPE svg PUBLIC "-//W3C//DTD SVG 1.1//EN" "http://www.w3.org/Graphics/SVG/1.1/DTD/svg11.dtd" >
<svg>
<metadata>
Created by FontForge 20090622 at Tue May 19 04:38:52 2015
 By deploy user
Copyright 2012 &#194;&#169; Okay Type Foundry, all rights reserved.
</metadata>
<defs>
<font id="HarrietDisplay-ThinItalic" horiz-adv-x="500" >
  <font-face 
    font-family="Harriet Display Thin"
    font-weight="300"
    font-style="italic"
    font-stretch="normal"
    units-per-em="1000"
    panose-1="2 0 0 0 0 0 0 0 0 0"
    ascent="800"
    descent="-200"
    x-height="483"
    cap-height="679"
    bbox="-218 -337 1067 1044"
    underline-thickness="0"
    underline-position="0"
    slope="-15"
    unicode-range="U+0020-U+F6C3"
  />
<missing-glyph 
d="M-115 -230l266 995h480l-266 -995h-480zM287 78q13 0 19 6.5t10 22.5q8 35 23.5 49t47.5 16q19 1 29 18.5t10 34.5q0 3 -0.5 7t-0.5 6q0 28 16 44q50 54 50 119q0 67 -55 108t-141 41q-94 0 -150 -53t-56 -124q0 -12 6.5 -32t6.5 -28q0 -22 -11 -40.5t-11 -35.5
q0 -23 20 -29q41 -13 41 -46q0 -8 -3.5 -25t-3.5 -25q0 -18 28 -21q121 -13 125 -13zM169 233q-13 2 -23 15.5t-7 25.5q3 14 25.5 30.5t41.5 13.5q18 -2 27.5 -14t5.5 -30q-1 -4 -29 -22q-1 -1 -8.5 -7.5t-15 -9.5t-17.5 -2zM334 212q-9 1 -15 6t-10 13.5t-4 9.5q-1 1 -7 8
t-8.5 11.5t-1.5 7.5q4 18 19 27t34 7q18 -3 31 -23.5t10 -35.5q-3 -12 -19 -22t-29 -9zM266 180q-3 -13 -11.5 -15t-17.5 1q-1 0 -7 1t-6.5 1.5t-5 2.5t-2.5 5.5t1 9.5q4 16 14.5 30.5t21.5 13.5q10 -1 13.5 -18t-0.5 -32z" />
    <glyph glyph-name="f_i" unicode="fi" horiz-adv-x="536" 
d="M-109 -244q-48 0 -74.5 21t-26.5 53q0 22 13 36.5t33 14.5q17 0 28 -10.5t11 -26.5q0 -18 -15 -30.5t-15 -18.5q0 -10 12.5 -17t33.5 -7q98 0 137 154l82 322l50 197l-100 9l4 14l104 9l23 92q29 114 81.5 161t133.5 47q49 0 81.5 -25.5t32.5 -65.5q0 -24 -13.5 -38.5
t-33.5 -14.5q-18 0 -29.5 11.5t-11.5 26.5q0 17 16.5 33t16.5 23q0 16 -17 25.5t-44 9.5q-64 0 -105.5 -40.5t-63.5 -132.5q-1 -2 -28 -115h154q91 0 95 -57q3 -34 -21 -98l-69 -185q-18 -47 -18 -75q0 -48 43 -48q31 0 56 35.5t54 111.5l16 -5q-34 -86 -62.5 -124
t-74.5 -38q-31 0 -51.5 18.5t-20.5 51.5q0 32 23 94l69 186q17 47 17 77q0 37 -56 37q-53 0 -160 -7l-61 -243l-67 -270q-22 -90 -70 -134t-112 -44z" />
    <glyph glyph-name="f_l" unicode="fl" horiz-adv-x="550" 
d="M207 473h230l46 160l-3 -1q-17 0 -28 10.5t-11 25.5q0 19 15 32.5t15 18.5q0 17 -21.5 29.5t-54.5 12.5q-117 0 -160 -173q-1 -2 -28 -115zM-109 -244q-48 0 -74.5 21t-26.5 53q0 22 13 36.5t33 14.5q17 0 28 -10.5t11 -26.5q0 -18 -15 -30.5t-15 -18.5q0 -10 12.5 -17
t33.5 -7q98 0 137 154l82 322l50 197l-100 9l4 14l104 9l20 80q31 123 81.5 171.5t125.5 48.5q41 0 73 -16t45 -44l49 57l11 -6q-24 -57 -34 -94l-160 -547q-12 -40 -12 -68q0 -48 38 -48q31 0 56 35.5t54 111.5l16 -5q-34 -86 -62.5 -124t-74.5 -38q-30 0 -49 19.5
t-19 55.5q0 28 15 77l91 313l-231 -8l-61 -243l-67 -270q-22 -90 -70 -134t-112 -44z" />
    <glyph glyph-name="f_j" unicode="fj" horiz-adv-x="507" 
d="M73 -66l-5 -19l-2 -7l4 1q17 0 28 -10.5t11 -25.5q0 -19 -15 -32.5t-15 -18.5q0 -16 21.5 -28.5t54.5 -12.5q52 0 86.5 39.5t59.5 133.5l103 386l5 19q8 37 8 58q0 37 -56 37q-53 0 -160 -7l-61 -243zM351 -13q-32 -122 -79 -171.5t-117 -49.5q-46 0 -79.5 18.5
t-43.5 49.5q-53 -78 -141 -78q-48 0 -74.5 21t-26.5 53q0 22 13 36.5t33 14.5q17 0 28 -10.5t11 -26.5q0 -18 -15 -30.5t-15 -18.5q0 -10 12.5 -17t33.5 -7q98 0 137 154l82 322l50 197l-100 9l4 14l104 9l23 92q29 114 81.5 161t134.5 47q49 0 81 -25.5t32 -65.5
q0 -24 -13.5 -38.5t-33.5 -14.5q-18 0 -29.5 11.5t-11.5 26.5q0 17 16.5 33t16.5 23q0 16 -17 25.5t-44 9.5q-64 0 -105.5 -40.5t-63.5 -132.5q-1 -2 -28 -115h154q91 0 95 -57q2 -25 -17 -98z" />
    <glyph glyph-name="f_f" unicode="ff" horiz-adv-x="604" 
d="M207 473h229l24 96l6 21q2 7 6 19.5t4 13.5q-16 0 -27 10.5t-11 25.5q0 19 15 32.5t15 18.5q0 16 -22 28.5t-55 12.5q-57 0 -96.5 -40.5t-62.5 -132.5q-6 -22 -14 -57zM73 -66l-5 -19l-2 -7l3 1q17 0 28 -10.5t11 -25.5q0 -19 -15 -32.5t-15 -18.5q0 -16 23 -28.5
t56 -12.5q52 0 88 39.5t60 133.5l78 307l47 189l-229 -3l-61 -243zM355 -13q-31 -123 -79 -172t-119 -49q-46 0 -81 18.5t-45 49.5q-52 -78 -140 -78q-48 0 -74.5 21t-26.5 53q0 22 13 36.5t33 14.5q17 0 28 -10.5t11 -26.5q0 -18 -15 -30.5t-15 -18.5q0 -10 12.5 -17
t33.5 -7q98 0 137 154l79 310l53 209l-100 9l4 14l104 9l17 69q31 123 81.5 172t124.5 49q44 0 78 -17.5t46 -46.5q51 74 143 74q46 0 78.5 -21.5t32.5 -58.5q0 -23 -13 -37.5t-33 -14.5q-17 0 -28 10.5t-11 26.5q0 17 15.5 31t15.5 19q0 12 -16.5 21t-41.5 9q-56 0 -93 -40
t-60 -133q-1 -2 -28 -115h136l-5 -21l-137 -2l-54 -220z" />
    <glyph glyph-name="f_b" unicode="fb" horiz-adv-x="762" 
d="M207 473h230l46 160l-3 -1q-17 0 -28 10.5t-11 25.5q0 19 15 32.5t15 18.5q0 17 -21.5 29.5t-54.5 12.5q-117 0 -160 -173q-1 -2 -28 -115zM385 102q0 -100 83 -100q72 0 130.5 70t80.5 162q14 59 14 106q0 67 -19.5 99t-65.5 32q-65 0 -118 -69t-89 -199
q-16 -60 -16 -101zM390 207l6 19q-1 -3 -3 -9.5t-3 -9.5zM-109 -244q-48 0 -74.5 21t-26.5 53q0 22 13 36.5t33 14.5q17 0 28 -10.5t11 -26.5q0 -18 -15 -30.5t-15 -18.5q0 -10 12.5 -17t33.5 -7q98 0 137 154l82 322l50 197l-100 9l4 14l104 9l20 80q31 123 81.5 171.5
t125.5 48.5q41 0 73 -16t45 -44l49 57l11 -6q-22 -54 -34 -94l-41 -140q-16 -54 -51.5 -154t-50.5 -150q40 130 92 194.5t124 64.5q57 0 92 -41t35 -124q0 -80 -35 -157t-97.5 -128t-135.5 -51q-56 0 -90.5 32t-34.5 97q0 40 17 100l69 239l-231 -8l-61 -243l-67 -270
q-22 -90 -70 -134t-112 -44z" />
    <glyph glyph-name="f_h" unicode="fh" horiz-adv-x="803" 
d="M207 473h230l46 160l-3 -1q-17 0 -28 10.5t-11 25.5q0 19 15 32.5t15 18.5q0 17 -21.5 29.5t-54.5 12.5q-117 0 -160 -173q-1 -2 -28 -115zM-109 -244q-48 0 -74.5 21t-26.5 53q0 22 13 36.5t33 14.5q17 0 28 -10.5t11 -26.5q0 -18 -15 -30.5t-15 -18.5q0 -10 12.5 -17
t33.5 -7q98 0 137 154l82 322l50 197l-100 9l4 14l104 9l20 80q31 123 81.5 171.5t125.5 48.5q41 0 73 -16t45 -44l49 57l11 -6q-22 -54 -34 -94l-50 -171q-26 -90 -63 -199t-53 -161q104 346 255 346q45 0 71 -25t26 -63q0 -40 -24 -104l-58 -152q-22 -57 -22 -87
q0 -47 42 -47q31 0 56 35.5t54 111.5l16 -5q-35 -88 -62.5 -125t-72.5 -37q-32 0 -52.5 18t-20.5 51q0 36 24 102l58 154q21 54 21 86q0 29 -16 47.5t-49 18.5q-38 0 -75.5 -30.5t-67.5 -80.5t-53 -104.5t-40 -112.5l-41 -139q-11 1 -21 1l-22 -1l132 455l-230 -8l-61 -243
l-67 -270q-22 -90 -70 -134t-112 -44z" />
    <glyph glyph-name="f_k" unicode="fk" horiz-adv-x="751" 
d="M207 473h230l46 160l-3 -1q-17 0 -28 10.5t-11 25.5q0 19 15 32.5t15 18.5q0 17 -21.5 29.5t-54.5 12.5q-117 0 -160 -173q-1 -2 -28 -115zM604 -9q-36 0 -57 20t-21 59q0 28 8 75t8 66q0 46 -29 58q-25 -18 -56 -18q-11 0 -19 2q-5 32 41 32q13 0 25 -3q26 22 56 80
q34 64 63 95t68 31q30 0 45 -14.5t15 -37.5q0 -21 -12.5 -33t-30.5 -12t-27 10.5t-9 25.5q0 4 0.5 10t0.5 9q0 11 -12 11q-14 0 -37.5 -28.5t-48.5 -75.5q-30 -56 -53 -75q54 -22 54 -95q0 -17 -5 -54.5t-5 -53.5q0 -63 48 -63q62 0 105 143l17 -4q-26 -82 -55.5 -121
t-76.5 -39zM-109 -244q-48 0 -74.5 21t-26.5 53q0 22 13 36.5t33 14.5q17 0 28 -10.5t11 -26.5q0 -18 -15 -30.5t-15 -18.5q0 -10 12.5 -17t33.5 -7q98 0 137 154l82 322l50 197l-100 9l4 14l104 9l20 80q31 123 81.5 171.5t125.5 48.5q41 0 73 -16t45 -44l49 57l11 -6
q-22 -54 -34 -94l-197 -673q-10 1 -21 1l-22 -1l132 455l-230 -8l-61 -243l-67 -270q-22 -90 -70 -134t-112 -44z" />
    <glyph glyph-name="f_f_i" unicode="ffi" horiz-adv-x="805" 
d="M207 473h229l24 95l5 20q4 13 12 35q-17 0 -28 10.5t-11 25.5q0 19 15 32.5t15 18.5q0 16 -22 28.5t-55 12.5q-57 0 -96.5 -40.5t-62.5 -132.5q-6 -22 -14 -57zM73 -66l-5 -19l-2 -7l3 1q17 0 28 -10.5t11 -25.5q0 -19 -15 -32.5t-15 -18.5q0 -16 23 -28.5t56 -12.5
q52 0 88 39.5t60 133.5l74 293l51 204l-229 -4l-61 -243zM355 -13q-31 -123 -79 -172t-119 -49q-46 0 -81 18.5t-45 49.5q-52 -78 -140 -78q-48 0 -74.5 21t-26.5 53q0 22 13 36.5t33 14.5q17 0 28 -10.5t11 -26.5q0 -18 -15 -30.5t-15 -18.5q0 -10 12.5 -17t33.5 -7
q98 0 137 154l79 310l53 209l-100 9l4 14l104 9l17 69q31 123 81.5 172t124.5 49q45 0 79.5 -18t45.5 -49q54 77 159 77q49 0 81.5 -25.5t32.5 -65.5q0 -24 -13.5 -38.5t-33.5 -14.5q-18 0 -29.5 11.5t-11.5 26.5q0 17 16.5 33t16.5 23q0 16 -17 25.5t-44 9.5
q-64 0 -105.5 -40.5t-63.5 -132.5q-1 -2 -28 -115h154q91 0 95 -57q3 -34 -21 -98l-69 -185q-18 -47 -18 -75q0 -48 43 -48q31 0 56 35.5t54 111.5l16 -5q-34 -86 -62.5 -124t-74.5 -38q-31 0 -51.5 18.5t-20.5 51.5q0 32 23 94l69 186q17 47 17 77q0 39 -56 37l-159 -3
l-62 -247z" />
    <glyph glyph-name="f_f_l" unicode="ffl" horiz-adv-x="819" 
d="M706 473l46 160l-3 -1q-17 0 -28 10.5t-11 25.5q0 19 15 32.5t15 18.5q0 17 -21.5 29.5t-54.5 12.5q-117 0 -160 -173q-1 -2 -28 -115h230zM207 473h229l21 82l6 22q7 23 15 46h-1q-17 0 -28 10.5t-11 25.5q0 19 15 32.5t15 18.5q0 16 -22 28.5t-55 12.5
q-57 0 -96.5 -40.5t-62.5 -132.5q-6 -22 -14 -57zM73 -66l-5 -19l-2 -7l3 1q17 0 28 -10.5t11 -25.5q0 -19 -15 -32.5t-15 -18.5q0 -16 23 -28.5t56 -12.5q52 0 88 39.5t60 133.5l76 301l50 196l-230 -4l-61 -243zM355 -13q-31 -123 -79 -172t-119 -49q-46 0 -81 18.5
t-45 49.5q-52 -78 -140 -78q-48 0 -74.5 21t-26.5 53q0 22 13 36.5t33 14.5q17 0 28 -10.5t11 -26.5q0 -18 -15 -30.5t-15 -18.5q0 -10 12.5 -17t33.5 -7q98 0 137 154l79 310l53 209l-100 9l4 14l104 9l17 69q31 123 81.5 172t124.5 49q46 0 80.5 -18t44.5 -49
q53 77 148 77q41 0 73 -16t45 -44l49 57l11 -6q-24 -57 -34 -94l-160 -547q-12 -40 -12 -68q0 -48 38 -48q31 0 56 35.5t54 111.5l16 -5q-34 -86 -62.5 -124t-74.5 -38q-30 0 -49 19.5t-19 55.5q0 28 15 77l91 313l-230 -4l-55 -221z" />
    <glyph glyph-name="f_f_j" unicode="ffj" horiz-adv-x="777" 
d="M207 473h229l24 95l5 20q4 13 12 35q-17 0 -28 10.5t-11 25.5q0 19 15 32.5t15 18.5q0 16 -22 28.5t-55 12.5q-57 0 -96.5 -40.5t-62.5 -132.5q-6 -22 -14 -57zM355 -13l-6 -23q-7 -23 -15 -46l8 1q17 0 28 -10.5t11 -25.5q0 -19 -15 -32.5t-15 -18.5q0 -16 21.5 -28.5
t54.5 -12.5q52 0 86.5 39.5t59.5 133.5l100 376l5 19q8 37 8 58q0 39 -56 37l-159 -3l-62 -247zM73 -66l-5 -19l-2 -7l3 1q17 0 28 -10.5t11 -25.5q0 -19 -15 -32.5t-15 -18.5q0 -16 23 -28.5t56 -12.5q52 0 88 39.5t60 133.5l74 293l51 204l-229 -4l-61 -243zM623 -3
q-32 -122 -79 -171.5t-117 -49.5q-48 0 -82.5 20t-42.5 54q-52 -84 -145 -84q-46 0 -81 18.5t-45 49.5q-52 -78 -140 -78q-48 0 -74.5 21t-26.5 53q0 22 13 36.5t33 14.5q17 0 28 -10.5t11 -26.5q0 -18 -15 -30.5t-15 -18.5q0 -10 12.5 -17t33.5 -7q98 0 137 154l79 310
l53 209l-100 9l4 14l104 9l17 69q31 123 81.5 172t124.5 49q45 0 79.5 -18t45.5 -49q54 77 160 77q49 0 81 -25.5t32 -65.5q0 -24 -13.5 -38.5t-33.5 -14.5q-18 0 -29.5 11.5t-11.5 26.5q0 17 16.5 33t16.5 23q0 16 -17 25.5t-44 9.5q-64 0 -105.5 -40.5t-63.5 -132.5
q-1 -2 -28 -115h154q91 0 95 -57q2 -25 -17 -98z" />
    <glyph glyph-name="f_f_f" unicode="fff" horiz-adv-x="873" 
d="M729 569l6 21q2 7 6 19.5t4 13.5q-16 0 -27 10.5t-11 25.5q0 19 15 32.5t15 18.5q0 16 -22 28.5t-55 12.5q-57 0 -96.5 -40.5t-62.5 -132.5q-6 -22 -14 -57l-11 -48h229zM207 473h229l18 72l6 22q9 32 19 56h-2q-17 0 -28 10.5t-11 25.5q0 19 15 32.5t15 18.5
q0 16 -22 28.5t-55 12.5q-57 0 -96.5 -40.5t-62.5 -132.5q-6 -22 -14 -57zM355 -13l-6 -23q-7 -23 -15 -46l6 1q17 0 28 -10.5t11 -25.5q0 -19 -15 -32.5t-15 -18.5q0 -16 23 -28.5t56 -12.5q52 0 88.5 40t60.5 134l75 296l47 190l-229 -2l-61 -245zM73 -66l-5 -19l-2 -7
l3 1q17 0 28 -10.5t11 -25.5q0 -19 -15 -32.5t-15 -18.5q0 -16 23 -28.5t56 -12.5q52 0 88 39.5t60 133.5l71 281l54 214l-229 -2l-61 -243zM627 -2q-31 -123 -79.5 -172.5t-119.5 -49.5q-48 0 -83 19t-44 52q-52 -81 -144 -81q-46 0 -81 18.5t-45 49.5q-52 -78 -140 -78
q-48 0 -74.5 21t-26.5 53q0 22 13 36.5t33 14.5q17 0 28 -10.5t11 -26.5q0 -18 -15 -30.5t-15 -18.5q0 -10 12.5 -17t33.5 -7q98 0 137 154l79 310l53 209l-100 9l4 14l104 9l17 69q31 123 81.5 172t124.5 49q47 0 81.5 -19.5t44.5 -51.5q52 71 143 71q44 0 78 -17.5
t46 -46.5q51 74 143 74q46 0 78.5 -21.5t32.5 -58.5q0 -23 -13 -37.5t-33 -14.5q-17 0 -28 10.5t-11 26.5q0 17 15.5 31t15.5 19q0 12 -16.5 21t-41.5 9q-56 0 -93 -40t-60 -133q-1 -2 -28 -115h136l-5 -21l-136 -1l-55 -221z" />
    <glyph glyph-name="f_f_b" unicode="ffb" horiz-adv-x="1031" 
d="M706 473l46 160l-3 -1q-17 0 -28 10.5t-11 25.5q0 19 15 32.5t15 18.5q0 17 -21.5 29.5t-54.5 12.5q-117 0 -160 -173q-1 -2 -28 -115h230zM207 473h229l21 83l6 22q7 24 15 45h-1q-17 0 -28 10.5t-11 25.5q0 19 15 32.5t15 18.5q0 16 -22 28.5t-55 12.5
q-57 0 -96.5 -40.5t-62.5 -132.5q-6 -22 -14 -57zM654 102q0 -100 83 -100q72 0 130.5 70t80.5 162q14 59 14 106q0 67 -19.5 99t-65.5 32q-65 0 -118 -69t-89 -199q-16 -60 -16 -101zM73 -66l-5 -19l-2 -7l3 1q17 0 28 -10.5t11 -25.5q0 -19 -15 -32.5t-15 -18.5
q0 -16 23 -28.5t56 -12.5q52 0 88 39.5t60 133.5l74 293l51 204l-229 -4l-61 -243zM659 207l6 19q-1 -3 -3 -9.5t-3 -9.5zM355 -13q-31 -123 -79 -172t-119 -49q-46 0 -81 18.5t-45 49.5q-52 -78 -140 -78q-48 0 -74.5 21t-26.5 53q0 22 13 36.5t33 14.5q17 0 28 -10.5
t11 -26.5q0 -18 -15 -30.5t-15 -18.5q0 -10 12.5 -17t33.5 -7q98 0 137 154l79 310l53 209l-100 9l4 14l104 9l17 69q31 123 81.5 172t124.5 49q45 0 79.5 -18t45.5 -49q53 77 148 77q41 0 73 -16t45 -44l49 57l11 -6q-22 -54 -34 -94l-41 -140q-16 -54 -51.5 -154
t-50.5 -150q40 130 92 194.5t124 64.5q57 0 92 -41t35 -124q0 -80 -35 -157t-97.5 -128t-135.5 -51q-56 0 -90.5 32t-34.5 97q0 40 17 100l69 239l-230 -4l-62 -247z" />
    <glyph glyph-name="f_f_h" unicode="ffh" horiz-adv-x="1072" 
d="M706 473l46 160l-3 -1q-17 0 -28 10.5t-11 25.5q0 19 15 32.5t15 18.5q0 17 -21.5 29.5t-54.5 12.5q-117 0 -160 -173q-1 -2 -28 -115h230zM207 473h229l21 83l6 22q7 24 15 45h-1q-17 0 -28 10.5t-11 25.5q0 19 15 32.5t15 18.5q0 16 -22 28.5t-55 12.5
q-57 0 -96.5 -40.5t-62.5 -132.5q-6 -22 -14 -57zM73 -66l-5 -19l-2 -7l3 1q17 0 28 -10.5t11 -25.5q0 -19 -15 -32.5t-15 -18.5q0 -16 23 -28.5t56 -12.5q52 0 88 39.5t60 133.5l74 293l51 204l-229 -4l-61 -243zM355 -13q-31 -123 -79 -172t-119 -49q-46 0 -81 18.5
t-45 49.5q-52 -78 -140 -78q-48 0 -74.5 21t-26.5 53q0 22 13 36.5t33 14.5q17 0 28 -10.5t11 -26.5q0 -18 -15 -30.5t-15 -18.5q0 -10 12.5 -17t33.5 -7q98 0 137 154l79 310l53 209l-100 9l4 14l104 9l17 69q31 123 81.5 172t124.5 49q45 0 79.5 -18t45.5 -49
q53 77 148 77q41 0 73 -16t45 -44l49 57l11 -6q-22 -54 -34 -94l-50 -171q-26 -90 -63 -199t-53 -161q104 346 255 346q45 0 71 -25t26 -63q0 -40 -24 -104l-58 -152q-22 -57 -22 -87q0 -47 42 -47q31 0 56 35.5t54 111.5l16 -5q-35 -88 -62.5 -125t-72.5 -37
q-32 0 -52.5 18t-20.5 51q0 36 24 102l58 154q21 54 21 86q0 29 -16 47.5t-49 18.5q-38 0 -75.5 -30.5t-67.5 -80.5t-53 -104.5t-40 -112.5l-41 -139q-11 1 -21 1l-22 -1l132 455l-229 -4l-62 -247z" />
    <glyph glyph-name="f_f_k" unicode="ffk" horiz-adv-x="1020" 
d="M706 473l46 160l-3 -1q-17 0 -28 10.5t-11 25.5q0 19 15 32.5t15 18.5q0 17 -21.5 29.5t-54.5 12.5q-117 0 -160 -173q-1 -2 -28 -115h230zM207 473h229l21 83l6 22q7 24 15 45h-1q-17 0 -28 10.5t-11 25.5q0 19 15 32.5t15 18.5q0 16 -22 28.5t-55 12.5
q-57 0 -96.5 -40.5t-62.5 -132.5q-6 -22 -14 -57zM73 -66l-5 -19l-2 -7l3 1q17 0 28 -10.5t11 -25.5q0 -19 -15 -32.5t-15 -18.5q0 -16 23 -28.5t56 -12.5q52 0 88 39.5t60 133.5l74 293l51 204l-229 -4l-61 -243zM873 -9q-36 0 -57 20t-21 59q0 28 8 75t8 66q0 46 -29 58
q-25 -18 -56 -18q-11 0 -19 2l1 13q5 19 40 19q13 0 25 -3q26 22 56 80q34 64 63 95t68 31q30 0 45 -14.5t15 -37.5q0 -21 -12.5 -33t-30.5 -12t-27 10.5t-9 25.5q0 4 0.5 10t0.5 9q0 11 -12 11q-14 0 -37.5 -28.5t-48.5 -75.5q-30 -56 -53 -75q54 -22 54 -95
q0 -17 -5 -54.5t-5 -53.5q0 -63 48 -63q62 0 105 143l17 -4q-26 -82 -55.5 -121t-76.5 -39zM355 -13q-31 -123 -79 -172t-119 -49q-46 0 -81 18.5t-45 49.5q-52 -78 -140 -78q-48 0 -74.5 21t-26.5 53q0 22 13 36.5t33 14.5q17 0 28 -10.5t11 -26.5q0 -18 -15 -30.5
t-15 -18.5q0 -10 12.5 -17t33.5 -7q98 0 137 154l79 310l53 209l-100 9l4 14l104 9l17 69q31 123 81.5 172t124.5 49q45 0 79.5 -18t45.5 -49q53 77 148 77q41 0 73 -16t45 -44l49 57l11 -6q-22 -54 -34 -94l-197 -673q-10 1 -21 1l-22 -1l132 455l-229 -4l-62 -247z" />
    <glyph glyph-name=".notdef" 
d="M-115 -230l266 995h480l-266 -995h-480zM287 78q13 0 19 6.5t10 22.5q8 35 23.5 49t47.5 16q19 1 29 18.5t10 34.5q0 3 -0.5 7t-0.5 6q0 28 16 44q50 54 50 119q0 67 -55 108t-141 41q-94 0 -150 -53t-56 -124q0 -12 6.5 -32t6.5 -28q0 -22 -11 -40.5t-11 -35.5
q0 -23 20 -29q41 -13 41 -46q0 -8 -3.5 -25t-3.5 -25q0 -18 28 -21q121 -13 125 -13zM169 233q-13 2 -23 15.5t-7 25.5q3 14 25.5 30.5t41.5 13.5q18 -2 27.5 -14t5.5 -30q-1 -4 -29 -22q-1 -1 -8.5 -7.5t-15 -9.5t-17.5 -2zM334 212q-9 1 -15 6t-10 13.5t-4 9.5q-1 1 -7 8
t-8.5 11.5t-1.5 7.5q4 18 19 27t34 7q18 -3 31 -23.5t10 -35.5q-3 -12 -19 -22t-29 -9zM266 180q-3 -13 -11.5 -15t-17.5 1q-1 0 -7 1t-6.5 1.5t-5 2.5t-2.5 5.5t1 9.5q4 16 14.5 30.5t21.5 13.5q10 -1 13.5 -18t-0.5 -32z" />
    <glyph glyph-name=".null" horiz-adv-x="0" 
 />
    <glyph glyph-name="nonmarkingreturn" horiz-adv-x="333" 
 />
    <glyph glyph-name="space" unicode=" " horiz-adv-x="180" 
 />
    <glyph glyph-name="exclam" unicode="!" horiz-adv-x="275" 
d="M139 184h-12q63 229 74 344q2 21 3.5 44.5t3 39.5t5.5 32q12 49 50 49q34 0 34 -34q0 -11 -3 -22q-6 -25 -19.5 -55l-29.5 -63.5t-45 -121.5t-61 -213zM102 -5q-18 0 -32.5 13.5t-14.5 33.5q0 21 14 34t33 13q20 0 34 -13t14 -34t-14 -34t-34 -13z" />
    <glyph glyph-name="quotedbl" unicode="&#x22;" horiz-adv-x="421" 
d="M356 488l-9 2l22 134.5t13 84t6 31.5q9 31 39 23t21 -39q-3 -10 -12 -32l-31 -77.5zM211 488l-9 2l22 134.5t13 84t6 31.5q9 31 39 23t21 -39q-3 -10 -12 -32l-31 -77.5z" />
    <glyph glyph-name="numbersign" unicode="#" horiz-adv-x="503" 
d="M319 222l71 188h-143l-71 -188h143zM160 178l-67 -178h-21l67 178h-94l1 44h109l71 188h-124v44h140l63 168h21l-63 -168h143l63 168h21l-63 -168h90v-44h-106l-71 -188h122v-44h-138l-67 -178h-21l67 178h-143z" />
    <glyph glyph-name="dollar" unicode="$" horiz-adv-x="524" 
d="M285 344l106 264q-22 2 -35 2q-78 0 -128.5 -38t-50.5 -100q0 -47 28 -75.5t80 -52.5zM230 12q75 0 128.5 39.5t53.5 104.5q0 51 -30 80t-89 57l-5 2l-111 -278q27 -5 53 -5zM451 172q0 -80 -65 -127.5t-154 -47.5q-32 0 -61 6l-49 -124h-23l51 129q-58 16 -92 51t-34 78
q0 28 13 43.5t32 15.5q17 0 27 -10t10 -24q0 -21 -21.5 -33t-21.5 -25q0 -20 25 -44t68 -37l113 281q-63 29 -97 62t-34 90q0 77 61.5 123.5t152.5 46.5q24 0 45 -3l36 91h23l-38 -95q60 -13 93.5 -46t33.5 -76q0 -28 -13 -43t-32 -15q-16 0 -27 10t-11 24q0 21 21.5 33
t21.5 25q0 21 -24.5 42.5t-68.5 30.5l-107 -268q35 -16 54.5 -27t44 -30.5t36 -46t11.5 -60.5z" />
    <glyph glyph-name="percent" unicode="%" horiz-adv-x="648" 
d="M384 519q0 -61 -45 -108t-109 -47q-52 0 -83.5 29.5t-31.5 81.5q0 61 45 108t109 47q52 0 83.5 -29.5t31.5 -81.5zM10 0l320 321l293 301h29l-310 -313l-303 -309h-29zM154 465q0 -84 76 -84q37 0 66.5 26.5t41.5 76.5q7 24 7 45q0 84 -76 84q-37 0 -66.5 -26.5
t-42.5 -76.5q-6 -26 -6 -45zM407 -10q-52 0 -83.5 29.5t-31.5 81.5q0 61 45 108t109 47q52 0 83.5 -29.5t31.5 -81.5q0 -61 -45 -108t-109 -47zM407 7q37 0 66.5 26.5t41.5 76.5q7 24 7 45q0 84 -76 84q-37 0 -66.5 -26.5t-42.5 -76.5q-6 -26 -6 -45q0 -84 76 -84z" />
    <glyph glyph-name="ampersand" unicode="&#x26;" horiz-adv-x="751" 
d="M296 320q24 0 38 10t14 25q0 37 -66 37q-38 0 -74 -13q29 -59 88 -59zM665 239q0 -107 -97.5 -180.5t-248.5 -73.5q-130 0 -206 58.5t-76 148.5q0 63 37.5 111.5t95.5 73.5q-11 30 -11 62q0 80 59.5 140t150.5 60q53 0 92.5 -26t39.5 -70q0 -34 -20.5 -52.5t-52.5 -18.5
q-52 0 -86 54l10 7q25 -33 61 -33q46 0 46 48q0 35 -27 54.5t-73 19.5q-77 0 -122 -48.5t-45 -120.5q0 -35 11 -62q42 15 80 15q41 0 62 -15t21 -37q0 -29 -20.5 -47t-56.5 -18q-37 0 -67 20.5t-47 55.5q-95 -52 -95 -153q0 -88 70.5 -137t189.5 -49q133 0 221 59t88 154
q0 47 -28 78t-74 31q-56 0 -90 -27.5t-34 -72.5q0 -23 11 -40.5t26 -17.5q13 0 14 14q4 37 39 37q14 0 23 -9.5t9 -24.5q0 -21 -16.5 -34.5t-44.5 -13.5q-32 0 -54 25.5t-22 64.5q0 116 154 151q18 4 52 10t58.5 11.5t39.5 12.5q54 27 54 85q0 31 -15 50t-33 19
q-12 0 -14 -18q-6 -37 -37 -37q-16 0 -25 10t-9 25q0 20 15.5 33.5t44.5 13.5q38 0 63 -26t25 -72q0 -62 -41 -103q-28 -27 -77 -40.5t-91 -13.5q-2 0 -12 -0.5t-13 -0.5q55 0 86.5 -33t31.5 -87z" />
    <glyph glyph-name="quotesingle" unicode="'" horiz-adv-x="276" 
d="M211 488l-9 2l22 134.5t13 84t6 31.5q9 31 39 23t21 -39q-3 -10 -12 -32l-31 -77.5z" />
    <glyph glyph-name="parenleft" unicode="(" horiz-adv-x="370" 
d="M219 -176l-12 -8q-26 35 -40.5 57.5t-38 68t-35.5 98t-12 111.5v2q0 133 47 246.5t125 199.5t197 171l7 -9q-333 -270 -333 -624v-2q0 -163 95 -311z" />
    <glyph glyph-name="parenright" unicode=")" horiz-adv-x="370" 
d="M183 761l12 8q26 -35 40.5 -57.5t38 -68t35.5 -98t12 -111.5v-2q0 -133 -47 -246.5t-125 -199.5t-197 -171l-7 9q333 270 333 624v2q0 163 -95 311z" />
    <glyph glyph-name="asterisk" unicode="*" horiz-adv-x="435" 
d="M360 426q0 -14 -8 -22t-20 -8q-27 0 -27 31q0 7 11 43.5t13 86.5q-41 -25 -66.5 -54t-32.5 -33q-27 -15 -42 7q-6 11 -2 22.5t15 17.5q6 4 44.5 13t80.5 32q-42 23 -80.5 31t-44.5 12q-12 7 -15 18.5t3 21.5q11 24 42 8q6 -3 32 -32t67 -54q-3 50 -14 85.5t-11 43.5
q0 15 7.5 23t19.5 8q13 0 20.5 -8.5t7.5 -22.5q0 -7 -11 -43t-13 -86q40 25 65.5 53.5t33.5 32.5q11 7 23.5 5t17.5 -12q14 -26 -13 -40q-6 -4 -44 -13t-80 -32q42 -22 80 -30.5t44 -12.5q27 -14 14 -40q-14 -24 -43 -8q-7 4 -32.5 32.5t-65.5 53.5q2 -50 13 -86.5t11 -43.5
z" />
    <glyph glyph-name="plus" unicode="+" horiz-adv-x="550" 
d="M286 223l-55 -205h-28l55 205h-205l7 28h205l54 203h28l-54 -203h205l-7 -28h-205z" />
    <glyph glyph-name="comma" unicode="," horiz-adv-x="266" 
d="M-17 -157l-5 16q54 19 89.5 54t35.5 76q0 13 -10 13q-3 0 -10 -1.5t-11 -1.5q-18 0 -29 11.5t-11 30.5q0 20 13.5 34t37.5 14q25 0 39.5 -18t14.5 -51q0 -124 -154 -177z" />
    <glyph glyph-name="hyphen" unicode="-" horiz-adv-x="280" 
d="M19 221l8 30h245l-8 -30h-245z" />
    <glyph glyph-name="period" unicode="." horiz-adv-x="242" 
d="M123 42q0 -21 -14 -34t-34 -13q-18 0 -32.5 13.5t-14.5 33.5q0 21 14 34t33 13q20 0 34 -13t14 -34z" />
    <glyph glyph-name="slash" unicode="/" horiz-adv-x="326" 
d="M-43 -50l436 779h28l-435 -779h-29z" />
    <glyph glyph-name="zero" unicode="0" horiz-adv-x="590" 
d="M560 326q0 -61 -23 -121.5t-63 -109.5t-101 -79.5t-131 -30.5q-92 0 -147 54.5t-55 154.5q0 129 90 235t227 106q92 0 147.5 -54.5t55.5 -154.5zM93 171q0 -79 36 -125t114 -46q100 0 168 76.5t88 183.5q8 39 8 89q0 79 -36 125t-114 46q-100 0 -168 -76.5t-88 -183.5
q-8 -39 -8 -89z" />
    <glyph glyph-name="one" unicode="1" horiz-adv-x="414" 
d="M306 13l-3 -13q-25 0 -74.5 0.5t-74.5 0.5t-74.5 -0.5t-74.5 -0.5l3 13l65 7q38 4 55 18t25 43l78 281q20 68 9.5 86.5t-75.5 21.5l-43 2l3 14l42 3q122 9 142 32h13q-10 -32 -46 -156l-79 -284q-8 -29 1 -43t47 -18z" />
    <glyph glyph-name="two" unicode="2" horiz-adv-x="512" 
d="M346 -13q-50 0 -129 46t-118 46q-50 0 -50 -38q0 -22 13 -46q-27 -10 -42.5 -2t-15.5 32q0 23 23 54q53 69 210 137q45 20 71.5 33t54.5 31t42 35.5t23 41.5t9 54q0 109 -128 109q-73 0 -121.5 -40.5t-48.5 -106.5q0 -28 13.5 -43t36.5 -15q58 0 86 85l13 -3
q-34 -109 -117 -109q-34 0 -57.5 20t-23.5 63q0 67 63.5 115.5t155.5 48.5q80 0 130 -37.5t50 -96.5q0 -74 -55.5 -115t-191.5 -90q-55 -21 -117.5 -56t-87.5 -71q24 33 79 33q39 0 120 -35.5t113 -35.5q75 0 75 69q0 29 -18 67l12 4q26 -54 26 -87q0 -43 -24.5 -70
t-73.5 -27z" />
    <glyph glyph-name="three" unicode="3" horiz-adv-x="535" 
d="M452 92q0 -106 -91.5 -186t-217.5 -80q-76 0 -124 32t-48 80q0 26 14 42.5t36 16.5q18 0 28.5 -9.5t10.5 -24.5q0 -21 -19 -33.5t-19 -25.5q0 -21 31.5 -42t88.5 -21q114 0 187.5 79t73.5 185q0 102 -103 102q-30 0 -56 -8.5t-41 -19t-31.5 -19t-29.5 -8.5
q-15 0 -21.5 10.5t-3.5 21.5q19 10 73.5 23.5t81.5 24.5q166 67 166 192q0 96 -118 96q-73 0 -125 -44.5t-52 -102.5q0 -24 12.5 -39t34.5 -15q57 0 88 85l13 -3q-39 -109 -118 -109q-35 0 -56.5 20t-21.5 56q0 67 69.5 117t156.5 50q74 0 121 -32.5t47 -88.5
q0 -69 -55.5 -112t-205.5 -97q54 15 79 15q59 0 102 -30t43 -98z" />
    <glyph glyph-name="four" unicode="4" horiz-adv-x="497" 
d="M-1 83h269l72 260l3 13l37 122zM376 -145l-3 -13q-25 0 -74.5 0.5t-74.5 0.5t-74.5 -0.5t-74.5 -0.5l3 13l65 7q38 4 55.5 18.5t25.5 43.5l38 136h-283l-2 22l422 439h32l-120 -438h32q41 0 63 14.5t50 61.5l26 44h13l-64 -147q-64 4 -104 4h-22l-38 -137q-8 -30 1 -43.5
t47 -17.5z" />
    <glyph glyph-name="five" unicode="5" horiz-adv-x="523" 
d="M129 -174q-75 0 -123.5 34t-48.5 79q0 26 14 42t36 16q18 0 28.5 -9.5t10.5 -24.5q0 -21 -19 -33.5t-19 -25.5q0 -21 32.5 -42t89.5 -21q113 0 184.5 76.5t71.5 182.5q0 74 -31 110.5t-102 36.5q-48 0 -80 -18t-78 -61l-33 4l110 349h23q64 -27 166 -27q119 0 170 36
l5 -4q-66 -79 -230 -79q-76 0 -131 11l-78 -249q77 53 159 53q85 0 132 -44t47 -131q0 -106 -92 -183.5t-214 -77.5z" />
    <glyph glyph-name="six" unicode="6" horiz-adv-x="555" 
d="M510 245q0 -105 -73 -182.5t-183 -77.5q-88 0 -143.5 54t-55.5 168q0 87 29 173.5t79 156.5t124.5 113.5t158.5 43.5q65 0 106.5 -27.5t41.5 -71.5q0 -24 -13 -39t-33 -15q-17 0 -28.5 10.5t-11.5 26.5q0 18 16.5 31t16.5 24q0 18 -24.5 32t-69.5 14q-56 0 -107.5 -25.5
t-90.5 -68.5t-67 -93.5t-46 -105.5q-33 -106 -33 -198q0 -188 151 -188q115 0 174 115q32 61 32 141q0 75 -32 110t-85 35q-82 0 -152 -49l-9 11q84 57 167 57q67 0 114 -42.5t47 -132.5z" />
    <glyph glyph-name="seven" unicode="7" horiz-adv-x="522" 
d="M161 -170q-30 0 -30 33q0 65 48.5 170t125.5 208q31 42 65 81.5t87.5 96.5t54.5 58h-287q-45 0 -68.5 -20t-60.5 -91h-15l58 174h11q0 -20 24 -20h372l1 -21q-5 -6 -32 -35.5l-35.5 -39l-31 -35t-34.5 -40.5l-30 -37t-32 -42l-27 -40q-105 -161 -128 -367q-4 -33 -36 -33
z" />
    <glyph glyph-name="eight" unicode="8" horiz-adv-x="553" 
d="M243 -15q-90 0 -147.5 42.5t-57.5 118.5q0 93 68 150.5t176 66.5q-53 10 -87 43t-34 87q0 86 66.5 143.5t169.5 57.5q71 0 116 -37t45 -105q0 -78 -58 -128.5t-142 -60.5q71 -9 111.5 -50t40.5 -106q0 -69 -41 -121.5t-100.5 -76.5t-125.5 -24zM210 484q0 -50 29 -81
t85 -31q71 0 118 40.5t63 110.5q5 21 5 53q0 48 -29.5 75.5t-84.5 27.5q-74 0 -122.5 -42.5t-60.5 -111.5q-3 -15 -3 -41zM91 135q0 -61 40 -98t113 -37q80 0 137 45t73 125q5 21 5 53q0 60 -35 94t-108 34q-92 0 -148.5 -43.5t-72.5 -123.5q-4 -21 -4 -49z" />
    <glyph glyph-name="nine" unicode="9" horiz-adv-x="559" 
d="M514 313q0 -87 -29 -173.5t-79 -156.5t-124.5 -113.5t-158.5 -43.5q-65 0 -106.5 27.5t-41.5 71.5q0 24 13 39t33 15q17 0 28.5 -10.5t11.5 -26.5q0 -18 -16.5 -31t-16.5 -24q0 -18 24.5 -32t69.5 -14q56 0 107.5 25.5t90.5 68.5t67 93.5t46 105.5q33 106 33 198
q0 188 -151 188q-115 0 -174 -115q-32 -61 -32 -141q0 -75 32 -110t85 -35q82 0 152 49l9 -11q-84 -57 -167 -57q-67 0 -114 42.5t-47 132.5q0 105 73 182.5t183 77.5q88 0 143.5 -54t55.5 -168z" />
    <glyph glyph-name="colon" unicode=":" horiz-adv-x="263" 
d="M238 433q0 -21 -14 -34t-34 -13q-18 0 -32.5 13.5t-14.5 33.5q0 21 14 34t33 13q20 0 34 -13t14 -34zM135 42q0 -21 -14 -34t-34 -13q-18 0 -32.5 13.5t-14.5 33.5q0 21 14 34t33 13q20 0 34 -13t14 -34z" />
    <glyph glyph-name="semicolon" unicode=";" horiz-adv-x="290" 
d="M239 433q0 -21 -14 -34t-34 -13q-18 0 -32.5 13.5t-14.5 33.5q0 21 14 34t33 13q20 0 34 -13t14 -34zM-3 -157l-5 16q54 19 89.5 54t35.5 76q0 13 -10 13q-3 0 -10 -1.5t-11 -1.5q-18 0 -29 11.5t-11 30.5q0 20 13.5 34t37.5 14q25 0 39.5 -18t14.5 -51q0 -124 -154 -177
z" />
    <glyph glyph-name="less" unicode="&#x3c;" horiz-adv-x="550" 
d="M388 17l-348 203l8 33l455 202l11 -26l-445 -195l335 -193z" />
    <glyph glyph-name="equal" unicode="=" horiz-adv-x="550" 
d="M78 317l7 28h438l-7 -28h-438zM470 127h-438l7 28h438z" />
    <glyph glyph-name="greater" unicode="&#x3e;" horiz-adv-x="550" 
d="M517 219l-455 -202l-11 26l445 195l-335 193l16 24l348 -203z" />
    <glyph glyph-name="question" unicode="?" horiz-adv-x="494" 
d="M375 265q-43 -90 -112 -90q-33 0 -56 19.5t-23 51.5q0 45 34.5 76.5t83.5 51l98 39.5t83.5 55.5t34.5 85.5q0 60 -41.5 92.5t-111.5 32.5q-84 0 -136 -45.5t-52 -104.5q0 -33 16.5 -51t44.5 -18q57 0 91 91l14 -1q-39 -117 -120 -117q-40 0 -64 24.5t-24 65.5
q0 70 65.5 120.5t161.5 50.5q84 0 138 -41t54 -112q0 -46 -25 -81t-62.5 -55t-81 -39l-81 -34t-62.5 -39t-25 -54q0 -23 14.5 -35t35.5 -12q56 0 98 79zM229 -5q-19 0 -33.5 13.5t-14.5 34.5t14 33.5t33 12.5q20 0 34 -13t14 -34t-14 -34t-33 -13z" />
    <glyph glyph-name="at" unicode="@" horiz-adv-x="866" 
d="M399 -222q-96 0 -177.5 40.5t-132 119.5t-50.5 182q0 127 65 245t179.5 193t247.5 75q129 0 218 -81t89 -220q0 -130 -81.5 -225.5t-182.5 -95.5q-50 0 -75 23.5t-25 64.5q0 17 20 72q-30 -80 -62.5 -115t-72.5 -35q-41 0 -66 31t-25 87q0 106 67 196.5t159 90.5
q56 0 88 -41l41 41h10l-42 -93l-63 -167q-15 -42 -15 -71q0 -68 69 -68q81 0 149.5 84.5t68.5 213.5q0 132 -82.5 208.5t-210.5 76.5q-118 0 -218 -67t-156 -176t-56 -231q0 -143 95.5 -233.5t244.5 -90.5q123 0 208 56l6 -8q-102 -82 -232 -82zM372 44q60 0 107 124l76 201
q-16 43 -58 43q-52 0 -95 -52t-62.5 -116t-19.5 -116q0 -84 52 -84z" />
    <glyph glyph-name="A" unicode="A" horiz-adv-x="631" 
d="M593 0q-22 0 -66.5 0.5t-66.5 0.5t-66.5 -0.5t-66.5 -0.5l3 13l55 6q41 5 57 21.5t13 53.5l-10 131h-275l-33 -55q-36 -59 -43.5 -90t7 -44t56.5 -19l26 -4l-3 -13q-21 0 -63.5 0.5t-63.5 0.5t-64 -0.5t-64 -0.5l3 13l21 4q46 9 76.5 37.5t90.5 126.5l264 434l37 68h36
l47 -579q4 -45 16.5 -61.5t47.5 -23.5l32 -6zM444 246l-29 390l-233 -390h262z" />
    <glyph glyph-name="B" unicode="B" horiz-adv-x="614" 
d="M-40 0l3 13l65 7q38 4 55 18t25 43l138 517q8 29 -1 43t-47 18l-61 7l3 13h269q200 0 200 -132q0 -73 -65 -125.5t-158 -63.5v-1q82 -5 130 -40.5t48 -98.5q0 -104 -90 -161t-232 -57h-282zM228 365h103q111 0 169.5 57t58.5 143q0 96 -153 96h-99zM205 18h42
q123 0 194 59.5t71 159.5q0 110 -182 110h-107l-69 -259q-10 -37 1.5 -53.5t49.5 -16.5z" />
    <glyph glyph-name="C" unicode="C" horiz-adv-x="660" 
d="M510 -11l-3 82q-84 -86 -207 -86q-108 0 -172.5 68t-64.5 188q0 121 50 225t139 166t196 62q132 0 183 -101l53 96h10l-73 -277h-18q6 54 1.5 102.5t-18.5 85t-49 58t-89 21.5q-77 0 -141.5 -43t-104.5 -110t-62 -144.5t-22 -151.5q0 -104 46.5 -167t134.5 -63
q168 0 271 254h20l-70 -265h-10z" />
    <glyph glyph-name="D" unicode="D" horiz-adv-x="670" 
d="M-40 0l3 13l65 7q38 4 55 18t25 43l138 517q8 29 -1 43t-47 18l-61 7l3 13h280q120 0 190 -66.5t70 -176.5q0 -187 -119.5 -311.5t-315.5 -124.5h-285zM205 18h42q115 0 203 61t132 159.5t44 215.5q0 93 -52 150t-154 57h-113l-153 -573q-10 -37 1.5 -53.5t49.5 -16.5z
" />
    <glyph glyph-name="E" unicode="E" horiz-adv-x="625" 
d="M575 237l-75 -237h-540l3 13l65 7q38 4 55 18t25 43l138 517q8 29 -1 43t-47 18l-61 7l3 13h504l-40 -217h-15q3 53 4 80.5t-1.5 53.5t-7.5 36t-18 18.5t-28 9.5t-43 1h-188l-81 -302h106q50 0 76 29t62 120h14l-43 -161l-42 -161h-13q8 59 7.5 93.5t-13.5 48t-46 13.5
h-112l-68 -253q-10 -37 2 -53.5t50 -16.5h132q84 0 123 38.5t99 180.5h15z" />
    <glyph glyph-name="F" unicode="F" horiz-adv-x="577" 
d="M277 13l-3 -13q-26 0 -78.5 0.5t-78.5 0.5t-78.5 -0.5t-78.5 -0.5l3 13l65 7q38 4 55 18t25 43l138 517q8 29 -1 43t-47 18l-61 7l3 13h501l-40 -217h-15q3 53 4 80.5t-1.5 53.5t-7.5 36t-18 18.5t-28 9.5t-43 1h-185l-81 -304h97q50 0 76 29t62 120h14l-43 -161
l-42 -161h-13q8 59 7.5 93.5t-13.5 48t-46 13.5h-104l-66 -247q-9 -33 3 -50.5t51 -21.5z" />
    <glyph glyph-name="G" unicode="G" horiz-adv-x="682" 
d="M511 -13l-7 83q-40 -40 -97 -62.5t-116 -22.5q-107 0 -167.5 67.5t-60.5 188.5t50 225t139 166t196 62q132 0 183 -101l53 96h10l-73 -277h-18q6 54 1.5 102.5t-18.5 85t-49 58t-89 21.5q-77 0 -141.5 -43t-104.5 -110t-62 -144.5t-22 -151.5q0 -106 42.5 -168t129.5 -62
t148.5 50t78.5 118l13 51q7 30 -4.5 46t-53.5 20l-71 7l3 13q52 -1 157 -1q104 0 156 1l-3 -13l-58 -7q-38 -4 -55.5 -18.5t-25.5 -44.5l-26 -97l-29 -138h-9z" />
    <glyph glyph-name="H" unicode="H" horiz-adv-x="739" 
d="M667 13l-3 -13q-25 0 -74.5 0.5t-74.5 0.5t-74.5 -0.5t-74.5 -0.5l3 13l65 7q38 4 55 18t25 43l68 256h-362l-68 -256q-8 -29 1 -43t47 -18l61 -7l-3 -13q-25 0 -74.5 0.5t-74.5 0.5t-74.5 -0.5t-74.5 -0.5l3 13l65 7q38 4 55 18t25 43l138 517q8 29 -1 43t-47 18l-61 7
l3 13q50 -1 149 -1t149 1l-3 -13l-65 -7q-38 -4 -55 -18t-25 -43l-64 -240h362l64 240q8 29 -1 43t-47 18l-61 7l3 13q50 -1 149 -1t149 1l-3 -13l-65 -7q-38 -4 -55 -18t-25 -43l-138 -517q-8 -29 1 -43t47 -18z" />
    <glyph glyph-name="I" unicode="I" horiz-adv-x="333" 
d="M261 13l-3 -13q-25 0 -74.5 0.5t-74.5 0.5t-74.5 -0.5t-74.5 -0.5l3 13l65 7q38 4 55 18t25 43l138 517q8 29 -1 43t-47 18l-61 7l3 13q50 -1 149 -1t149 1l-3 -13l-65 -7q-38 -4 -55 -18t-25 -43l-138 -517q-8 -29 1 -43t47 -18z" />
    <glyph glyph-name="J" unicode="J" horiz-adv-x="497" 
d="M368 216q-60 -231 -248 -231q-66 0 -102.5 35.5t-36.5 92.5q0 32 14 52.5t40 20.5q17 0 27 -10.5t10 -25.5q0 -30 -36 -37q-19 -4 -19 -27q0 -35 24.5 -60.5t80.5 -25.5q144 0 195 188l105 394q10 39 -3 56t-69 23l-47 5l3 13q52 -1 156 -1q103 0 155 1l-3 -13l-64 -7
q-40 -4 -57.5 -19.5t-27.5 -53.5z" />
    <glyph glyph-name="K" unicode="K" horiz-adv-x="695" 
d="M261 13l-3 -13q-25 0 -74.5 0.5t-74.5 0.5t-74.5 -0.5t-74.5 -0.5l3 13l65 7q38 4 55 18t25 43l138 517q8 29 -1 43t-47 18l-61 7l3 13q50 -1 149 -1t149 1l-3 -13l-65 -7q-38 -4 -55 -18t-25 -43l-138 -517q-8 -29 1 -43t47 -18zM239 362l250 193q52 40 69 56.5t17 29.5
q0 16 -53 22l-30 3l3 13q47 -1 141 -1t141 1l-2 -13l-31 -4q-61 -8 -108.5 -31t-133.5 -89l-220 -168l166 -240q42 -62 77 -85.5t96 -31.5l30 -4l-3 -13q-27 0 -80.5 0.5t-80.5 0.5t-81 -0.5t-81 -0.5l3 13l50 5q60 6 60 36q0 18 -27 58z" />
    <glyph glyph-name="L" unicode="L" horiz-adv-x="621" 
d="M-40 0l3 13l65 7q38 4 55 18t25 43l138 517q8 29 -1 43t-47 18l-61 7l3 13q52 -1 156 -1q103 0 155 1l-3 -13l-72 -7q-41 -4 -59.5 -21t-28.5 -51l-134 -499q-10 -37 2 -53.5t50 -16.5h144q45 0 72 7t53.5 33.5t48.5 68.5t55 121h15l-77 -248h-557z" />
    <glyph glyph-name="M" unicode="M" horiz-adv-x="890" 
d="M817 650l-425 -653h-24l-85 651l-135 -507q-20 -70 -9 -93.5t72 -30.5l33 -4l-3 -13q-23 0 -70 0.5t-70 0.5t-70.5 -0.5t-70.5 -0.5l3 13l34 4q62 8 85 30.5t43 97.5l121 453q8 29 -1 43t-47 18l-61 7l3 13h183l80 -631l406 631h186l-3 -13l-65 -7q-38 -4 -55 -18
t-25 -43l-138 -517q-8 -29 1 -43t47 -18l61 -7l-3 -13q-25 0 -74.5 0.5t-74.5 0.5t-74.5 -0.5t-74.5 -0.5l3 13l65 7q38 4 55 18t25 43z" />
    <glyph glyph-name="N" unicode="N" horiz-adv-x="749" 
d="M559 -4h-34l-244 645l-133 -500q-20 -70 -9 -93.5t72 -30.5l33 -4l-3 -13q-23 0 -70 0.5t-70 0.5t-70.5 -0.5t-70.5 -0.5l3 13l34 4q62 8 85 30.5t43 97.5l121 453q8 29 -1 43t-47 18l-61 7l3 13h172l238 -632l131 491q20 70 9 93.5t-72 30.5l-33 4l3 13q47 -1 141 -1
q93 0 140 1l-3 -13l-34 -4q-62 -8 -85 -30.5t-43 -97.5z" />
    <glyph glyph-name="O" unicode="O" horiz-adv-x="667" 
d="M672 434q0 -184 -112 -316.5t-262 -132.5q-106 0 -170.5 70t-64.5 190q0 184 112 316.5t262 132.5q106 0 170.5 -70t64.5 -190zM117 229q0 -109 45.5 -169t137.5 -60q77 0 140 49q82 63 130 175.5t48 225.5q0 109 -45.5 169t-137.5 60q-77 0 -140 -49
q-82 -63 -130 -175.5t-48 -225.5z" />
    <glyph glyph-name="P" unicode="P" horiz-adv-x="576" 
d="M307 661l-89 -332q54 -3 108 -3q115 0 182 55t67 156q0 62 -39.5 93t-125.5 31h-103zM277 13l-3 -13q-26 0 -78.5 0.5t-78.5 0.5t-78.5 -0.5t-78.5 -0.5l3 13l65 7q38 4 55 18t25 43l138 517q8 29 -1 43t-47 18l-61 7l3 13h270q101 0 160.5 -38.5t59.5 -112.5
q0 -105 -84.5 -162.5t-219.5 -57.5q-64 0 -112 4l-59 -220q-9 -33 3 -50.5t51 -21.5z" />
    <glyph glyph-name="Q" unicode="Q" horiz-adv-x="667" 
d="M607 -267q-47 0 -88 18.5t-71.5 45l-60.5 53t-68.5 45t-81.5 18.5q-78 0 -180 -74q-19 -14 -40 -10.5t-27 24.5q49 39 159 60q37 17 78.5 33l92.5 34t64 23q-47 -16 -101 -16q-90 0 -155 71t-65 187q0 184 111 316.5t262 132.5q106 0 171 -69.5t65 -190.5
q0 -88 -26.5 -169.5t-81.5 -148.5t-132 -103q-49 -23 -137 -54t-129 -50q54 20 103 20q44 0 85.5 -15.5t74 -38l64 -45t68.5 -38t74 -15.5q65 0 107.5 34t75.5 110h13q-71 -188 -224 -188zM117 229q0 -109 45.5 -169t137.5 -60q77 0 140 49q82 63 130 175.5t48 225.5
q0 109 -45.5 169t-137.5 60q-77 0 -140 -49q-82 -63 -130 -175.5t-48 -225.5z" />
    <glyph glyph-name="R" unicode="R" horiz-adv-x="636" 
d="M509 -10q-53 0 -71 33t-18 92v69q0 32 -2.5 51.5t-12 41.5t-32.5 32.5t-59 10.5q-55 0 -97 6l-62 -234q-9 -33 3 -50.5t51 -21.5l68 -7l-3 -13q-26 0 -78.5 0.5t-78.5 0.5t-78.5 -0.5t-78.5 -0.5l3 13l65 7q38 4 55 18t25 43l138 517q8 29 -1 43t-47 18l-61 7l3 13h268
q101 0 158 -39t57 -111q0 -96 -78.5 -148t-209.5 -52v-1q91 0 117 -76q13 -39 15 -102q2 -85 10 -112t38 -27t53 30.5t46 104.5l17 -4q-23 -82 -51 -117t-71 -35zM307 662l-85 -318q42 -6 101 -6q111 0 178.5 54.5t67.5 152.5q0 117 -166 117h-96z" />
    <glyph glyph-name="S" unicode="S" horiz-adv-x="582" 
d="M504 196q0 -98 -65 -154.5t-159 -56.5q-144 0 -197 100l-58 -97h-10l74 275h18q-14 -125 28.5 -194t143.5 -69q83 0 133 48t50 130q0 55 -32 86t-104 63q-36 16 -59 28.5t-48 33t-37.5 47t-12.5 60.5q0 90 65 144t150 54q123 0 170 -85l48 82h10l-71 -264h-17
q12 126 -17 189t-124 63q-70 0 -121 -44.5t-51 -118.5q0 -26 8.5 -46.5t18 -33.5t34 -28t38 -21.5l48.5 -22.5q71 -32 108.5 -69t37.5 -99z" />
    <glyph glyph-name="T" unicode="T" horiz-adv-x="655" 
d="M447 13l-3 -13q-27 0 -81.5 0.5t-81.5 0.5q-28 0 -82.5 -0.5t-81.5 -0.5l3 13l72 7q41 4 59.5 21t28.5 51l152 569h-113q-63 0 -98 -38q-28 -29 -87 -147q-2 -4 -5 -11q-5 -10 -8 -15h-13l68 229h552l-34 -229h-14q4 95 -2.5 138t-25.5 58t-63 15h-113l-152 -569
q-9 -33 3 -50.5t52 -21.5z" />
    <glyph glyph-name="U" unicode="U" horiz-adv-x="756" 
d="M631 236q-36 -132 -106 -191t-187 -59q-44 0 -80 8t-66.5 26t-47.5 51.5t-17 80.5q0 42 17 108l90 338q8 29 -1 43t-47 18l-61 7l3 13q50 -1 149 -1t149 1l-3 -13l-65 -7q-38 -4 -55 -18t-25 -43l-91 -341q-17 -62 -17 -103q0 -81 48 -111.5t130 -30.5q104 0 166.5 53.5
t93.5 171.5l80 301q20 70 9 93.5t-72 30.5l-33 4l3 13q47 -1 141 -1q93 0 140 1l-3 -13l-34 -4q-62 -8 -85 -30.5t-43 -97.5z" />
    <glyph glyph-name="V" unicode="V" horiz-adv-x="627" 
d="M241 -5l-50 580q-4 45 -16.5 62t-46.5 23l-33 6l3 13q44 -1 132 -1t132 1l-3 -13l-55 -6q-41 -5 -57 -21.5t-13 -53.5l44 -542l277 466q46 78 46 107q0 20 -17 30t-58 16l-27 4l3 13q44 -1 133 -1q88 0 132 1l-3 -13l-21 -4q-47 -9 -78 -37.5t-90 -126.5l-262 -433
l-39 -70h-33z" />
    <glyph glyph-name="W" unicode="W" horiz-adv-x="927" 
d="M218 -5l-27 577q-2 47 -15.5 64.5t-53.5 24.5l-27 5l3 13q44 -1 131 -1t130 1l-3 -13l-57 -7q-42 -5 -55 -23.5t-11 -59.5l25 -516l316 621h34l30 -620l221 444q40 81 40 107q0 22 -15 32t-55 17l-30 5l3 13q44 -1 133 -1q88 0 132 1l-3 -13l-26 -5q-49 -9 -79.5 -41
t-79.5 -126l-224 -438l-31 -61h-25l-30 630l-294 -571l-30 -59h-27z" />
    <glyph glyph-name="X" unicode="X" horiz-adv-x="725" 
d="M678 13l-3 -13q-25 0 -73 0.5t-73 0.5t-74 -0.5t-73 -0.5l3 13l59 8q42 6 53 20.5t-3 46.5l-105 242l-196 -195q-59 -58 -59 -84q0 -23 66 -32l41 -6l-3 -13q-25 0 -74.5 0.5t-74.5 0.5t-74.5 -0.5t-74.5 -0.5l3 13l40 7q46 8 87 33.5t110 94.5l201 199l-100 224
q-22 49 -41 65.5t-56 22.5l-44 7l3 13q47 -1 140 -1t140 1l-3 -13l-60 -8q-40 -5 -48 -19.5t6 -43.5l95 -222l173 171q59 58 59 84q0 23 -66 32l-41 6l3 13q50 -1 150 -1q99 0 149 1l-3 -13l-40 -7q-47 -8 -88 -33.5t-110 -94.5l-178 -176l111 -247q22 -49 40 -65t56 -22z
" />
    <glyph glyph-name="Y" unicode="Y" horiz-adv-x="597" 
d="M387 0q-27 0 -81.5 0.5t-81.5 0.5q-28 0 -82 -0.5t-82 -0.5l3 13l72 7q41 4 59.5 21t28.5 51l47 177l-90 302q-16 53 -30 68t-53 22l-27 5l3 13q44 -1 133 -1q88 0 132 1l-3 -13l-58 -7q-41 -5 -53.5 -21.5t-2.5 -52.5l87 -298l195 230q67 79 67 107q0 15 -14.5 23
t-49.5 13l-37 6l3 13q44 -1 133 -1q88 0 132 1l-3 -13l-21 -4q-47 -9 -81.5 -37t-114.5 -120l-202 -234l-48 -179q-9 -33 3 -50.5t52 -21.5l68 -7z" />
    <glyph glyph-name="Z" unicode="Z" horiz-adv-x="621" 
d="M619 661h-253q-46 0 -72 -6t-52.5 -31.5t-47.5 -62t-58 -111.5h-15l72 229h483v-18l-618 -643h285q89 0 130.5 39.5t104.5 185.5h15l-75 -243h-518v18z" />
    <glyph glyph-name="bracketleft" unicode="[" horiz-adv-x="385" 
d="M22 -182l254 949l223 -4l-4 -15l-187 -10l-238 -891l187 -11l-4 -14z" />
    <glyph glyph-name="backslash" unicode="\" horiz-adv-x="323" 
d="M200 -49l-35 778h24l35 -778h-24z" />
    <glyph glyph-name="bracketright" unicode="]" horiz-adv-x="385" 
d="M390 767l-254 -949l-223 4l4 15l187 10l238 891l-187 11l4 14z" />
    <glyph glyph-name="asciicircum" unicode="^" horiz-adv-x="540" 
d="M409 721l-250 -259h-25l260 303h49l106 -303h-25z" />
    <glyph glyph-name="underscore" unicode="_" horiz-adv-x="518" 
d="M-61 -51l7 28h518l-7 -28h-518z" />
    <glyph glyph-name="grave" unicode="`" 
d="M449 578h-6q-72 82 -110 169v3h59q14 -80 57 -172z" />
    <glyph glyph-name="a" unicode="a" horiz-adv-x="525" 
d="M166 0q112 0 187 254l45 154q-26 65 -95 65q-67 0 -124 -68t-82 -169q-14 -56 -14 -114q0 -56 21 -89t62 -33zM357 228l2 5l4 15zM375 -10q-30 0 -47 18.5t-17 48.5q0 11 2.5 25.5t8 34.5t9.5 33t13 39.5t12 36.5q-39 -122 -85 -182.5t-107 -60.5q-54 0 -90.5 40
t-36.5 119q0 134 81 240t184 106q83 0 122 -58l45 58h9l-50 -126l-65 -222q-16 -52 -16 -82q0 -48 38 -48q31 0 56 35.5t54 111.5l16 -5q-34 -87 -62 -124.5t-74 -37.5z" />
    <glyph glyph-name="b" unicode="b" horiz-adv-x="458" 
d="M167 -13q-56 0 -90.5 32t-34.5 97q0 40 17 100l133 461q9 28 2 39t-37 14l-57 6v10l157 27l11 -6q-19 -46 -33 -94l-41 -140q-16 -54 -51.5 -154t-50.5 -150q40 130 92 194.5t124 64.5q57 0 92 -41t35 -124q0 -80 -35 -157t-97.5 -128t-135.5 -51zM81 102q0 -100 83 -100
q72 0 130.5 70t80.5 162q14 59 14 106q0 67 -19.5 99t-65.5 32q-65 0 -118 -69t-89 -199q-16 -60 -16 -101zM86 207l6 19q-1 -3 -3 -9.5t-3 -9.5z" />
    <glyph glyph-name="c" unicode="c" horiz-adv-x="432" 
d="M382 137q-43 -74 -90.5 -113t-112.5 -39q-68 0 -104 45.5t-36 121.5q0 128 77.5 232t187.5 104q47 0 80 -27t33 -70q0 -27 -13 -41t-34 -14q-17 0 -27.5 10t-10.5 26q0 18 17 33q16 14 16 23q0 19 -16 32t-45 13q-75 0 -130.5 -73t-76.5 -164q-12 -53 -12 -92
q0 -64 25.5 -99.5t75.5 -35.5q57 0 98 32.5t84 103.5z" />
    <glyph glyph-name="d" unicode="d" horiz-adv-x="530" 
d="M168 0q118 0 191 254l44 152q-29 67 -98 67q-67 0 -125 -68t-83 -169q-14 -58 -14 -114t21.5 -89t63.5 -33zM380 -10q-28 0 -45.5 18t-17.5 52q0 31 36 139q-76 -216 -187 -216q-55 0 -92 40.5t-37 118.5q0 134 82 240t185 106q67 0 111 -42l67 231q8 28 1 38t-39 14
l-57 6v10l160 28l11 -6q-19 -46 -33 -94l-156 -533q-16 -53 -16 -82q0 -48 38 -48q31 0 56 35.5t54 111.5l16 -5q-34 -86 -62.5 -124t-74.5 -38z" />
    <glyph glyph-name="e" unicode="e" horiz-adv-x="435" 
d="M184 -15q-69 0 -107.5 45t-38.5 119q0 83 35 160.5t97.5 128t135.5 50.5q44 0 75.5 -21.5t31.5 -59.5q0 -121 -320 -186q-9 -41 -9 -77q0 -63 28 -99t79 -36q57 0 100.5 33t85.5 103l14 -8q-88 -152 -207 -152zM96 235l10 2q127 26 193 68q71 45 71 104q0 30 -17 47
t-48 17q-71 0 -128 -71t-81 -167z" />
    <glyph glyph-name="f" unicode="f" horiz-adv-x="335" 
d="M-109 -244q-48 0 -74.5 21t-26.5 53q0 22 13 36.5t33 14.5q17 0 28 -10.5t11 -26.5q0 -18 -15 -30.5t-15 -18.5q0 -10 12.5 -17t33.5 -7q98 0 137 154l82 322l50 197l-100 9l4 14l104 9l23 92q29 114 77 161t121 47q46 0 78.5 -21.5t32.5 -58.5q0 -23 -13 -37.5
t-33 -14.5q-17 0 -28 10.5t-11 26.5q0 17 15.5 31t15.5 19q0 12 -16.5 21t-41.5 9q-56 0 -93 -40t-60 -133q-1 -2 -28 -115h136l-5 -21l-137 -5l-61 -243l-67 -270q-22 -90 -70.5 -134t-111.5 -44z" />
    <glyph glyph-name="g" unicode="g" horiz-adv-x="467" 
d="M171 0q114 0 187 254l44 153q-28 66 -97 66q-67 0 -125.5 -68.5t-83.5 -168.5q-14 -56 -14 -114q0 -55 23.5 -88.5t65.5 -33.5zM98 -244q-57 0 -91 25t-34 65q0 23 12.5 38.5t33.5 15.5q18 0 28.5 -10t10.5 -26q0 -18 -15.5 -31.5t-15.5 -23.5q0 -16 19.5 -27t49.5 -11
q61 0 103 38.5t68 129.5l11 39q9 32 38.5 115.5t51.5 154.5q-40 -133 -88 -199t-111 -66q-55 0 -94 40.5t-39 118.5q0 134 82.5 240t185.5 106q80 0 124 -56l43 56h9l-46 -123l-120 -410q-59 -199 -216 -199z" />
    <glyph glyph-name="h" unicode="h" horiz-adv-x="519" 
d="M505 152q-35 -88 -62.5 -125t-72.5 -37q-32 0 -52.5 18t-20.5 51q0 36 24 102l58 154q21 54 21 86q0 29 -16 47.5t-49 18.5q-38 0 -75.5 -30.5t-67.5 -80.5t-53 -104.5t-40 -112.5l-41 -139q-11 1 -21 1l-22 -1l197 677q9 28 2 39t-37 14l-57 6v10l157 27l11 -6
q-19 -46 -33 -94l-50 -171q-26 -90 -63 -199t-53 -161q104 346 255 346q45 0 71 -25t26 -63q0 -40 -24 -104l-58 -152q-22 -57 -22 -87q0 -47 42 -47q31 0 56 35.5t54 111.5z" />
    <glyph glyph-name="i" unicode="i" horiz-adv-x="295" 
d="M284 680q0 -19 -13 -32t-33 -13t-33 13t-13 32q0 20 13 33t33 13t33 -13t13 -33zM276 152q-34 -86 -62.5 -124t-74.5 -38q-31 0 -51 18t-20 51q0 32 26 97l74 185q21 51 21 76q0 46 -42 46q-31 0 -56 -35.5t-54 -111.5l-16 5q34 86 62.5 124t74.5 38q32 0 51.5 -17.5
t19.5 -50.5q0 -31 -26 -96l-74 -185q-21 -51 -21 -76q0 -48 42 -48q31 0 56 35.5t54 111.5z" />
    <glyph glyph-name="j" unicode="j" horiz-adv-x="310" 
d="M307 680q0 -19 -13 -32t-33 -13t-33 13t-13 32q0 20 13.5 33t32.5 13t32.5 -13t13.5 -33zM148 -33q-33 -124 -80.5 -167.5t-108.5 -43.5q-47 0 -75.5 23.5t-28.5 59.5q0 23 13 38t33 15q17 0 28 -10.5t11 -25.5q0 -19 -16 -33q-15 -13 -15 -23q0 -12 14 -20.5t37 -8.5
q49 0 81 37t57 131l96 357q21 76 21 121q0 21 -12 33.5t-33 12.5q-31 0 -58 -36.5t-55 -110.5l-16 5q34 85 64 123.5t76 38.5q32 0 53 -18.5t21 -51.5q0 -45 -21 -126z" />
    <glyph glyph-name="k" unicode="k" horiz-adv-x="467" 
d="M15 0l197 677q9 28 2 39t-37 14l-57 6v10l157 27l11 -6q-19 -46 -33 -94l-197 -673q-10 1 -21 1zM320 -9q-36 0 -57 20t-21 59q0 28 8 75t8 66q0 46 -29 58q-25 -18 -56 -18q-11 0 -19 2q-5 32 41 32q13 0 25 -3q26 22 56 80q34 64 63 95t68 31q30 0 45 -14.5t15 -37.5
q0 -21 -12.5 -33t-30.5 -12t-27 10.5t-9 25.5q0 4 0.5 10t0.5 9q0 11 -12 11q-14 0 -37.5 -28.5t-48.5 -75.5q-30 -56 -53 -75q54 -22 54 -95q0 -17 -5 -54.5t-5 -53.5q0 -63 48 -63q62 0 105 143l17 -4q-26 -82 -55.5 -121t-76.5 -39z" />
    <glyph glyph-name="l" unicode="l" horiz-adv-x="281" 
d="M262 152q-34 -86 -62.5 -124t-72.5 -38q-30 0 -50 19.5t-20 55.5q0 28 15 77l155 534q9 29 2 40t-37 14l-57 6v10l157 27l11 -6q-20 -50 -33 -94l-160 -547q-12 -40 -12 -68q0 -48 38 -48q31 0 56 35.5t54 111.5z" />
    <glyph glyph-name="m" unicode="m" horiz-adv-x="816" 
d="M665 -10q-31 0 -51 18t-20 51q0 35 24 101l60 162q19 53 19 81q0 27 -15.5 45.5t-48.5 18.5q-45 0 -90 -51t-77 -122t-58 -159l-40 -135q-10 1 -21 1l-22 -1l101 331q12 40 12 72q0 27 -15.5 45.5t-48.5 18.5q-44 0 -88 -50t-75.5 -119.5t-58.5 -159.5l-42 -138
q-8 1 -21 1l-22 -1l89 297q27 89 27 120q0 46 -41 46q-31 0 -56 -35.5t-54 -111.5l-16 5q34 86 62.5 124t74.5 38q31 0 49.5 -17.5t18.5 -50.5q0 -8 -1.5 -17.5t-5 -23l-6.5 -26t-10 -34l-12.5 -37.5l-15.5 -46.5l-17 -52.5q22 64 43 113.5t50 97t64.5 73.5t74.5 26
q44 0 67.5 -25t23.5 -62q0 -24 -7 -50.5t-28.5 -85t-36.5 -107.5q22 68 43.5 120t51 103t66.5 79t79 28q44 0 69.5 -24.5t25.5 -61.5t-23 -99l-63 -164q-19 -48 -19 -80q0 -49 42 -49q31 0 56 35.5t54 111.5l16 -5q-34 -86 -62.5 -124t-74.5 -38z" />
    <glyph glyph-name="n" unicode="n" horiz-adv-x="571" 
d="M557 152q-35 -88 -62.5 -125t-72.5 -37q-32 0 -52.5 18t-20.5 51q0 36 24 102l58 154q21 54 21 86q0 29 -16.5 47.5t-49.5 18.5q-66 0 -128.5 -96t-104.5 -233l-42 -138q-10 1 -21 1l-22 -1l89 297q28 92 28 120q0 46 -42 46q-31 0 -56 -35t-55 -112l-16 5q37 90 64 126
t73 36q31 0 50 -17.5t19 -50.5q0 -12 -3 -28t-11 -42l-15.5 -50l-22.5 -69.5l-27 -82.5q110 345 252 345q45 0 71.5 -24.5t26.5 -63.5q0 -40 -24 -104l-58 -152q-22 -57 -22 -87q0 -47 42 -47q31 0 56 35.5t54 111.5z" />
    <glyph glyph-name="o" unicode="o" horiz-adv-x="472" 
d="M447 319q0 -134 -79 -234t-178 -100q-66 0 -108 44t-42 125q0 134 79 234t178 100q67 0 108.5 -44t41.5 -125zM86 132q0 -132 101 -132q53 0 96.5 38.5t67.5 89t37 109.5q13 58 13 104q0 132 -101 132q-53 0 -96.5 -38.5t-67.5 -89t-37 -109.5q-13 -58 -13 -104z" />
    <glyph glyph-name="p" unicode="p" horiz-adv-x="489" 
d="M198 -2q67 0 125.5 68.5t83.5 168.5q14 58 14 114t-22 89t-64 33q-118 0 -191 -254l-44 -152q29 -67 98 -67zM129 -217l-3 -13q-22 0 -62 0.5t-62 0.5t-66.5 -0.5t-66.5 -0.5l3 13l44 6q35 5 52.5 18.5t25.5 40.5l124 423q17 59 47 138t35 94q-54 -151 -171 -204l-6 13
q153 72 199 308h38l-39 -140q-12 -45 -37.5 -113t-41.5 -119q77 240 195 240q55 0 92.5 -40.5t37.5 -118.5q0 -134 -82.5 -240t-185.5 -106q-67 0 -111 42l-50 -173q-9 -29 0.5 -44t43.5 -19z" />
    <glyph glyph-name="q" unicode="q" horiz-adv-x="470" 
d="M373 -230q-22 0 -62 0.5t-62 0.5t-66.5 -0.5t-66.5 -0.5l3 13l44 6q35 5 52.5 18.5t25.5 40.5l20 69q16 55 50 153.5t58 177.5q-79 -265 -203 -265q-55 0 -92 40.5t-37 118.5q0 134 82 240t185 106q83 0 124 -57l44 57h9l-46 -123l-151 -515q-9 -28 1 -42.5t44 -18.5
l47 -6zM168 0q118 0 191 253l44 152q-29 68 -98 68q-67 0 -125 -68t-83 -169q-14 -58 -14 -114t21.5 -89t63.5 -33z" />
    <glyph glyph-name="r" unicode="r" horiz-adv-x="434" 
d="M110 0q-10 1 -21 1l-22 -1l89 297q27 89 27 120q0 46 -41 46q-31 0 -56 -35.5t-54 -111.5l-16 5q34 86 62.5 124t74.5 38q31 0 49.5 -17.5t18.5 -50.5q0 -9 -1 -19t-4.5 -24.5t-6.5 -25t-10 -32l-11 -34.5t-14 -43l-16 -47q38 106 87 189q65 109 133 109q29 0 47 -15
t18 -39q0 -20 -12 -32.5t-32 -12.5q-17 0 -27 9.5t-10 24.5q0 4 1 10.5t1 8.5q0 11 -14 11q-40 0 -92 -82q-72 -114 -114 -256z" />
    <glyph glyph-name="s" unicode="s" horiz-adv-x="396" 
d="M323 144q0 -67 -49 -113t-117 -46q-62 0 -100.5 27.5t-38.5 68.5q0 22 13 36.5t34 14.5q16 0 26.5 -10.5t10.5 -25.5q0 -18 -13.5 -30.5t-13.5 -19.5q0 -19 20.5 -32.5t61.5 -13.5q59 0 95 36.5t36 91.5q0 21 -7 37t-23 29t-27 19.5t-35 18.5q-29 15 -47.5 27.5t-34 37.5
t-15.5 56q0 58 44.5 96.5t109.5 38.5q51 0 86 -23t35 -62q0 -23 -13 -36.5t-32 -13.5q-16 0 -27 10.5t-11 26.5q0 17 13.5 29.5t13.5 19.5q0 14 -16.5 24t-49.5 10q-52 0 -85 -31.5t-33 -76.5q0 -26 14.5 -46t29.5 -29.5t45 -23.5q47 -23 73.5 -50t26.5 -72z" />
    <glyph glyph-name="t" unicode="t" horiz-adv-x="366" 
d="M144 -10q-38 0 -61 19.5t-23 57.5q0 23 10 56l94 321l-95 9l4 14l100 9l42 144h43l-43 -147h151l-5 -20l-154 -6l-99 -340q-7 -26 -7 -44q0 -52 52 -52q68 0 131 146l15 -5q-39 -85 -72 -123.5t-83 -38.5z" />
    <glyph glyph-name="u" unicode="u" horiz-adv-x="565" 
d="M414 -10q-31 0 -50 17.5t-19 50.5q0 34 66 232q-104 -305 -236 -305q-45 0 -70 24.5t-25 63.5q0 40 24 104l58 152q22 57 22 87q0 47 -42 47q-31 0 -56 -35.5t-54 -111.5l-16 5q35 88 62.5 125t72.5 37q32 0 52.5 -18t20.5 -51q0 -36 -24 -102l-58 -154q-21 -54 -21 -86
q0 -66 63 -66q66 0 127 95.5t103 233.5l42 138q10 -1 21 -1l22 1l-89 -297q-28 -92 -28 -120q0 -46 42 -46q31 0 56 35t55 112l16 -5q-37 -90 -64 -126t-73 -36z" />
    <glyph glyph-name="v" unicode="v" horiz-adv-x="446" 
d="M337 121q-40 -60 -88 -95.5t-92 -35.5q-45 0 -71.5 29t-26.5 79q0 58 30.5 123.5t62.5 107.5t83 99l-1 1q-21 -21 -50 -21q-22 0 -52.5 12.5t-43.5 12.5q-33 0 -33 -37q0 -19 6 -43l-10 -3q-12 33 -12 64q0 29 15 49t42 20t61.5 -26.5t50.5 -26.5q17 0 27.5 14t10.5 40
q20 5 20 -13q0 -20 -26 -51q-134 -162 -134 -307q0 -45 18 -69.5t50 -24.5q37 0 77 30t73 80q75 110 75 246q0 33 -20 33q-3 0 -8.5 -0.5t-9.5 -0.5q-16 0 -27.5 10t-11.5 27q0 19 12 31t31 12q59 0 59 -93q0 -145 -87 -273z" />
    <glyph glyph-name="w" unicode="w" horiz-adv-x="665" 
d="M561 121q-38 -61 -85 -96t-94 -35q-71 0 -98 77q-38 -37 -69 -57t-64 -20q-40 0 -67.5 29t-27.5 79q0 84 49.5 164t129.5 166l-1 1q-21 -21 -48 -21q-22 0 -52.5 12.5t-43.5 12.5q-33 0 -33 -37q0 -19 6 -43l-10 -3q-12 33 -12 64q0 29 15 49t42 20t61.5 -26.5
t50.5 -26.5q17 0 28 14.5t11 39.5q20 5 20 -13q0 -16 -29 -51q-137 -163 -137 -307q0 -47 19 -70.5t45 -23.5q52 0 113 61q-8 32 -8 65q0 66 22 144t61 135.5t81 57.5q46 0 46 -59q0 -55 -49.5 -152t-113.5 -169q19 -83 80 -83q80 0 150 112q69 113 69 244q0 33 -20 33
q-3 0 -8.5 -0.5t-9.5 -0.5q-16 0 -27.5 10t-11.5 27q0 19 12 31t31 12q59 0 59 -93q0 -142 -82 -273zM316 118l8 10q56 68 94 148t38 135q0 49 -35 49q-47 0 -78.5 -90t-31.5 -199q0 -32 5 -53z" />
    <glyph glyph-name="x" unicode="x" 
d="M248 294q-4 -33 -11 -66.5t-22 -79t-33.5 -79t-48 -57.5t-64.5 -24q-36 0 -55 19.5t-19 46.5q0 24 13.5 39t33.5 15q16 0 27 -10t11 -25q0 -18 -12.5 -31.5t-12.5 -18.5q0 -17 24 -17q39 0 74.5 48t56 112t28.5 129q5 43 5 73q0 51 -12.5 73t-43.5 22q-34 0 -66 -38.5
t-56 -108.5l-15 5q29 82 64.5 122t83.5 40q81 0 81 -106q0 -46 -20 -158q8 45 19.5 85.5t31 84.5t50 70t67.5 26q36 0 55.5 -17t19.5 -42q0 -24 -13.5 -38.5t-33.5 -14.5q-16 0 -27 10t-11 25q0 14 10.5 27t10.5 19q0 13 -19 13q-30 0 -57.5 -27t-47 -70.5t-33 -92.5
t-19.5 -97q-5 -45 -5 -75q0 -52 13.5 -73t40.5 -21q63 0 126 146l15 -5q-37 -82 -72 -122t-80 -40q-79 0 -79 107q0 26 4 53.5t11 68t12 75.5z" />
    <glyph glyph-name="y" unicode="y" horiz-adv-x="492" 
d="M123 -244q-56 0 -89 25t-33 65q0 23 12.5 38.5t33.5 15.5q18 0 28.5 -10t10.5 -26q0 -18 -15.5 -31.5t-15.5 -23.5q0 -16 19 -27t48 -11q127 0 174 168l11 39q14 50 31.5 103.5l41.5 123l35 103.5q-106 -323 -241 -323q-44 0 -69 24.5t-25 63.5q0 40 24 104l58 152
q22 57 22 87q0 47 -42 47q-31 0 -56 -35.5t-54 -111.5l-16 5q35 88 62.5 125t72.5 37q32 0 52.5 -18t20.5 -51q0 -36 -24 -102l-58 -154q-21 -54 -21 -86q0 -66 63 -66q66 0 127 96t100 233l40 138q12 -1 22 -1l21 1l-151 -518q-30 -103 -88.5 -151t-131.5 -48z" />
    <glyph glyph-name="z" unicode="z" horiz-adv-x="449" 
d="M385 95q0 -45 -25.5 -75.5t-71.5 -30.5q-32 0 -68 23.5l-69.5 46.5t-59.5 23q-43 0 -43 -44q0 -20 10 -43q-8 -5 -22 -5q-33 0 -33 38q0 24 21 52q13 18 32.5 38t45.5 41l44 35.5t46.5 35.5t33.5 25q13 10 60 42.5t74.5 55.5t48.5 51l-1 1q-24 -23 -64 -23q-30 0 -95 28
t-85 28q-57 0 -57 -69q0 -17 6 -47l-10 -4q-12 36 -12 71q0 41 21 68t59 27q35 0 98.5 -44t91.5 -44q34 0 34 40q0 20 -10 43q10 5 23 5t23 -10t10 -28q0 -24 -21 -52q-39 -54 -176 -153l-55.5 -40l-64 -46.5t-47 -39.5t-42.5 -45l1 -1q29 27 67 27t101 -30.5t90 -30.5
q75 0 75 72q0 37 -14 68l11 4q19 -40 19 -84z" />
    <glyph glyph-name="braceleft" unicode="{" horiz-adv-x="415" 
d="M282 -180h-87q-53 0 -81.5 23.5t-28.5 67.5q0 23 7 48q8 28 34 100t31 90q7 30 7 45q0 42 -32.5 61t-101.5 21l8 33q85 2 131 31.5t64 95.5q6 21 18 92.5t19 97.5q18 66 65 102.5t114 36.5h65l-3 -15l-66 -4q-101 -6 -131 -116q-6 -23 -22.5 -101l-18.5 -87
q-20 -72 -70 -105.5t-126 -40.5l-1 -7q124 -12 124 -97q0 -22 -8 -51q-3 -10 -27.5 -87t-30.5 -99l-7 -47q0 -65 74 -69l84 -4z" />
    <glyph glyph-name="bar" unicode="|" horiz-adv-x="264" 
d="M37 -100l213 829h34l-213 -829h-34z" />
    <glyph glyph-name="braceright" unicode="}" horiz-adv-x="415" 
d="M165 765h87q53 0 81.5 -23.5t28.5 -67.5q0 -23 -7 -48q-8 -28 -34 -100t-31 -90q-7 -30 -7 -45q0 -42 32.5 -61t101.5 -21l-8 -33q-85 -2 -131 -31.5t-64 -95.5q-6 -21 -18 -92.5t-19 -97.5q-18 -66 -65 -102.5t-114 -36.5h-65l3 15l66 4q101 6 131 116q6 23 22.5 101
l18.5 87q20 72 70 105.5t126 40.5l1 7q-124 12 -124 97q0 22 8 51q3 10 27.5 87t30.5 99l7 47q0 65 -74 69l-84 4z" />
    <glyph glyph-name="asciitilde" unicode="~" horiz-adv-x="514" 
d="M79 183h-23q11 63 37.5 91.5t73.5 28.5q40 0 103 -40t98 -40q57 0 75 65h22q-22 -100 -110 -100q-40 0 -101.5 40t-97.5 40q-31 0 -49 -19.5t-28 -65.5z" />
    <glyph glyph-name="exclamdown" unicode="&#xa1;" horiz-adv-x="280" 
d="M147 431q0 21 14 34t34 13q18 0 32.5 -13.5t14.5 -33.5q0 -21 -14 -34t-33 -13q-20 0 -34 13t-14 34zM158 289h12q-63 -229 -74 -344q-2 -21 -3.5 -44.5t-3 -39.5t-5.5 -32q-12 -49 -50 -49q-34 0 -34 34q0 12 3 22q6 25 19.5 55l29.5 63.5t45 121.5t61 213z" />
    <glyph glyph-name="cent" unicode="&#xa2;" 
d="M157 57l204 415l-8 1q-65 0 -121 -50t-85.5 -121t-29.5 -139q0 -66 40 -106zM422 95q-94 -109 -200 -109q-39 0 -71 17l-76 -154h-20l81 164q-64 46 -64 139q0 126 85 231t196 105l16 -1l59 121h20l-61 -124q38 -8 62 -33.5t24 -58.5q0 -25 -13 -39.5t-33 -14.5
q-17 0 -28 10t-11 26q0 19 17.5 33t17.5 22q0 13 -12 24.5t-31 15.5l-209 -425q28 -20 64 -20q53 0 94 18.5t86 59.5z" />
    <glyph glyph-name="sterling" unicode="&#xa3;" horiz-adv-x="578" 
d="M96 0q73 0 119 75q-69 54 -112 54q-35 0 -56.5 -19t-21.5 -51q0 -27 20 -43t51 -16zM488 152q15 -77 -12 -120.5t-90 -43.5q-29 0 -60 13.5t-48.5 26t-49.5 37.5q-54 -80 -132 -80q-38 0 -63.5 19.5t-25.5 54.5q0 40 28.5 66t78.5 26q44 0 117 -45q10 21 20 58
q11 43 17 151l-141 6l5 15l137 8q4 64 11 100q21 102 76.5 146.5t122.5 44.5q48 0 80.5 -23t32.5 -60q0 -22 -11.5 -34t-30.5 -12q-16 0 -27.5 9.5t-11.5 23.5q0 18 14 29t14 19q0 33 -62 33q-108 0 -153 -190q-11 -51 -16 -86h172l-6 -20l-171 -6q-16 -100 -28 -145
q-12 -44 -29 -76l53 -33.5t46 -21.5t56 -12q49 0 68 29t10 93h9z" />
    <glyph glyph-name="currency" unicode="&#xa4;" horiz-adv-x="535" 
d="M496 21l-89 89q-48 -46 -115 -46q-68 0 -115 47l-89 -90l-15 15l91 89q-39 47 -39 111t39 111l-91 89l15 15l89 -89q48 46 115 46q68 0 115 -47l89 90l15 -15l-91 -89q39 -47 39 -111t-39 -111l91 -89zM158 236q0 -60 38 -101.5t96 -41.5t96 41.5t38 101.5t-38 101.5
t-96 41.5t-96 -41.5t-38 -101.5z" />
    <glyph glyph-name="yen" unicode="&#xa5;" horiz-adv-x="648" 
d="M436 13l-3 -13q-27 0 -81.5 0.5t-81.5 0.5q-28 0 -82 -0.5t-82 -0.5l3 13l72 7q41 4 59.5 21t28.5 51l15 56h-197l6 24h197l19 73h-201l6 24h191l-94 247q-20 51 -33 65.5t-49 21.5l-24 5l3 13q44 -1 124 -1q91 0 135 1l-3 -13l-58 -7q-44 -5 -55.5 -20.5t1.5 -50.5
l95 -261l185 193q40 42 53.5 63.5t13.5 38.5q0 28 -64 38l-37 6l3 13q44 -1 133 -1t133 1l-3 -13l-21 -4q-40 -8 -73.5 -35t-123.5 -119l-175 -181h175l-6 -24h-187l-19 -73h191l-6 -24h-191l-15 -56q-9 -33 3 -50.5t52 -21.5z" />
    <glyph glyph-name="brokenbar" unicode="&#xa6;" horiz-adv-x="264" 
d="M162 385l88 344h34l-88 -344h-34zM37 -100l89 345h34l-89 -345h-34z" />
    <glyph glyph-name="section" unicode="&#xa7;" horiz-adv-x="519" 
d="M331 79l-5 11q41 18 65 50t24 72q0 34 -21 68.5t-50.5 63.5l-59.5 58t-51 64.5t-21 70.5q0 69 52.5 113t129.5 44q66 0 108.5 -28.5t42.5 -82.5q0 -29 -14 -48t-37 -19q-35 0 -35 32q0 23 23 36.5t23 29.5q0 28 -29.5 46.5t-80.5 18.5q-68 0 -107.5 -36.5t-39.5 -91.5
q0 -34 21 -67.5t50.5 -62l59 -57t50.5 -64t21 -71.5q0 -50 -33 -90t-86 -60zM335 -38q0 -69 -52.5 -113t-129.5 -44q-66 0 -108.5 28.5t-42.5 82.5q0 29 14 48t37 19q35 0 35 -32q0 -23 -23 -36.5t-23 -29.5q0 -28 29.5 -46.5t80.5 -18.5q68 0 107.5 36.5t39.5 91.5
q0 34 -21 67.5t-50.5 62l-59 57t-50.5 64t-21 71.5q0 50 33 90t86 60l5 -11q-41 -18 -65 -50t-24 -72q0 -34 21 -68.5t51 -63.5l59.5 -58t50.5 -64t21 -71z" />
    <glyph glyph-name="dieresis" unicode="&#xa8;" 
d="M515 660q0 -19 -12.5 -31.5t-30.5 -12.5t-30.5 12t-12.5 31t12.5 31.5t30.5 12.5t30.5 -12t12.5 -31zM331 660q0 -19 -12.5 -31.5t-30.5 -12.5t-30.5 12t-12.5 31t12.5 31.5t30.5 12.5t30.5 -12t12.5 -31z" />
    <glyph glyph-name="copyright" unicode="&#xa9;" horiz-adv-x="853" 
d="M771 260q0 -145 -101.5 -245t-245.5 -100t-245.5 100t-101.5 245t101.5 245t245.5 100t245.5 -100t101.5 -245zM102 260q0 -137 93 -230t229 -93t229 93t93 230t-93 230t-229 93t-229 -93t-93 -230zM560 63l-13 54q-46 -56 -123 -56q-87 0 -141 56.5t-54 142.5t54.5 145
t139.5 59q81 0 125 -56l12 53h14v-154h-17l-15 44q-32 93 -117 93q-69 0 -106 -51.5t-37 -131.5t37 -130.5t106 -50.5q84 0 116 90l16 45h17v-152h-14z" />
    <glyph glyph-name="ordfeminine" unicode="&#xaa;" horiz-adv-x="379" 
d="M199 356q72 0 130 173l34 103q-14 43 -56 43q-44 0 -82 -42t-57.5 -96.5t-19.5 -99.5q0 -81 51 -81zM349 340q-23 0 -37 13.5t-14 36.5q0 16 8 45q-48 -97 -116 -97q-40 0 -62 27.5t-22 76.5q0 89 59 168.5t140 79.5q55 0 80 -40l31 41h11l-34 -89l-52 -157
q-10 -30 -10 -53q0 -32 27 -32q42 0 74 95l15 -4q-21 -58 -41.5 -84.5t-56.5 -26.5zM65 224l7 24h286l-7 -24h-286z" />
    <glyph glyph-name="guillemotleft" unicode="&#xab;" horiz-adv-x="456" 
d="M325 47l-133 182l3 13l209 183h15l-183 -192l103 -186h-14zM185 47l-133 182l3 13l209 183h15l-183 -192l103 -186h-14z" />
    <glyph glyph-name="logicalnot" unicode="&#xac;" horiz-adv-x="550" 
d="M520 325l-52 -193h-28l44 165h-409l7 28h438z" />
    <glyph glyph-name="registered" unicode="&#xae;" horiz-adv-x="853" 
d="M771 260q0 -145 -101.5 -245t-245.5 -100t-245.5 100t-101.5 245t101.5 245t245.5 100t245.5 -100t101.5 -245zM102 260q0 -137 93 -230t229 -93t229 93t93 230t-93 230t-229 93t-229 -93t-93 -230zM409 262q53 0 80 23.5t27 62.5q0 44 -25.5 67t-87.5 23q-17 0 -45 -2
v-172q24 -2 51 -2zM430 80v-10h-187v10l58 11q12 1 12 13v316q0 11 -12 14l-58 10v10h20q18 0 67.5 1t72.5 1q80 0 123 -27.5t43 -80.5q0 -38 -28.5 -63.5t-70.5 -30.5q10 -13 18 -31l52 -112q8 -18 24 -22l37 -9v-10h-93l-74 176q-9 -1 -26 -1q-14 0 -50 2v-143
q0 -12 11 -13z" />
    <glyph glyph-name="macron" unicode="&#xaf;" 
d="M248 647l5 26q54 -3 133 -3q80 0 133 3l-5 -26q-52 3 -132 3t-134 -3z" />
    <glyph glyph-name="degree" unicode="&#xb0;" horiz-adv-x="398" 
d="M430 583q0 -52 -33.5 -84t-84.5 -32t-84.5 32t-33.5 84t33.5 84t84.5 32t84.5 -32t33.5 -84zM406 583q0 42 -27 69t-67 27t-67 -27t-27 -69t27 -69t67 -27t67 27t27 69z" />
    <glyph glyph-name="plusminus" unicode="&#xb1;" horiz-adv-x="550" 
d="M436 0h-438l7 28h201l52 195h-205l7 28h205l54 203h28l-54 -203h205l-7 -28h-205l-52 -195h209z" />
    <glyph glyph-name="acute" unicode="&#xb4;" 
d="M268 578h-6q91 93 139 172h72v-3q-82 -91 -205 -169z" />
    <glyph glyph-name="mu" unicode="&#xb5;" horiz-adv-x="606" 
d="M48 -202l-8 -28h-43l167 623q10 34 1 48t-45 18l-41 5l4 13h150l-24 -78l-69 -257q-18 -65 0 -100.5t64 -35.5q66 0 127 95.5t103 233.5l42 138q10 -1 21 -1l22 1l-89 -297q-28 -92 -28 -120q0 -46 42 -46q31 0 56 35t55 112l16 -5q-37 -90 -64 -126t-73 -36
q-31 0 -50 17.5t-19 50.5q0 12 3 28t11 42l15.5 50l22.5 69.5l27 82.5q-109 -345 -249 -345q-77 0 -90 64q-5 -21 -14.5 -68.5t-20 -91.5z" />
    <glyph glyph-name="paragraph" unicode="&#xb6;" horiz-adv-x="644" 
d="M261 -180h-23l123 460q-43 -13 -79 -13q-77 0 -121 42t-44 117q0 116 83.5 185.5t214.5 69.5q12 0 42 -1t34 -1zM358 -180l229 859h154l-3 -13l-66 -7q-41 -4 -58.5 -18t-24.5 -43l-208 -778h-23z" />
    <glyph glyph-name="periodcentered" unicode="&#xb7;" horiz-adv-x="284" 
d="M190 236q0 -21 -14 -34t-34 -13q-18 0 -32.5 13.5t-14.5 33.5q0 21 14 34t33 13q20 0 34 -13t14 -34z" />
    <glyph glyph-name="cedilla" unicode="&#xb8;" 
d="M126 -240q-49 0 -82 23l12 12q27 -16 63 -16q41 0 68.5 22t27.5 66q0 43 -44 43q-19 0 -43 -8l-8 7l51 89h16l-37 -77q19 4 43 4q29 0 48.5 -15.5t19.5 -44.5q0 -48 -42.5 -76.5t-92.5 -28.5z" />
    <glyph glyph-name="ordmasculine" unicode="&#xba;" horiz-adv-x="335" 
d="M410 578q0 -94 -56 -168t-134 -74q-50 0 -79.5 30.5t-29.5 81.5q0 94 56 168t134 74q50 0 79.5 -30.5t29.5 -81.5zM220 351q42 0 77.5 40t53.5 94t18 104q0 86 -68 86q-42 0 -77.5 -40t-53.5 -94t-18 -104q0 -86 68 -86zM48 224l7 24h269l-7 -24h-269z" />
    <glyph glyph-name="guillemotright" unicode="&#xbb;" horiz-adv-x="456" 
d="M265 425l133 -182l-3 -13l-209 -183h-15l183 192l-103 186h14zM125 425l133 -182l-3 -13l-209 -183h-15l183 192l-103 186h14z" />
    <glyph glyph-name="onequarter" unicode="&#xbc;" horiz-adv-x="915" 
d="M166 -13l-24 23l343 335l321 342l24 -23l-336 -330zM141 324l4 15l68 8q10 1 13 13l74 253q5 16 -1 23.5t-28 8.5l-43 3l3 13l57 5q42 3 60 18h15l-21 -63l-76 -261q-3 -12 7 -13l68 -8l-3 -15h-197zM763 0h-239v22q133 94 169 123q95 76 95 143q0 63 -73 63
q-31 0 -57.5 -16t-34.5 -38l8 3q24 0 24 -23q0 -11 -7.5 -18.5t-19.5 -7.5q-14 0 -22 8.5t-8 22.5q0 32 34.5 58t84.5 26q53 0 84 -23t31 -61q0 -40 -28.5 -72t-92.5 -77l-148 -97h161q23 0 36 20l20 33h14z" />
    <glyph glyph-name="onehalf" unicode="&#xbd;" horiz-adv-x="905" 
d="M166 -13l-24 23l343 335l321 342l24 -23l-336 -330zM338 323h-197l4 15l68 8q10 1 13 13l74 253q5 16 -1 23.5t-28 8.5l-43 3l3 13l57 5q42 3 60 18h15l-21 -63l-76 -261q-3 -12 7 -13l68 -8zM666 125l38 134l21 67l-200 -197zM729 9l-2 -9h-153l2 10l50 8q9 1 12 11
l24 82h-163v15l233 230h37l-65 -232h27q24 0 38 23l18 33h15l-26 -69h-76l-23 -81q-3 -9 7 -12z" />
    <glyph glyph-name="threequarters" unicode="&#xbe;" horiz-adv-x="925" 
d="M186 -13l-24 23l343 335l321 342l24 -23l-336 -330zM233 314q-48 0 -74.5 16.5t-26.5 40.5q0 14 8.5 23t21.5 9q12 0 19.5 -7t7.5 -18t-7 -18.5t-17 -7.5q18 -23 65 -23q64 0 101 39.5t37 90.5q0 54 -61 54q-26 0 -48.5 -13t-28.5 -13q-18 0 -18 23q23 10 77 15
q97 38 97 98q0 22 -17.5 36.5t-50.5 14.5q-30 0 -54.5 -12t-33.5 -30l2 1q10 0 17 -7t7 -18q0 -10 -8 -17t-20 -7q-13 0 -20.5 8.5t-7.5 21.5q0 29 34 52t87 23q51 0 79.5 -18.5t28.5 -49.5q0 -20 -11 -35.5t-28.5 -26t-40 -20t-43.5 -16.5q-7 -2 -10 -3q13 4 31 4
q34 0 59.5 -19t25.5 -54q0 -57 -52 -97t-127 -40zM686 125l38 134l21 67l-200 -197zM749 9l-2 -9h-153l2 10l50 8q9 1 12 11l24 82h-163v15l233 230h37l-65 -232h27q24 0 38 23l18 33h15l-26 -69h-76l-23 -81q-3 -9 7 -12z" />
    <glyph glyph-name="questiondown" unicode="&#xbf;" horiz-adv-x="489" 
d="M255 431q0 21 14 34t33 13t33.5 -13t14.5 -35q0 -21 -14 -33.5t-33 -12.5q-20 0 -34 13t-14 34zM156 208q44 90 112 90q33 0 56 -19.5t23 -51.5q0 -45 -34.5 -76.5t-83.5 -51l-98 -39.5t-83.5 -55.5t-34.5 -85.5q0 -60 41.5 -92.5t111.5 -32.5q84 0 136 45.5t52 104.5
q0 33 -16.5 51t-44.5 18q-57 0 -91 -91l-14 1q39 117 120 117q40 0 64 -24.5t24 -65.5q0 -70 -65.5 -120.5t-161.5 -50.5q-84 0 -138 41t-54 112q0 46 25 81t62.5 55t81 39l81 34t62.5 39t25 54q0 23 -14.5 35t-35.5 12q-56 0 -98 -79z" />
    <glyph glyph-name="Agrave" unicode="&#xc0;" horiz-adv-x="631" 
d="M492 744h-6q-83 55 -132 123v2h62q29 -64 76 -125zM593 0q-22 0 -66.5 0.5t-66.5 0.5t-66.5 -0.5t-66.5 -0.5l3 13l55 6q41 5 57 21.5t13 53.5l-10 131h-275l-33 -55q-36 -59 -43.5 -90t7 -44t56.5 -19l26 -4l-3 -13q-21 0 -63.5 0.5t-63.5 0.5t-64 -0.5t-64 -0.5l3 13
l21 4q46 9 76.5 37.5t90.5 126.5l264 434l37 68h36l47 -579q4 -45 16.5 -61.5t47.5 -23.5l32 -6zM444 246l-29 390l-233 -390h262z" />
    <glyph glyph-name="Aacute" unicode="&#xc1;" horiz-adv-x="631" 
d="M377 744h-6q85 65 137 125h74v-2q-84 -66 -205 -123zM593 0q-22 0 -66.5 0.5t-66.5 0.5t-66.5 -0.5t-66.5 -0.5l3 13l55 6q41 5 57 21.5t13 53.5l-10 131h-275l-33 -55q-36 -59 -43.5 -90t7 -44t56.5 -19l26 -4l-3 -13q-21 0 -63.5 0.5t-63.5 0.5t-64 -0.5t-64 -0.5l3 13
l21 4q46 9 76.5 37.5t90.5 126.5l264 434l37 68h36l47 -579q4 -45 16.5 -61.5t47.5 -23.5l32 -6zM444 246l-29 390l-233 -390h262z" />
    <glyph glyph-name="Acircumflex" unicode="&#xc2;" horiz-adv-x="631" 
d="M454 835l-161 -91h-5l158 125h51l80 -125h-9zM593 0q-22 0 -66.5 0.5t-66.5 0.5t-66.5 -0.5t-66.5 -0.5l3 13l55 6q41 5 57 21.5t13 53.5l-10 131h-275l-33 -55q-36 -59 -43.5 -90t7 -44t56.5 -19l26 -4l-3 -13q-21 0 -63.5 0.5t-63.5 0.5t-64 -0.5t-64 -0.5l3 13l21 4
q46 9 76.5 37.5t90.5 126.5l264 434l37 68h36l47 -579q4 -45 16.5 -61.5t47.5 -23.5l32 -6zM182 246h262l-29 390z" />
    <glyph glyph-name="Atilde" unicode="&#xc3;" horiz-adv-x="631" 
d="M331 747l-4 -1q-3 13 -3 26q0 31 15 56t52 25q27 0 72 -33t66 -33t33 10.5t18 41.5h4q-13 -89 -73 -89q-27 0 -72.5 33t-64.5 33q-43 0 -43 -59v-10zM593 0q-22 0 -66.5 0.5t-66.5 0.5t-66.5 -0.5t-66.5 -0.5l3 13l55 6q41 5 57 21.5t13 53.5l-10 131h-275l-33 -55
q-36 -59 -43.5 -90t7 -44t56.5 -19l26 -4l-3 -13q-21 0 -63.5 0.5t-63.5 0.5t-64 -0.5t-64 -0.5l3 13l21 4q46 9 76.5 37.5t90.5 126.5l264 434l37 68h36l47 -579q4 -45 16.5 -61.5t47.5 -23.5l32 -6zM182 246h262l-29 390z" />
    <glyph glyph-name="Adieresis" unicode="&#xc4;" horiz-adv-x="631" 
d="M580 787q0 -19 -12.5 -31.5t-30.5 -12.5t-30.5 12t-12.5 31t12.5 31.5t30.5 12.5t30.5 -12t12.5 -31zM396 787q0 -19 -12.5 -31.5t-30.5 -12.5t-30.5 12t-12.5 31t12.5 31.5t30.5 12.5t30.5 -12t12.5 -31zM593 0q-22 0 -66.5 0.5t-66.5 0.5t-66.5 -0.5t-66.5 -0.5l3 13
l55 6q41 5 57 21.5t13 53.5l-10 131h-275l-33 -55q-36 -59 -43.5 -90t7 -44t56.5 -19l26 -4l-3 -13q-21 0 -63.5 0.5t-63.5 0.5t-64 -0.5t-64 -0.5l3 13l21 4q46 9 76.5 37.5t90.5 126.5l264 434l37 68h36l47 -579q4 -45 16.5 -61.5t47.5 -23.5l32 -6zM182 246h262l-29 390z
" />
    <glyph glyph-name="Aring" unicode="&#xc5;" horiz-adv-x="631" 
d="M553 825q0 -40 -27.5 -67t-71.5 -28q-43 0 -70.5 27.5t-27.5 67.5t27.5 67t70.5 27q44 0 71.5 -27t27.5 -67zM384 825q0 -34 18.5 -57.5t51.5 -23.5q34 0 52.5 23.5t18.5 57.5q0 33 -18.5 56.5t-52.5 23.5q-33 0 -51.5 -23.5t-18.5 -56.5zM593 0q-22 0 -66.5 0.5
t-66.5 0.5t-66.5 -0.5t-66.5 -0.5l3 13l55 6q41 5 57 21.5t13 53.5l-10 131h-275l-33 -55q-36 -59 -43.5 -90t7 -44t56.5 -19l26 -4l-3 -13q-21 0 -63.5 0.5t-63.5 0.5t-64 -0.5t-64 -0.5l3 13l21 4q46 9 76.5 37.5t90.5 126.5l264 434l37 68h36l47 -579q4 -45 16.5 -61.5
t47.5 -23.5l32 -6zM444 246l-29 390l-233 -390h262z" />
    <glyph glyph-name="AE" unicode="&#xc6;" horiz-adv-x="920" 
d="M555 657l-312 -378h212zM870 237l-75 -237h-541l3 13l65 7q38 4 55 18t25 43l47 177h-224l-84 -102q-63 -79 -59 -104t70 -35l26 -4l-3 -13q-23 0 -68.5 0.5t-68.5 0.5t-69 -0.5t-69 -0.5l3 13l24 4q48 8 85.5 36t111.5 116l331 395q46 55 46 71q0 11 -10 16t-37 8l-61 7
l3 13h543l-40 -217h-15q3 53 4 80.5t-1.5 53.5t-7.5 36t-18 18.5t-28 9.5t-43 1h-189l-81 -302h104q49 0 75.5 29.5t64.5 119.5h14l-43 -161l-42 -161h-13q12 89 2.5 122t-56.5 33h-110l-68 -253q-10 -37 2 -53.5t50 -16.5h133q84 0 123 38.5t99 180.5h15z" />
    <glyph glyph-name="Ccedilla" unicode="&#xc7;" horiz-adv-x="660" 
d="M208 -240q-49 0 -82 23l12 12q27 -16 63 -16q41 0 68.5 22t27.5 66q0 43 -44 43q-19 0 -43 -8l-8 7l46 81q-86 15 -135.5 81t-49.5 170q0 121 50 225t139 166t196 62q132 0 183 -101l53 96h10l-73 -277h-18q6 54 1.5 102.5t-18.5 85t-49 58t-89 21.5q-77 0 -141.5 -43
t-104.5 -110t-62 -144.5t-22 -151.5q0 -104 46.5 -167t134.5 -63q168 0 271 254h20l-70 -265h-10l-3 82q-84 -86 -207 -86q-12 0 -36 2l-32 -66q19 4 43 4q29 0 48.5 -15.5t19.5 -44.5q0 -48 -42.5 -76.5t-92.5 -28.5z" />
    <glyph glyph-name="Egrave" unicode="&#xc8;" horiz-adv-x="625" 
d="M482 744h-6q-83 55 -132 123v2h62q29 -64 76 -125zM575 237l-75 -237h-540l3 13l65 7q38 4 55 18t25 43l138 517q8 29 -1 43t-47 18l-61 7l3 13h504l-40 -217h-15q3 53 4 80.5t-1.5 53.5t-7.5 36t-18 18.5t-28 9.5t-43 1h-188l-81 -302h106q50 0 76 29t62 120h14
l-43 -161l-42 -161h-13q8 59 7.5 93.5t-13.5 48t-46 13.5h-112l-68 -253q-10 -37 2 -53.5t50 -16.5h132q84 0 123 38.5t99 180.5h15z" />
    <glyph glyph-name="Eacute" unicode="&#xc9;" horiz-adv-x="625" 
d="M409 744h-6q85 65 137 125h74v-2q-84 -66 -205 -123zM575 237l-75 -237h-540l3 13l65 7q38 4 55 18t25 43l138 517q8 29 -1 43t-47 18l-61 7l3 13h504l-40 -217h-15q3 53 4 80.5t-1.5 53.5t-7.5 36t-18 18.5t-28 9.5t-43 1h-188l-81 -302h106q50 0 76 29t62 120h14
l-43 -161l-42 -161h-13q8 59 7.5 93.5t-13.5 48t-46 13.5h-112l-68 -253q-10 -37 2 -53.5t50 -16.5h132q84 0 123 38.5t99 180.5h15z" />
    <glyph glyph-name="Ecircumflex" unicode="&#xca;" horiz-adv-x="625" 
d="M450 835l-161 -91h-5l158 125h51l80 -125h-9zM575 237l-75 -237h-540l3 13l65 7q38 4 55 18t25 43l138 517q8 29 -1 43t-47 18l-61 7l3 13h504l-40 -217h-15q3 53 4 80.5t-1.5 53.5t-7.5 36t-18 18.5t-28 9.5t-43 1h-188l-81 -302h106q50 0 76 29t62 120h14l-43 -161
l-42 -161h-13q8 59 7.5 93.5t-13.5 48t-46 13.5h-112l-68 -253q-10 -37 2 -53.5t50 -16.5h132q84 0 123 38.5t99 180.5h15z" />
    <glyph glyph-name="Edieresis" unicode="&#xcb;" horiz-adv-x="625" 
d="M391 787q0 -19 -12.5 -31.5t-30.5 -12.5t-30.5 12t-12.5 31t12.5 31.5t30.5 12.5t30.5 -12t12.5 -31zM575 787q0 -19 -12.5 -31.5t-30.5 -12.5t-30.5 12t-12.5 31t12.5 31.5t30.5 12.5t30.5 -12t12.5 -31zM575 237l-75 -237h-540l3 13l65 7q38 4 55 18t25 43l138 517
q8 29 -1 43t-47 18l-61 7l3 13h504l-40 -217h-15q3 53 4 80.5t-1.5 53.5t-7.5 36t-18 18.5t-28 9.5t-43 1h-188l-81 -302h106q50 0 76 29t62 120h14l-43 -161l-42 -161h-13q8 59 7.5 93.5t-13.5 48t-46 13.5h-112l-68 -253q-10 -37 2 -53.5t50 -16.5h132q84 0 123 38.5
t99 180.5h15z" />
    <glyph glyph-name="Igrave" unicode="&#xcc;" horiz-adv-x="333" 
d="M354 744h-6q-83 55 -132 123v2h62q29 -64 76 -125zM261 13l-3 -13q-25 0 -74.5 0.5t-74.5 0.5t-74.5 -0.5t-74.5 -0.5l3 13l65 7q38 4 55 18t25 43l138 517q8 29 -1 43t-47 18l-61 7l3 13q50 -1 149 -1t149 1l-3 -13l-65 -7q-38 -4 -55 -18t-25 -43l-138 -517
q-8 -29 1 -43t47 -18z" />
    <glyph glyph-name="Iacute" unicode="&#xcd;" horiz-adv-x="333" 
d="M238 744h-6q85 65 137 125h74v-2q-84 -66 -205 -123zM261 13l-3 -13q-25 0 -74.5 0.5t-74.5 0.5t-74.5 -0.5t-74.5 -0.5l3 13l65 7q38 4 55 18t25 43l138 517q8 29 -1 43t-47 18l-61 7l3 13q50 -1 149 -1t149 1l-3 -13l-65 -7q-38 -4 -55 -18t-25 -43l-138 -517
q-8 -29 1 -43t47 -18z" />
    <glyph glyph-name="Icircumflex" unicode="&#xce;" horiz-adv-x="333" 
d="M434 744l-114 91l-161 -91h-5l158 125h51l80 -125h-9zM261 13l-3 -13q-25 0 -74.5 0.5t-74.5 0.5t-74.5 -0.5t-74.5 -0.5l3 13l65 7q38 4 55 18t25 43l138 517q8 29 -1 43t-47 18l-61 7l3 13q50 -1 149 -1t149 1l-3 -13l-65 -7q-38 -4 -55 -18t-25 -43l-138 -517
q-8 -29 1 -43t47 -18z" />
    <glyph glyph-name="Idieresis" unicode="&#xcf;" horiz-adv-x="333" 
d="M443 787q0 -19 -12.5 -31.5t-30.5 -12.5t-30.5 12t-12.5 31t12.5 31.5t30.5 12.5t30.5 -12t12.5 -31zM259 787q0 -19 -12.5 -31.5t-30.5 -12.5t-30.5 12t-12.5 31t12.5 31.5t30.5 12.5t30.5 -12t12.5 -31zM261 13l-3 -13q-25 0 -74.5 0.5t-74.5 0.5t-74.5 -0.5
t-74.5 -0.5l3 13l65 7q38 4 55 18t25 43l138 517q8 29 -1 43t-47 18l-61 7l3 13q50 -1 149 -1t149 1l-3 -13l-65 -7q-38 -4 -55 -18t-25 -43l-138 -517q-8 -29 1 -43t47 -18z" />
    <glyph glyph-name="Eth" unicode="&#xd0;" horiz-adv-x="670" 
d="M245 0h-285l3 13l65 7q38 4 55 18t25 43l66 248h-118l5 21h119l66 248q8 29 -1 43t-47 18l-61 7l3 13h280q120 0 190 -66.5t70 -176.5q0 -187 -119.5 -311.5t-315.5 -124.5zM205 18h42q115 0 203 61t132 159.5t44 215.5q0 93 -52 150t-154 57h-113l-83 -311h175l-5 -21
h-176l-64 -241q-10 -37 1.5 -53.5t49.5 -16.5z" />
    <glyph glyph-name="Ntilde" unicode="&#xd1;" horiz-adv-x="749" 
d="M406 747l-4 -1q-3 13 -3 26q0 31 15 56t52 25q26 0 72 -33t66 -33q21 0 33 10.5t18 41.5h4q-13 -89 -73 -89q-27 0 -72.5 33t-64.5 33q-43 0 -43 -59v-10zM559 -4h-34l-244 645l-133 -500q-20 -70 -9 -93.5t72 -30.5l33 -4l-3 -13q-23 0 -70 0.5t-70 0.5t-70.5 -0.5
t-70.5 -0.5l3 13l34 4q62 8 85 30.5t43 97.5l121 453q8 29 -1 43t-47 18l-61 7l3 13h172l238 -632l131 491q20 70 9 93.5t-72 30.5l-33 4l3 13q47 -1 141 -1q93 0 140 1l-3 -13l-34 -4q-62 -8 -85 -30.5t-43 -97.5z" />
    <glyph glyph-name="Ograve" unicode="&#xd2;" horiz-adv-x="667" 
d="M521 744h-6q-83 55 -132 123v2h62q29 -64 76 -125zM672 434q0 -184 -112 -316.5t-262 -132.5q-106 0 -170.5 70t-64.5 190q0 184 112 316.5t262 132.5q106 0 170.5 -70t64.5 -190zM300 0q77 0 140 49q82 63 130 175.5t48 225.5q0 109 -45.5 169t-137.5 60q-77 0 -140 -49
q-82 -63 -130 -175.5t-48 -225.5q0 -109 45.5 -169t137.5 -60z" />
    <glyph glyph-name="Oacute" unicode="&#xd3;" horiz-adv-x="667" 
d="M380 744h-6q85 65 137 125h74v-2q-84 -66 -205 -123zM672 434q0 -184 -112 -316.5t-262 -132.5q-106 0 -170.5 70t-64.5 190q0 184 112 316.5t262 132.5q106 0 170.5 -70t64.5 -190zM117 229q0 -109 45.5 -169t137.5 -60q77 0 140 49q82 63 130 175.5t48 225.5
q0 109 -45.5 169t-137.5 60q-77 0 -140 -49q-82 -63 -130 -175.5t-48 -225.5z" />
    <glyph glyph-name="Ocircumflex" unicode="&#xd4;" horiz-adv-x="667" 
d="M462 835l-161 -91h-5l158 125h51l80 -125h-9zM672 434q0 -184 -112 -316.5t-262 -132.5q-106 0 -170.5 70t-64.5 190q0 184 112 316.5t262 132.5q106 0 170.5 -70t64.5 -190zM117 229q0 -109 45.5 -169t137.5 -60q77 0 140 49q82 63 130 175.5t48 225.5q0 109 -45.5 169
t-137.5 60q-77 0 -140 -49q-82 -63 -130 -175.5t-48 -225.5z" />
    <glyph glyph-name="Otilde" unicode="&#xd5;" horiz-adv-x="667" 
d="M338 747l-4 -1q-3 13 -3 26q0 31 15 56t52 25q26 0 72 -33t66 -33q21 0 33 10.5t18 41.5h4q-13 -89 -73 -89q-27 0 -72.5 33t-64.5 33q-43 0 -43 -59v-10zM672 434q0 -184 -112 -316.5t-262 -132.5q-106 0 -170.5 70t-64.5 190q0 184 112 316.5t262 132.5
q106 0 170.5 -70t64.5 -190zM117 229q0 -109 45.5 -169t137.5 -60q77 0 140 49q82 63 130 175.5t48 225.5q0 109 -45.5 169t-137.5 60q-77 0 -140 -49q-82 -63 -130 -175.5t-48 -225.5z" />
    <glyph glyph-name="Odieresis" unicode="&#xd6;" horiz-adv-x="667" 
d="M600 787q0 -19 -12.5 -31.5t-30.5 -12.5t-30.5 12t-12.5 31t12.5 31.5t30.5 12.5t30.5 -12t12.5 -31zM416 787q0 -19 -12.5 -31.5t-30.5 -12.5t-30.5 12t-12.5 31t12.5 31.5t30.5 12.5t30.5 -12t12.5 -31zM672 434q0 -184 -112 -316.5t-262 -132.5q-106 0 -170.5 70
t-64.5 190q0 184 112 316.5t262 132.5q106 0 170.5 -70t64.5 -190zM117 229q0 -109 45.5 -169t137.5 -60q77 0 140 49q82 63 130 175.5t48 225.5q0 109 -45.5 169t-137.5 60q-77 0 -140 -49q-82 -63 -130 -175.5t-48 -225.5z" />
    <glyph glyph-name="multiply" unicode="&#xd7;" horiz-adv-x="550" 
d="M375 72l-104 144l-182 -144l-17 21l183 145l-104 144l24 18l104 -144l182 144l17 -21l-183 -145l104 -144z" />
    <glyph glyph-name="Oslash" unicode="&#xd8;" horiz-adv-x="667" 
d="M672 434q0 -184 -112 -316.5t-262 -132.5q-133 0 -195 104l-109 -99l-15 15l113 103q-29 58 -29 137q0 184 112 316.5t262 132.5q130 0 193 -99l103 94l15 -15l-108 -98q32 -59 32 -142zM295 630q-82 -63 -130 -175.5t-48 -225.5q0 -53 10 -92l472 432q-41 110 -164 110
q-77 0 -140 -49zM300 0q77 0 140 49q82 63 130 175.5t48 225.5q0 55 -12 97l-473 -431q40 -116 167 -116z" />
    <glyph glyph-name="Ugrave" unicode="&#xd9;" horiz-adv-x="756" 
d="M556 744h-6q-83 55 -132 123v2h62q29 -64 76 -125zM631 236q-36 -132 -106 -191t-187 -59q-44 0 -80 8t-66.5 26t-47.5 51.5t-17 80.5q0 42 17 108l90 338q8 29 -1 43t-47 18l-61 7l3 13q50 -1 149 -1t149 1l-3 -13l-65 -7q-38 -4 -55 -18t-25 -43l-91 -341
q-17 -62 -17 -103q0 -81 48 -111.5t130 -30.5q104 0 166.5 53.5t93.5 171.5l80 301q20 70 9 93.5t-72 30.5l-33 4l3 13q47 -1 141 -1q93 0 140 1l-3 -13l-34 -4q-62 -8 -85 -30.5t-43 -97.5z" />
    <glyph glyph-name="Uacute" unicode="&#xda;" horiz-adv-x="756" 
d="M465 744h-6q85 65 137 125h74v-2q-84 -66 -205 -123zM631 236q-36 -132 -106 -191t-187 -59q-44 0 -80 8t-66.5 26t-47.5 51.5t-17 80.5q0 42 17 108l90 338q8 29 -1 43t-47 18l-61 7l3 13q50 -1 149 -1t149 1l-3 -13l-65 -7q-38 -4 -55 -18t-25 -43l-91 -341
q-17 -62 -17 -103q0 -81 48 -111.5t130 -30.5q104 0 166.5 53.5t93.5 171.5l80 301q20 70 9 93.5t-72 30.5l-33 4l3 13q47 -1 141 -1q93 0 140 1l-3 -13l-34 -4q-62 -8 -85 -30.5t-43 -97.5z" />
    <glyph glyph-name="Ucircumflex" unicode="&#xdb;" horiz-adv-x="756" 
d="M528 835l-161 -91h-5l158 125h51l80 -125h-9zM631 236q-36 -132 -106 -191t-187 -59q-44 0 -80 8t-66.5 26t-47.5 51.5t-17 80.5q0 42 17 108l90 338q8 29 -1 43t-47 18l-61 7l3 13q50 -1 149 -1t149 1l-3 -13l-65 -7q-38 -4 -55 -18t-25 -43l-91 -341q-17 -62 -17 -103
q0 -81 48 -111.5t130 -30.5q104 0 166.5 53.5t93.5 171.5l80 301q20 70 9 93.5t-72 30.5l-33 4l3 13q47 -1 141 -1q93 0 140 1l-3 -13l-34 -4q-62 -8 -85 -30.5t-43 -97.5z" />
    <glyph glyph-name="Udieresis" unicode="&#xdc;" horiz-adv-x="756" 
d="M469 787q0 -19 -12.5 -31.5t-30.5 -12.5t-30.5 12t-12.5 31t12.5 31.5t30.5 12.5t30.5 -12t12.5 -31zM653 787q0 -19 -12.5 -31.5t-30.5 -12.5t-30.5 12t-12.5 31t12.5 31.5t30.5 12.5t30.5 -12t12.5 -31zM631 236q-36 -132 -106 -191t-187 -59q-44 0 -80 8t-66.5 26
t-47.5 51.5t-17 80.5q0 42 17 108l90 338q8 29 -1 43t-47 18l-61 7l3 13q50 -1 149 -1t149 1l-3 -13l-65 -7q-38 -4 -55 -18t-25 -43l-91 -341q-17 -62 -17 -103q0 -81 48 -111.5t130 -30.5q104 0 166.5 53.5t93.5 171.5l80 301q20 70 9 93.5t-72 30.5l-33 4l3 13
q47 -1 141 -1q93 0 140 1l-3 -13l-34 -4q-62 -8 -85 -30.5t-43 -97.5z" />
    <glyph glyph-name="Yacute" unicode="&#xdd;" horiz-adv-x="597" 
d="M360 743h-6q85 65 137 125h74v-2q-84 -66 -205 -123zM387 0q-27 0 -81.5 0.5t-81.5 0.5q-28 0 -82 -0.5t-82 -0.5l3 13l72 7q41 4 59.5 21t28.5 51l47 177l-90 302q-16 53 -30 68t-53 22l-27 5l3 13q44 -1 133 -1q88 0 132 1l-3 -13l-58 -7q-41 -5 -53.5 -21.5
t-2.5 -52.5l87 -298l195 230q67 79 67 107q0 15 -14.5 23t-49.5 13l-37 6l3 13q44 -1 133 -1q88 0 132 1l-3 -13l-21 -4q-47 -9 -81.5 -37t-114.5 -120l-202 -234l-48 -179q-9 -33 3 -50.5t52 -21.5l68 -7z" />
    <glyph glyph-name="Thorn" unicode="&#xde;" horiz-adv-x="574" 
d="M284 173q115 0 182 55t67 156q0 62 -39.5 93t-125.5 31h-102l-89 -332q53 -3 107 -3zM261 13l-3 -13q-25 0 -74.5 0.5t-74.5 0.5t-74.5 -0.5t-74.5 -0.5l3 13l65 7q38 4 55 18t25 43l138 517q8 29 -1 43t-47 18l-61 7l3 13q50 -1 149 -1t149 1l-3 -13l-65 -7
q-38 -4 -55 -18t-25 -43l-19 -72h97q101 0 160.5 -38.5t59.5 -112.5q0 -105 -84.5 -162.5t-219.5 -57.5q-64 0 -111 4l-21 -78q-8 -29 1 -43t47 -18z" />
    <glyph glyph-name="germandbls" unicode="&#xdf;" horiz-adv-x="502" 
d="M64 -66q-22 -90 -70 -134t-111 -44q-48 0 -74.5 21t-26.5 53q0 22 12.5 36t32.5 14q17 0 28 -10.5t11 -25.5q0 -21 -15 -32q-14 -12 -14 -17q0 -10 13 -17t33 -7q97 0 136 154l91 354l75 289q30 114 78.5 161t122.5 47q57 0 92 -33t35 -84q0 -37 -19.5 -69.5t-47.5 -55
t-56 -42.5t-47.5 -40.5t-19.5 -41.5q0 -27 21.5 -60t47.5 -60t47.5 -67.5t21.5 -80.5q0 -71 -48 -114t-118 -43q-54 0 -88 26.5t-34 64.5q0 24 13 40.5t33 16.5q17 0 27.5 -10t10.5 -25q0 -17 -16.5 -32t-16.5 -24q0 -17 18 -29.5t53 -12.5q58 0 94.5 33.5t36.5 90.5
q0 37 -21 76t-46.5 66.5t-46.5 62t-21 63.5q0 28 19.5 52.5t46.5 44l54.5 41t47 53t19.5 70.5q0 108 -95 108q-56 0 -93.5 -40t-60.5 -133l-42 -165l-37 -149z" />
    <glyph glyph-name="agrave" unicode="&#xe0;" horiz-adv-x="525" 
d="M370 578h-6q-72 82 -110 169v3h59q14 -80 57 -172zM166 0q112 0 187 254l45 154q-26 65 -95 65q-67 0 -124 -68t-82 -169q-14 -56 -14 -114q0 -56 21 -89t62 -33zM357 228l2 5l4 15zM375 -10q-30 0 -47 18.5t-17 48.5q0 36 38 146q-38 -110 -82.5 -165t-102.5 -55
q-54 0 -90.5 40t-36.5 119q0 134 81 240t184 106q83 0 122 -58l45 58h9l-50 -126l-65 -222q-16 -52 -16 -82q0 -48 38 -48q31 0 56 35.5t54 111.5l16 -5q-34 -87 -62 -124.5t-74 -37.5z" />
    <glyph glyph-name="aacute" unicode="&#xe1;" horiz-adv-x="525" 
d="M260 578h-6q91 93 139 172h72v-3q-82 -91 -205 -169zM166 0q112 0 187 254l45 154q-26 65 -95 65q-67 0 -124 -68t-82 -169q-14 -56 -14 -114q0 -56 21 -89t62 -33zM357 228l2 5l4 15zM375 -10q-30 0 -47 18.5t-17 48.5q0 36 38 146q-38 -110 -82.5 -165t-102.5 -55
q-54 0 -90.5 40t-36.5 119q0 134 81 240t184 106q83 0 122 -58l45 58h9l-50 -126l-65 -222q-16 -52 -16 -82q0 -48 38 -48q31 0 56 35.5t54 111.5l16 -5q-34 -87 -62 -124.5t-74 -37.5z" />
    <glyph glyph-name="acircumflex" unicode="&#xe2;" horiz-adv-x="525" 
d="M448 578l-93 130l-174 -130h-6l175 172h42l65 -172h-9zM166 0q112 0 187 254l45 154q-26 65 -95 65q-67 0 -124 -68t-82 -169q-14 -56 -14 -114q0 -56 21 -89t62 -33zM357 228l2 5l4 15zM375 -10q-30 0 -47 18.5t-17 48.5q0 11 2.5 25.5t8 34.5t9.5 33t13 39.5t12 36.5
q-39 -122 -85 -182.5t-107 -60.5q-54 0 -90.5 40t-36.5 119q0 134 81 240t184 106q83 0 122 -58l45 58h9l-50 -126l-65 -222q-16 -52 -16 -82q0 -48 38 -48q31 0 56 35.5t54 111.5l16 -5q-34 -87 -62 -124.5t-74 -37.5z" />
    <glyph glyph-name="atilde" unicode="&#xe3;" horiz-adv-x="525" 
d="M220 611l-4 -1q-3 13 -3 26q0 31 15 56t52 25q26 0 71.5 -33t66.5 -33t33 10.5t18 41.5h4q-13 -89 -73 -89q-27 0 -72.5 33t-64.5 33q-43 0 -43 -59v-10zM166 0q112 0 187 254l45 154q-26 65 -95 65q-67 0 -124 -68t-82 -169q-14 -56 -14 -114q0 -56 21 -89t62 -33z
M357 228l2 5l4 15zM375 -10q-30 0 -47 18.5t-17 48.5q0 36 38 146q-38 -110 -82.5 -165t-102.5 -55q-54 0 -90.5 40t-36.5 119q0 134 81 240t184 106q83 0 122 -58l45 58h9l-50 -126l-65 -222q-16 -52 -16 -82q0 -48 38 -48q31 0 56 35.5t54 111.5l16 -5q-34 -87 -62 -124.5
t-74 -37.5z" />
    <glyph glyph-name="adieresis" unicode="&#xe4;" horiz-adv-x="525" 
d="M476 660q0 -19 -12.5 -31.5t-30.5 -12.5t-30.5 12t-12.5 31t12.5 31.5t30.5 12.5t30.5 -12t12.5 -31zM292 660q0 -19 -12.5 -31.5t-30.5 -12.5t-30.5 12t-12.5 31t12.5 31.5t30.5 12.5t30.5 -12t12.5 -31zM166 0q112 0 187 254l45 154q-26 65 -95 65q-67 0 -124 -68
t-82 -169q-14 -56 -14 -114q0 -56 21 -89t62 -33zM357 228l2 5l4 15zM375 -10q-30 0 -47 18.5t-17 48.5q0 36 38 146q-38 -110 -82.5 -165t-102.5 -55q-54 0 -90.5 40t-36.5 119q0 134 81 240t184 106q83 0 122 -58l45 58h9l-50 -126l-65 -222q-16 -52 -16 -82q0 -48 38 -48
q31 0 56 35.5t54 111.5l16 -5q-34 -87 -62 -124.5t-74 -37.5z" />
    <glyph glyph-name="aring" unicode="&#xe5;" horiz-adv-x="525" 
d="M427 658q0 -40 -27.5 -67t-71.5 -28q-43 0 -70.5 27.5t-27.5 67.5t27.5 67t70.5 27q44 0 71.5 -27t27.5 -67zM258 658q0 -34 18.5 -57.5t51.5 -23.5q34 0 52.5 23.5t18.5 57.5q0 33 -18.5 56.5t-52.5 23.5q-33 0 -51.5 -23.5t-18.5 -56.5zM166 0q112 0 187 254l45 154
q-26 65 -95 65q-67 0 -124 -68t-82 -169q-14 -56 -14 -114q0 -56 21 -89t62 -33zM357 228l2 5l4 15zM375 -10q-30 0 -47 18.5t-17 48.5q0 11 2.5 25.5t8 34.5t9.5 33t13 39.5t12 36.5q-39 -122 -85 -182.5t-107 -60.5q-54 0 -90.5 40t-36.5 119q0 134 81 240t184 106
q83 0 122 -58l45 58h9l-50 -126l-65 -222q-16 -52 -16 -82q0 -48 38 -48q31 0 56 35.5t54 111.5l16 -5q-34 -87 -62 -124.5t-74 -37.5z" />
    <glyph glyph-name="ae" unicode="&#xe6;" horiz-adv-x="732" 
d="M393 235l10 2q127 26 193 68q71 45 71 104q0 30 -17 47t-48 17q-71 0 -128 -71t-81 -167zM166 0q112 0 187 254l45 153q-28 66 -95 66t-124 -68t-82 -169q-14 -56 -14 -114q0 -56 21 -89t62 -33zM481 -15q-69 0 -107 45t-38 119l1 13q-71 -179 -173 -179q-54 0 -90.5 40
t-36.5 119q0 134 81 240t184 106q82 0 121 -60l41 60h9l-24 -69q69 69 154 69q44 0 75.5 -21.5t31.5 -59.5q0 -121 -320 -186q-9 -40 -9 -77q0 -63 28 -99t79 -36q57 0 100.5 33t85.5 103l14 -8q-88 -152 -207 -152z" />
    <glyph glyph-name="ccedilla" unicode="&#xe7;" horiz-adv-x="432" 
d="M82 -240q-49 0 -82 23l12 12q27 -16 63 -16q41 0 68.5 22t27.5 66q0 43 -44 43q-19 0 -43 -8l-8 7l49 85q-86 33 -86 158q0 128 77.5 232t187.5 104q47 0 80 -27t33 -70q0 -27 -13 -41t-34 -14q-17 0 -27.5 10t-10.5 26q0 18 17 33q16 14 16 23q0 19 -16 32t-45 13
q-75 0 -130.5 -73t-76.5 -164q-12 -53 -12 -92q0 -64 25.5 -99.5t75.5 -35.5q57 0 98 32.5t84 103.5l14 -8q-43 -74 -90.5 -113t-112.5 -39q-20 0 -40 5l-33 -69q19 4 43 4q29 0 48.5 -15.5t19.5 -44.5q0 -48 -42.5 -76.5t-92.5 -28.5z" />
    <glyph glyph-name="egrave" unicode="&#xe8;" horiz-adv-x="435" 
d="M354 578h-6q-72 82 -110 169v3h59q14 -80 57 -172zM184 -15q-69 0 -107.5 45t-38.5 119q0 83 35 160.5t97.5 128t135.5 50.5q44 0 75.5 -21.5t31.5 -59.5q0 -121 -320 -186q-9 -41 -9 -77q0 -63 28 -99t79 -36q57 0 100.5 33t85.5 103l14 -8q-88 -152 -207 -152zM96 235
l10 2q127 26 193 68q71 45 71 104q0 30 -17 47t-48 17q-71 0 -128 -71t-81 -167z" />
    <glyph glyph-name="eacute" unicode="&#xe9;" horiz-adv-x="435" 
d="M264 578h-6q91 93 139 172h72v-3q-82 -91 -205 -169zM184 -15q-69 0 -107.5 45t-38.5 119q0 83 35 160.5t97.5 128t135.5 50.5q44 0 75.5 -21.5t31.5 -59.5q0 -121 -320 -186q-9 -41 -9 -77q0 -63 28 -99t79 -36q57 0 100.5 33t85.5 103l14 -8q-88 -152 -207 -152z
M96 235l10 2q127 26 193 68q71 45 71 104q0 30 -17 47t-48 17q-71 0 -128 -71t-81 -167z" />
    <glyph glyph-name="ecircumflex" unicode="&#xea;" horiz-adv-x="435" 
d="M435 578l-93 130l-174 -130h-6l175 172h42l65 -172h-9zM184 -15q-69 0 -107.5 45t-38.5 119q0 83 35 160.5t97.5 128t135.5 50.5q44 0 75.5 -21.5t31.5 -59.5q0 -121 -320 -186q-9 -41 -9 -77q0 -63 28 -99t79 -36q57 0 100.5 33t85.5 103l14 -8q-88 -152 -207 -152z
M96 235l10 2q127 26 193 68q71 45 71 104q0 30 -17 47t-48 17q-71 0 -128 -71t-81 -167z" />
    <glyph glyph-name="edieresis" unicode="&#xeb;" horiz-adv-x="435" 
d="M461 660q0 -19 -12.5 -31.5t-30.5 -12.5t-30.5 12t-12.5 31t12.5 31.5t30.5 12.5t30.5 -12t12.5 -31zM277 660q0 -19 -12.5 -31.5t-30.5 -12.5t-30.5 12t-12.5 31t12.5 31.5t30.5 12.5t30.5 -12t12.5 -31zM184 -15q-69 0 -107.5 45t-38.5 119q0 83 35 160.5t97.5 128
t135.5 50.5q44 0 75.5 -21.5t31.5 -59.5q0 -121 -320 -186q-9 -41 -9 -77q0 -63 28 -99t79 -36q57 0 100.5 33t85.5 103l14 -8q-88 -152 -207 -152zM96 235l10 2q127 26 193 68q71 45 71 104q0 30 -17 47t-48 17q-71 0 -128 -71t-81 -167z" />
    <glyph glyph-name="igrave" unicode="&#xec;" horiz-adv-x="295" 
d="M256 578h-6q-72 82 -110 169v3h59q14 -80 57 -172zM276 152q-34 -86 -62.5 -124t-74.5 -38q-31 0 -51 18t-20 51q0 32 26 97l74 185q21 51 21 76q0 46 -42 46q-31 0 -56 -35.5t-54 -111.5l-16 5q34 86 62.5 124t74.5 38q32 0 51.5 -17.5t19.5 -50.5q0 -31 -26 -96
l-74 -185q-21 -51 -21 -76q0 -48 42 -48q31 0 56 35.5t54 111.5z" />
    <glyph glyph-name="iacute" unicode="&#xed;" horiz-adv-x="295" 
d="M140 578h-6q91 93 139 172h72v-3q-82 -91 -205 -169zM276 152q-34 -86 -62.5 -124t-74.5 -38q-31 0 -51 18t-20 51q0 32 26 97l74 185q21 51 21 76q0 46 -42 46q-31 0 -56 -35.5t-54 -111.5l-16 5q34 86 62.5 124t74.5 38q32 0 51.5 -17.5t19.5 -50.5q0 -31 -26 -96
l-74 -185q-21 -51 -21 -76q0 -48 42 -48q31 0 56 35.5t54 111.5z" />
    <glyph glyph-name="icircumflex" unicode="&#xee;" horiz-adv-x="295" 
d="M231 708l-174 -130h-6l175 172h42l65 -172h-9zM276 152q-34 -86 -62.5 -124t-74.5 -38q-31 0 -51 18t-20 51q0 32 26 97l74 185q21 51 21 76q0 46 -42 46q-31 0 -56 -35.5t-54 -111.5l-16 5q34 86 62.5 124t74.5 38q32 0 51.5 -17.5t19.5 -50.5q0 -31 -26 -96l-74 -185
q-21 -51 -21 -76q0 -48 42 -48q31 0 56 35.5t54 111.5z" />
    <glyph glyph-name="idieresis" unicode="&#xef;" horiz-adv-x="295" 
d="M354 660q0 -19 -12.5 -31.5t-30.5 -12.5t-30.5 12t-12.5 31t12.5 31.5t30.5 12.5t30.5 -12t12.5 -31zM170 660q0 -19 -12.5 -31.5t-30.5 -12.5t-30.5 12t-12.5 31t12.5 31.5t30.5 12.5t30.5 -12t12.5 -31zM276 152q-34 -86 -62.5 -124t-74.5 -38q-31 0 -51 18t-20 51
q0 32 26 97l74 185q21 51 21 76q0 46 -42 46q-31 0 -56 -35.5t-54 -111.5l-16 5q34 86 62.5 124t74.5 38q32 0 51.5 -17.5t19.5 -50.5q0 -31 -26 -96l-74 -185q-21 -51 -21 -76q0 -48 42 -48q31 0 56 35.5t54 111.5z" />
    <glyph glyph-name="eth" unicode="&#xf0;" horiz-adv-x="456" 
d="M180 -15q-68 0 -109 46.5t-41 132.5q0 123 69 224t173 101q56 0 89.5 -39.5t33.5 -99.5v11q0 146 -101 278l-141 -61l-10 21l137 59q-50 61 -116 105l8 10q80 -47 136 -103l137 60l10 -21l-130 -56q108 -120 109 -296q1 -92 -29.5 -176.5t-90 -140t-134.5 -55.5zM76 148
q0 -68 25 -108t77 -40q53 0 95.5 39.5t65 90t31.5 104.5q10 53 10 96q0 65 -28.5 102.5t-78.5 37.5q-78 0 -126.5 -71t-63.5 -166q-7 -42 -7 -85zM387 268q7 29 8 66q-2 -44 -8 -66z" />
    <glyph glyph-name="ntilde" unicode="&#xf1;" horiz-adv-x="571" 
d="M249 611l-4 -1q-3 13 -3 26q0 31 15 56t52 25q27 0 72 -33t66 -33t33 10.5t18 41.5h4q-13 -89 -73 -89q-27 0 -72.5 33t-64.5 33q-43 0 -43 -59v-10zM557 152q-35 -88 -62.5 -125t-72.5 -37q-32 0 -52.5 18t-20.5 51q0 36 24 102l58 154q21 54 21 86q0 29 -16.5 47.5
t-49.5 18.5q-66 0 -128.5 -96t-104.5 -233l-42 -138q-10 1 -21 1l-22 -1l89 297q28 92 28 120q0 46 -42 46q-31 0 -56 -35t-55 -112l-16 5q37 90 64 126t73 36q31 0 50 -17.5t19 -50.5q0 -12 -3 -28t-11 -42l-15.5 -50l-22.5 -69.5l-27 -82.5q110 345 252 345
q45 0 71.5 -24.5t26.5 -63.5q0 -40 -24 -104l-58 -152q-22 -57 -22 -87q0 -47 42 -47q31 0 56 35.5t54 111.5z" />
    <glyph glyph-name="ograve" unicode="&#xf2;" horiz-adv-x="472" 
d="M374 578h-6q-72 82 -110 169v3h59q14 -80 57 -172zM447 319q0 -134 -79 -234t-178 -100q-66 0 -108 44t-42 125q0 134 79 234t178 100q67 0 108.5 -44t41.5 -125zM187 0q53 0 96.5 38.5t67.5 89t37 109.5q13 58 13 104q0 132 -101 132q-53 0 -96.5 -38.5t-67.5 -89
t-37 -109.5q-13 -58 -13 -104q0 -132 101 -132z" />
    <glyph glyph-name="oacute" unicode="&#xf3;" horiz-adv-x="472" 
d="M246 578h-6q91 93 139 172h72v-3q-82 -91 -205 -169zM447 319q0 -134 -79 -234t-178 -100q-66 0 -108 44t-42 125q0 134 79 234t178 100q67 0 108.5 -44t41.5 -125zM187 0q53 0 96.5 38.5t67.5 89t37 109.5q13 58 13 104q0 132 -101 132q-53 0 -96.5 -38.5t-67.5 -89
t-37 -109.5q-13 -58 -13 -104q0 -132 101 -132z" />
    <glyph glyph-name="ocircumflex" unicode="&#xf4;" horiz-adv-x="472" 
d="M348 708l-174 -130h-6l175 172h42l65 -172h-9zM447 319q0 -134 -79 -234t-178 -100q-66 0 -108 44t-42 125q0 134 79 234t178 100q67 0 108.5 -44t41.5 -125zM86 132q0 -132 101 -132q53 0 96.5 38.5t67.5 89t37 109.5q13 58 13 104q0 132 -101 132q-53 0 -96.5 -38.5
t-67.5 -89t-37 -109.5q-13 -58 -13 -104z" />
    <glyph glyph-name="otilde" unicode="&#xf5;" horiz-adv-x="472" 
d="M219 611l-4 -1q-3 13 -3 26q0 31 15 56t52 25q27 0 72 -33t66 -33t33 10.5t18 41.5h4q-13 -89 -73 -89q-27 0 -72.5 33t-64.5 33q-43 0 -43 -59v-10zM447 319q0 -134 -79 -234t-178 -100q-66 0 -108 44t-42 125q0 134 79 234t178 100q67 0 108.5 -44t41.5 -125zM187 0
q53 0 96.5 38.5t67.5 89t37 109.5q13 58 13 104q0 132 -101 132q-53 0 -96.5 -38.5t-67.5 -89t-37 -109.5q-13 -58 -13 -104q0 -132 101 -132z" />
    <glyph glyph-name="odieresis" unicode="&#xf6;" horiz-adv-x="472" 
d="M467 660q0 -19 -12.5 -31.5t-30.5 -12.5t-30.5 12t-12.5 31t12.5 31.5t30.5 12.5t30.5 -12t12.5 -31zM283 660q0 -19 -12.5 -31.5t-30.5 -12.5t-30.5 12t-12.5 31t12.5 31.5t30.5 12.5t30.5 -12t12.5 -31zM447 319q0 -134 -79 -234t-178 -100q-66 0 -108 44t-42 125
q0 134 79 234t178 100q67 0 108.5 -44t41.5 -125zM187 0q53 0 96.5 38.5t67.5 89t37 109.5q13 58 13 104q0 132 -101 132q-53 0 -96.5 -38.5t-67.5 -89t-37 -109.5q-13 -58 -13 -104q0 -132 101 -132z" />
    <glyph glyph-name="divide" unicode="&#xf7;" horiz-adv-x="550" 
d="M346 392q0 -15 -9.5 -24t-23.5 -9t-23.5 9t-9.5 24t9.5 24t23.5 9t23.5 -9.5t9.5 -23.5zM52 222l8 28h438l-8 -28h-438zM270 80q0 -15 -9.5 -24t-23.5 -9t-23.5 9t-9.5 24t9.5 24t23.5 9t23.5 -9.5t9.5 -23.5z" />
    <glyph glyph-name="oslash" unicode="&#xf8;" horiz-adv-x="472" 
d="M447 319q0 -134 -79 -234t-178 -100q-97 0 -135 86l-92 -81l-14 15l99 86q-8 29 -8 63q0 134 79 234t178 100q87 0 126 -69l85 74l14 -15l-89 -78q14 -36 14 -81zM99 236q-13 -58 -13 -104v-8l309 271q-18 78 -95 78q-53 0 -96.5 -38.5t-67.5 -89t-37 -109.5zM187 0
q53 0 96.5 38.5t67.5 89t37 109.5q13 58 13 104q0 12 -2 30l-311 -272q13 -99 99 -99z" />
    <glyph glyph-name="ugrave" unicode="&#xf9;" horiz-adv-x="565" 
d="M373 578h-6q-72 82 -110 169v3h59q14 -80 57 -172zM414 -10q-31 0 -50 17.5t-19 50.5q0 34 66 232q-104 -305 -236 -305q-45 0 -70 24.5t-25 63.5q0 40 24 104l58 152q22 57 22 87q0 47 -42 47q-31 0 -56 -35.5t-54 -111.5l-16 5q35 88 62.5 125t72.5 37q32 0 52.5 -18
t20.5 -51q0 -36 -24 -102l-58 -154q-21 -54 -21 -86q0 -66 63 -66q66 0 127 95.5t103 233.5l42 138q10 -1 21 -1l22 1l-89 -297q-28 -92 -28 -120q0 -46 42 -46q31 0 56 35t55 112l16 -5q-37 -90 -64 -126t-73 -36z" />
    <glyph glyph-name="uacute" unicode="&#xfa;" horiz-adv-x="565" 
d="M307 578h-6q91 93 139 172h72v-3q-82 -91 -205 -169zM414 -10q-31 0 -50 17.5t-19 50.5q0 34 66 232q-104 -305 -236 -305q-45 0 -70 24.5t-25 63.5q0 40 24 104l58 152q22 57 22 87q0 47 -42 47q-31 0 -56 -35.5t-54 -111.5l-16 5q35 88 62.5 125t72.5 37q32 0 52.5 -18
t20.5 -51q0 -36 -24 -102l-58 -154q-21 -54 -21 -86q0 -66 63 -66q66 0 127 95.5t103 233.5l42 138q10 -1 21 -1l22 1l-89 -297q-28 -92 -28 -120q0 -46 42 -46q31 0 56 35t55 112l16 -5q-37 -90 -64 -126t-73 -36z" />
    <glyph glyph-name="ucircumflex" unicode="&#xfb;" horiz-adv-x="565" 
d="M477 578l-93 130l-174 -130h-6l175 172h42l65 -172h-9zM414 -10q-31 0 -50 17.5t-19 50.5q0 34 66 232q-104 -305 -236 -305q-45 0 -70 24.5t-25 63.5q0 40 24 104l58 152q22 57 22 87q0 47 -42 47q-31 0 -56 -35.5t-54 -111.5l-16 5q35 88 62.5 125t72.5 37
q32 0 52.5 -18t20.5 -51q0 -36 -24 -102l-58 -154q-21 -54 -21 -86q0 -66 63 -66q66 0 127 95.5t103 233.5l42 138q10 -1 21 -1l22 1l-89 -297q-28 -92 -28 -120q0 -46 42 -46q31 0 56 35t55 112l16 -5q-37 -90 -64 -126t-73 -36z" />
    <glyph glyph-name="udieresis" unicode="&#xfc;" horiz-adv-x="565" 
d="M498 660q0 -19 -12.5 -31.5t-30.5 -12.5t-30.5 12t-12.5 31t12.5 31.5t30.5 12.5t30.5 -12t12.5 -31zM314 660q0 -19 -12.5 -31.5t-30.5 -12.5t-30.5 12t-12.5 31t12.5 31.5t30.5 12.5t30.5 -12t12.5 -31zM414 -10q-31 0 -50 17.5t-19 50.5q0 34 66 232
q-104 -305 -236 -305q-45 0 -70 24.5t-25 63.5q0 40 24 104l58 152q22 57 22 87q0 47 -42 47q-31 0 -56 -35.5t-54 -111.5l-16 5q35 88 62.5 125t72.5 37q32 0 52.5 -18t20.5 -51q0 -36 -24 -102l-58 -154q-21 -54 -21 -86q0 -66 63 -66q66 0 127 95.5t103 233.5l42 138
q10 -1 21 -1l22 1l-89 -297q-28 -92 -28 -120q0 -46 42 -46q31 0 56 35t55 112l16 -5q-37 -90 -64 -126t-73 -36z" />
    <glyph glyph-name="yacute" unicode="&#xfd;" horiz-adv-x="492" 
d="M302 578h-6q91 93 139 172h72v-3q-82 -91 -205 -169zM123 -244q-56 0 -89 25t-33 65q0 23 12.5 38.5t33.5 15.5q18 0 28.5 -10t10.5 -26q0 -18 -15.5 -31.5t-15.5 -23.5q0 -16 19 -27t48 -11q127 0 174 168l11 39q14 50 31.5 103.5l41.5 123l35 103.5
q-106 -323 -241 -323q-44 0 -69 24.5t-25 63.5q0 40 24 104l58 152q22 57 22 87q0 47 -42 47q-31 0 -56 -35.5t-54 -111.5l-16 5q35 88 62.5 125t72.5 37q32 0 52.5 -18t20.5 -51q0 -36 -24 -102l-58 -154q-21 -54 -21 -86q0 -66 63 -66q66 0 127 96t100 233l40 138
q12 -1 22 -1l21 1l-151 -518q-30 -103 -88.5 -151t-131.5 -48z" />
    <glyph glyph-name="thorn" unicode="&#xfe;" horiz-adv-x="484" 
d="M193 -2q67 0 125.5 68.5t83.5 168.5q14 58 14 114t-22 89t-64 33q-118 0 -191 -254l-44 -152q29 -67 98 -67zM124 -217l-3 -13q-22 0 -62 0.5t-62 0.5t-66.5 -0.5t-66.5 -0.5l3 13l44 6q35 5 52.5 18.5t25.5 40.5l241 829q9 28 2 39t-37 14l-57 6v10l157 27l11 -6
q-20 -50 -33 -94l-50 -171q-16 -55 -45 -135t-49 -144q80 265 203 265q55 0 92.5 -40.5t37.5 -118.5q0 -134 -82.5 -240t-185.5 -106q-67 0 -111 42l-50 -173q-9 -28 0.5 -43.5t43.5 -19.5z" />
    <glyph glyph-name="ydieresis" unicode="&#xff;" horiz-adv-x="492" 
d="M486 660q0 -19 -12.5 -31.5t-30.5 -12.5t-30.5 12t-12.5 31t12.5 31.5t30.5 12.5t30.5 -12t12.5 -31zM302 660q0 -19 -12.5 -31.5t-30.5 -12.5t-30.5 12t-12.5 31t12.5 31.5t30.5 12.5t30.5 -12t12.5 -31zM123 -244q-56 0 -89 25t-33 65q0 23 12.5 38.5t33.5 15.5
q18 0 28.5 -10t10.5 -26q0 -18 -15.5 -31.5t-15.5 -23.5q0 -16 19 -27t48 -11q127 0 174 168l11 39q14 50 31.5 103.5l41.5 123l35 103.5q-106 -323 -241 -323q-44 0 -69 24.5t-25 63.5q0 40 24 104l58 152q22 57 22 87q0 47 -42 47q-31 0 -56 -35.5t-54 -111.5l-16 5
q35 88 62.5 125t72.5 37q32 0 52.5 -18t20.5 -51q0 -36 -24 -102l-58 -154q-21 -54 -21 -86q0 -66 63 -66q66 0 127 96t100 233l40 138q12 -1 22 -1l21 1l-151 -518q-30 -103 -88.5 -151t-131.5 -48z" />
    <glyph glyph-name="Amacron" unicode="&#x100;" horiz-adv-x="631" 
d="M309 761l5 26q54 -3 134 -3q82 0 134 3l-5 -26q-52 3 -133 3t-135 -3zM593 0q-22 0 -66.5 0.5t-66.5 0.5t-66.5 -0.5t-66.5 -0.5l3 13l55 6q41 5 57 21.5t13 53.5l-10 131h-275l-33 -55q-36 -59 -43.5 -90t7 -44t56.5 -19l26 -4l-3 -13q-21 0 -63.5 0.5t-63.5 0.5
t-64 -0.5t-64 -0.5l3 13l21 4q46 9 76.5 37.5t90.5 126.5l264 434l37 68h36l47 -579q4 -45 16.5 -61.5t47.5 -23.5l32 -6zM182 246h262l-29 390z" />
    <glyph glyph-name="amacron" unicode="&#x101;" horiz-adv-x="525" 
d="M214 648l5 26q54 -3 133 -3q81 0 133 3l-5 -26q-52 3 -132 3t-134 -3zM166 0q112 0 187 254l45 154q-26 65 -95 65q-67 0 -124 -68t-82 -169q-14 -56 -14 -114q0 -56 21 -89t62 -33zM357 228l2 5l4 15zM375 -10q-30 0 -47 18.5t-17 48.5q0 11 2.5 25.5t8 34.5t9.5 33
t13 39.5t12 36.5q-39 -122 -85 -182.5t-107 -60.5q-54 0 -90.5 40t-36.5 119q0 134 81 240t184 106q83 0 122 -58l45 58h9l-50 -126l-65 -222q-16 -52 -16 -82q0 -48 38 -48q31 0 56 35.5t54 111.5l16 -5q-34 -87 -62 -124.5t-74 -37.5z" />
    <glyph glyph-name="Abreve" unicode="&#x102;" horiz-adv-x="631" 
d="M602 869q-44 -125 -161 -125q-53 0 -78.5 32.5t-17.5 92.5h4q3 -81 103 -81q98 0 146 81h4zM593 0q-22 0 -66.5 0.5t-66.5 0.5t-66.5 -0.5t-66.5 -0.5l3 13l55 6q41 5 57 21.5t13 53.5l-10 131h-275l-33 -55q-36 -59 -43.5 -90t7 -44t56.5 -19l26 -4l-3 -13
q-21 0 -63.5 0.5t-63.5 0.5t-64 -0.5t-64 -0.5l3 13l21 4q46 9 76.5 37.5t90.5 126.5l264 434l37 68h36l47 -579q4 -45 16.5 -61.5t47.5 -23.5l32 -6zM444 246l-29 390l-233 -390h262z" />
    <glyph glyph-name="abreve" unicode="&#x103;" horiz-adv-x="525" 
d="M484 730q-43 -129 -157 -129q-113 0 -96 129h4q1 -37 25 -61t76 -24q96 0 144 85h4zM166 0q112 0 187 254l45 154q-26 65 -95 65q-67 0 -124 -68t-82 -169q-14 -56 -14 -114q0 -56 21 -89t62 -33zM357 228l2 5l4 15zM375 -10q-30 0 -47 18.5t-17 48.5q0 36 38 146
q-38 -110 -82.5 -165t-102.5 -55q-54 0 -90.5 40t-36.5 119q0 134 81 240t184 106q83 0 122 -58l45 58h9l-50 -126l-65 -222q-16 -52 -16 -82q0 -48 38 -48q31 0 56 35.5t54 111.5l16 -5q-34 -87 -62 -124.5t-74 -37.5z" />
    <glyph glyph-name="Aogonek" unicode="&#x104;" horiz-adv-x="631" 
d="M444 246l-29 390l-233 -390h262zM418 -127q-33 -55 -67 -84.5t-82 -29.5q-33 0 -53.5 17t-20.5 47q0 77 110 141q26 15 60.5 30t50.5 22.5t28 22.5t12 38q0 8 -1 17l-10 131h-275l-33 -55q-36 -59 -43.5 -90t7 -44t56.5 -19l26 -4l-3 -13q-21 0 -63.5 0.5t-63.5 0.5
t-64 -0.5t-64 -0.5l3 13l21 4q46 9 76.5 37.5t90.5 126.5l264 434l37 68h36l47 -579q4 -45 16.5 -61.5t47.5 -23.5l32 -6l-3 -13q-22 0 -64.5 0.5t-64.5 0.5q-77 0 -154 -53q-73 -52 -73 -118q0 -21 12 -34t33 -13q60 0 122 98z" />
    <glyph glyph-name="aogonek" unicode="&#x105;" horiz-adv-x="525" 
d="M297 -241q-30 0 -50 18t-20 48q0 36 24.5 66t71.5 64q27 20 68 42q-7 -3 -17 -3q-30 0 -46.5 17t-16.5 46q0 11 2.5 25.5t8 34.5t9.5 33t13 39.5t12 36.5q-39 -122 -85 -182.5t-107 -60.5q-54 0 -90.5 40t-36.5 119q0 134 81 240t184 106q83 0 122 -58l45 58h9l-50 -126
l-65 -222q-16 -52 -16 -82q0 -48 38 -48q31 0 56 35.5t54 111.5l16 -5q-27 -68 -47 -102t-49 -50q-47 -26 -82 -55q-68 -55 -68 -116q0 -20 12 -33t33 -13q60 0 122 98l14 -8q-32 -54 -67 -84t-82 -30zM166 0q112 0 187 254l45 153q-28 66 -95 66t-124 -68t-82 -169
q-14 -56 -14 -114q0 -56 21 -89t62 -33zM357 228l2 5l4 15z" />
    <glyph glyph-name="Cacute" unicode="&#x106;" horiz-adv-x="660" 
d="M397 744h-6q85 65 137 125h74v-2q-84 -66 -205 -123zM510 -11l-3 82q-84 -86 -207 -86q-108 0 -172.5 68t-64.5 188q0 121 50 225t139 166t196 62q132 0 183 -101l53 96h10l-73 -277h-18q6 54 1.5 102.5t-18.5 85t-49 58t-89 21.5q-77 0 -141.5 -43t-104.5 -110
t-62 -144.5t-22 -151.5q0 -104 46.5 -167t134.5 -63q168 0 271 254h20l-70 -265h-10z" />
    <glyph glyph-name="cacute" unicode="&#x107;" horiz-adv-x="432" 
d="M261 578h-6q91 93 139 172h72v-3q-82 -91 -205 -169zM382 137q-43 -74 -90.5 -113t-112.5 -39q-68 0 -104 45.5t-36 121.5q0 128 77.5 232t187.5 104q47 0 80 -27t33 -70q0 -27 -13 -41t-34 -14q-17 0 -27.5 10t-10.5 26q0 18 17 33q16 14 16 23q0 19 -16 32t-45 13
q-75 0 -130.5 -73t-76.5 -164q-12 -53 -12 -92q0 -64 25.5 -99.5t75.5 -35.5q57 0 98 32.5t84 103.5z" />
    <glyph glyph-name="Ccircumflex" unicode="&#x108;" horiz-adv-x="660" 
d="M480 835l-161 -91h-5l158 125h51l80 -125h-9zM510 -11l-3 82q-84 -86 -207 -86q-108 0 -172.5 68t-64.5 188q0 121 50 225t139 166t196 62q132 0 183 -101l53 96h10l-73 -277h-18q6 54 1.5 102.5t-18.5 85t-49 58t-89 21.5q-77 0 -141.5 -43t-104.5 -110t-62 -144.5
t-22 -151.5q0 -104 46.5 -167t134.5 -63q168 0 271 254h20l-70 -265h-10z" />
    <glyph glyph-name="ccircumflex" unicode="&#x109;" horiz-adv-x="432" 
d="M345 708l-174 -130h-6l175 172h42l65 -172h-9zM382 137q-43 -74 -90.5 -113t-112.5 -39q-68 0 -104 45.5t-36 121.5q0 128 77.5 232t187.5 104q47 0 80 -27t33 -70q0 -27 -13 -41t-34 -14q-17 0 -27.5 10t-10.5 26q0 18 17 33q16 14 16 23q0 19 -16 32t-45 13
q-75 0 -130.5 -73t-76.5 -164q-12 -53 -12 -92q0 -64 25.5 -99.5t75.5 -35.5q57 0 98 32.5t84 103.5z" />
    <glyph glyph-name="Cdotaccent" unicode="&#x10a;" horiz-adv-x="660" 
d="M513 787q0 -19 -12.5 -31.5t-30.5 -12.5t-30.5 12t-12.5 31t12.5 31.5t30.5 12.5t30.5 -12t12.5 -31zM510 -11l-3 82q-84 -86 -207 -86q-108 0 -172.5 68t-64.5 188q0 121 50 225t139 166t196 62q132 0 183 -101l53 96h10l-73 -277h-18q6 54 1.5 102.5t-18.5 85t-49 58
t-89 21.5q-77 0 -141.5 -43t-104.5 -110t-62 -144.5t-22 -151.5q0 -104 46.5 -167t134.5 -63q168 0 271 254h20l-70 -265h-10z" />
    <glyph glyph-name="cdotaccent" unicode="&#x10b;" horiz-adv-x="432" 
d="M374 660q0 -19 -12.5 -31.5t-30.5 -12.5t-30.5 12t-12.5 31t12.5 31.5t30.5 12.5t30.5 -12t12.5 -31zM382 137q-43 -74 -90.5 -113t-112.5 -39q-68 0 -104 45.5t-36 121.5q0 128 77.5 232t187.5 104q47 0 80 -27t33 -70q0 -27 -13 -41t-34 -14q-17 0 -27.5 10t-10.5 26
q0 18 17 33q16 14 16 23q0 19 -16 32t-45 13q-75 0 -130.5 -73t-76.5 -164q-12 -53 -12 -92q0 -64 25.5 -99.5t75.5 -35.5q57 0 98 32.5t84 103.5z" />
    <glyph glyph-name="Ccaron" unicode="&#x10c;" horiz-adv-x="660" 
d="M488 744h-51l-80 125h9l114 -91l161 91h5zM510 -11l-3 82q-84 -86 -207 -86q-108 0 -172.5 68t-64.5 188q0 121 50 225t139 166t196 62q132 0 183 -101l53 96h10l-73 -277h-18q6 54 1.5 102.5t-18.5 85t-49 58t-89 21.5q-77 0 -141.5 -43t-104.5 -110t-62 -144.5
t-22 -151.5q0 -104 46.5 -167t134.5 -63q168 0 271 254h20l-70 -265h-10z" />
    <glyph glyph-name="ccaron" unicode="&#x10d;" horiz-adv-x="432" 
d="M343 578h-42l-65 172h9l93 -130l174 130h6zM382 137q-43 -74 -90.5 -113t-112.5 -39q-68 0 -104 45.5t-36 121.5q0 128 77.5 232t187.5 104q47 0 80 -27t33 -70q0 -27 -13 -41t-34 -14q-17 0 -27.5 10t-10.5 26q0 18 17 33q16 14 16 23q0 19 -16 32t-45 13
q-75 0 -130.5 -73t-76.5 -164q-12 -53 -12 -92q0 -64 25.5 -99.5t75.5 -35.5q57 0 98 32.5t84 103.5z" />
    <glyph glyph-name="Dcaron" unicode="&#x10e;" horiz-adv-x="670" 
d="M497 744h-51l-80 125h9l114 -91l161 91h5zM-40 0l3 13l65 7q38 4 55 18t25 43l138 517q8 29 -1 43t-47 18l-61 7l3 13h280q120 0 190 -66.5t70 -176.5q0 -187 -119.5 -311.5t-315.5 -124.5h-285zM205 18h42q115 0 203 61t132 159.5t44 215.5q0 93 -52 150t-154 57h-113
l-153 -573q-10 -37 1.5 -53.5t49.5 -16.5z" />
    <glyph glyph-name="dcaron" unicode="&#x10f;" horiz-adv-x="535" 
d="M572 498l-8 14q41 19 65 46.5t23 56.5q-9 -19 -32 -19q-16 0 -28.5 11.5t-12.5 28.5q0 20 12.5 32.5t32.5 12.5q24 0 37.5 -16.5t13.5 -40.5q0 -41 -29 -73.5t-74 -52.5zM168 0q118 0 191 254l44 152q-29 67 -98 67q-67 0 -125 -68t-83 -169q-14 -58 -14 -114t21.5 -89
t63.5 -33zM353 199q-76 -216 -187 -216q-55 0 -92 40.5t-37 118.5q0 134 82 240t185 106q67 0 111 -42l67 231q8 28 1 38t-39 14l-57 6v10l160 28l11 -6q-19 -46 -33 -94l-156 -533q-16 -53 -16 -82q0 -48 38 -48q31 0 56 35.5t54 111.5l16 -5q-34 -86 -62.5 -124t-74.5 -38
q-28 0 -45.5 18t-17.5 52q0 31 36 139z" />
    <glyph glyph-name="Dcroat" unicode="&#x110;" horiz-adv-x="670" 
d="M245 0h-285l3 13l65 7q38 4 55 18t25 43l66 248h-118l5 21h119l66 248q8 29 -1 43t-47 18l-61 7l3 13h280q120 0 190 -66.5t70 -176.5q0 -187 -119.5 -311.5t-315.5 -124.5zM205 18h42q115 0 203 61t132 159.5t44 215.5q0 93 -52 150t-154 57h-113l-83 -311h175l-5 -21
h-176l-64 -241q-10 -37 1.5 -53.5t49.5 -16.5z" />
    <glyph glyph-name="dcroat" unicode="&#x111;" horiz-adv-x="530" 
d="M168 0q118 0 191 254l44 152q-29 67 -98 67q-67 0 -125 -68t-83 -169q-14 -58 -14 -114t21.5 -89t63.5 -33zM380 -10q-28 0 -45.5 18t-17.5 52q0 31 36 139q-76 -216 -187 -216q-55 0 -92 40.5t-37 118.5q0 134 82 240t185 106q67 0 111 -42l45 154h-160l5 21h161l16 56
q8 28 1 38t-39 14l-57 6v10l160 28l11 -6q-19 -46 -33 -94l-15 -52h100l-5 -21h-101l-135 -460q-16 -53 -16 -82q0 -48 38 -48q31 0 56 35.5t54 111.5l16 -5q-34 -86 -62.5 -124t-74.5 -38z" />
    <glyph glyph-name="Emacron" unicode="&#x112;" horiz-adv-x="625" 
d="M295 761l5 26q54 -3 134 -3q82 0 134 3l-5 -26q-52 3 -133 3t-135 -3zM575 237l-75 -237h-540l3 13l65 7q38 4 55 18t25 43l138 517q8 29 -1 43t-47 18l-61 7l3 13h504l-40 -217h-15q3 53 4 80.5t-1.5 53.5t-7.5 36t-18 18.5t-28 9.5t-43 1h-188l-81 -302h106q50 0 76 29
t62 120h14l-43 -161l-42 -161h-13q8 59 7.5 93.5t-13.5 48t-46 13.5h-112l-68 -253q-10 -37 2 -53.5t50 -16.5h132q84 0 123 38.5t99 180.5h15z" />
    <glyph glyph-name="emacron" unicode="&#x113;" horiz-adv-x="435" 
d="M187 647l5 26q54 -3 133 -3q81 0 133 3l-5 -26q-52 3 -132 3t-134 -3zM184 -15q-69 0 -107.5 45t-38.5 119q0 83 35 160.5t97.5 128t135.5 50.5q44 0 75.5 -21.5t31.5 -59.5q0 -121 -320 -186q-9 -41 -9 -77q0 -63 28 -99t79 -36q57 0 100.5 33t85.5 103l14 -8
q-88 -152 -207 -152zM96 235l10 2q127 26 193 68q71 45 71 104q0 30 -17 47t-48 17q-71 0 -128 -71t-81 -167z" />
    <glyph glyph-name="Ebreve" unicode="&#x114;" horiz-adv-x="625" 
d="M601 869q-44 -125 -161 -125q-53 0 -78.5 32.5t-17.5 92.5h4q3 -81 103 -81q98 0 146 81h4zM575 237l-75 -237h-540l3 13l65 7q38 4 55 18t25 43l138 517q8 29 -1 43t-47 18l-61 7l3 13h504l-40 -217h-15q3 53 4 80.5t-1.5 53.5t-7.5 36t-18 18.5t-28 9.5t-43 1h-188
l-81 -302h106q50 0 76 29t62 120h14l-43 -161l-42 -161h-13q8 59 7.5 93.5t-13.5 48t-46 13.5h-112l-68 -253q-10 -37 2 -53.5t50 -16.5h132q84 0 123 38.5t99 180.5h15z" />
    <glyph glyph-name="ebreve" unicode="&#x115;" horiz-adv-x="435" 
d="M462 730q-44 -129 -157 -129t-96 129h4q1 -37 25 -61t76 -24q96 0 144 85h4zM184 -15q-69 0 -107.5 45t-38.5 119q0 83 35 160.5t97.5 128t135.5 50.5q44 0 75.5 -21.5t31.5 -59.5q0 -121 -320 -186q-9 -41 -9 -77q0 -63 28 -99t79 -36q57 0 100.5 33t85.5 103l14 -8
q-88 -152 -207 -152zM96 235l10 2q127 26 193 68q71 45 71 104q0 30 -17 47t-48 17q-71 0 -128 -71t-81 -167z" />
    <glyph glyph-name="Edotaccent" unicode="&#x116;" horiz-adv-x="625" 
d="M491 787q0 -19 -12.5 -31.5t-30.5 -12.5t-30.5 12t-12.5 31t12.5 31.5t30.5 12.5t30.5 -12t12.5 -31zM575 237l-75 -237h-540l3 13l65 7q38 4 55 18t25 43l138 517q8 29 -1 43t-47 18l-61 7l3 13h504l-40 -217h-15q3 53 4 80.5t-1.5 53.5t-7.5 36t-18 18.5t-28 9.5t-43 1
h-188l-81 -302h106q50 0 76 29t62 120h14l-43 -161l-42 -161h-13q8 59 7.5 93.5t-13.5 48t-46 13.5h-112l-68 -253q-10 -37 2 -53.5t50 -16.5h132q84 0 123 38.5t99 180.5h15z" />
    <glyph glyph-name="edotaccent" unicode="&#x117;" horiz-adv-x="435" 
d="M360 660q0 -19 -12.5 -31.5t-30.5 -12.5t-30.5 12t-12.5 31t12.5 31.5t30.5 12.5t30.5 -12t12.5 -31zM184 -15q-69 0 -107.5 45t-38.5 119q0 83 35 160.5t97.5 128t135.5 50.5q44 0 75.5 -21.5t31.5 -59.5q0 -121 -320 -186q-9 -41 -9 -77q0 -63 28 -99t79 -36
q57 0 100.5 33t85.5 103l14 -8q-88 -152 -207 -152zM96 235l10 2q127 26 193 68q71 45 71 104q0 30 -17 47t-48 17q-71 0 -128 -71t-81 -167z" />
    <glyph glyph-name="Eogonek" unicode="&#x118;" horiz-adv-x="625" 
d="M466 -127q-33 -55 -67 -84.5t-82 -29.5q-33 0 -53.5 17t-20.5 47q0 78 94 135q65 41 129 49q-84 -7 -115 -7h-391l3 13l65 7q38 4 55 18t25 43l138 517q8 29 -1 43t-47 18l-61 7l3 13h504l-40 -217h-15q3 53 4 80.5t-1.5 53.5t-7.5 36t-18 18.5t-28 9.5t-43 1h-188
l-81 -302h106q50 0 76 29t62 120h14l-43 -161l-42 -161h-13q8 59 7.5 93.5t-13.5 48t-46 13.5h-112l-68 -253q-10 -37 2 -53.5t50 -16.5h132q84 0 123 38.5t99 180.5h15l-75 -237q-72 0 -143.5 -47.5t-71.5 -122.5q0 -21 12 -34t33 -13q60 0 122 98z" />
    <glyph glyph-name="eogonek" unicode="&#x119;" horiz-adv-x="435" 
d="M176 -241q-30 0 -50 18t-20 48q0 36 24 66t71 67l82 65q-51 -38 -99 -38q-69 0 -107.5 45t-38.5 119q0 83 35 160.5t97.5 128t135.5 50.5q44 0 75.5 -21.5t31.5 -59.5q0 -121 -320 -186q-9 -41 -9 -77q0 -63 28 -99t79 -36q57 0 100.5 33t85.5 103l14 -8
q-39 -66 -81 -103l-33.5 -28.5l-36 -31.5t-28.5 -27q-68 -72 -68 -118q0 -20 12 -33t33 -13q60 0 122 98l14 -8q-32 -55 -67 -84.5t-82 -29.5zM96 235l10 2q127 26 193 68q71 45 71 104q0 30 -17 47t-48 17q-71 0 -128 -71t-81 -167z" />
    <glyph glyph-name="Ecaron" unicode="&#x11a;" horiz-adv-x="625" 
d="M467 744h-51l-80 125h9l114 -91l161 91h5zM575 237l-75 -237h-540l3 13l65 7q38 4 55 18t25 43l138 517q8 29 -1 43t-47 18l-61 7l3 13h504l-40 -217h-15q3 53 4 80.5t-1.5 53.5t-7.5 36t-18 18.5t-28 9.5t-43 1h-188l-81 -302h106q50 0 76 29t62 120h14l-43 -161
l-42 -161h-13q8 59 7.5 93.5t-13.5 48t-46 13.5h-112l-68 -253q-10 -37 2 -53.5t50 -16.5h132q84 0 123 38.5t99 180.5h15z" />
    <glyph glyph-name="ecaron" unicode="&#x11b;" horiz-adv-x="435" 
d="M323 578h-42l-65 172h9l93 -130l174 130h6zM184 -15q-69 0 -107.5 45t-38.5 119q0 83 35 160.5t97.5 128t135.5 50.5q44 0 75.5 -21.5t31.5 -59.5q0 -121 -320 -186q-9 -41 -9 -77q0 -63 28 -99t79 -36q57 0 100.5 33t85.5 103l14 -8q-88 -152 -207 -152zM96 235l10 2
q127 26 193 68q71 45 71 104q0 30 -17 47t-48 17q-71 0 -128 -71t-81 -167z" />
    <glyph glyph-name="Gcircumflex" unicode="&#x11c;" horiz-adv-x="682" 
d="M468 835l-161 -91h-5l158 125h51l80 -125h-9zM511 -13l-7 83q-40 -40 -97 -62.5t-116 -22.5q-107 0 -167.5 67.5t-60.5 188.5t50 225t139 166t196 62q132 0 183 -101l53 96h10l-73 -277h-18q6 54 1.5 102.5t-18.5 85t-49 58t-89 21.5q-77 0 -141.5 -43t-104.5 -110
t-62 -144.5t-22 -151.5q0 -106 42.5 -168t129.5 -62t148.5 50t78.5 118l13 51q7 30 -4.5 46t-53.5 20l-71 7l3 13q52 -1 157 -1q104 0 156 1l-3 -13l-58 -7q-38 -4 -55.5 -18.5t-25.5 -44.5l-26 -97l-29 -138h-9z" />
    <glyph glyph-name="gcircumflex" unicode="&#x11d;" horiz-adv-x="467" 
d="M447 578l-93 130l-174 -130h-6l175 172h42l65 -172h-9zM171 0q114 0 187 254l44 153q-28 66 -97 66q-67 0 -125.5 -68.5t-83.5 -168.5q-14 -56 -14 -114q0 -55 23.5 -88.5t65.5 -33.5zM98 -244q-57 0 -91 25t-34 65q0 23 12.5 38.5t33.5 15.5q18 0 28.5 -10t10.5 -26
q0 -18 -15.5 -31.5t-15.5 -23.5q0 -16 19.5 -27t49.5 -11q61 0 103 38.5t68 129.5l11 39q9 32 38.5 115.5t51.5 154.5q-40 -133 -88 -199t-111 -66q-55 0 -94 40.5t-39 118.5q0 134 82.5 240t185.5 106q80 0 124 -56l43 56h9l-46 -123l-120 -410q-59 -199 -216 -199z" />
    <glyph glyph-name="Gbreve" unicode="&#x11e;" horiz-adv-x="682" 
d="M607 869q-44 -125 -161 -125q-53 0 -78.5 32.5t-17.5 92.5h4q3 -81 103 -81q98 0 146 81h4zM511 -13l-7 83q-40 -40 -97 -62.5t-116 -22.5q-107 0 -167.5 67.5t-60.5 188.5t50 225t139 166t196 62q132 0 183 -101l53 96h10l-73 -277h-18q6 54 1.5 102.5t-18.5 85t-49 58
t-89 21.5q-77 0 -141.5 -43t-104.5 -110t-62 -144.5t-22 -151.5q0 -106 42.5 -168t129.5 -62t148.5 50t78.5 118l13 51q7 30 -4.5 46t-53.5 20l-71 7l3 13q52 -1 157 -1q104 0 156 1l-3 -13l-58 -7q-38 -4 -55.5 -18.5t-25.5 -44.5l-26 -97l-29 -138h-9z" />
    <glyph glyph-name="gbreve" unicode="&#x11f;" horiz-adv-x="467" 
d="M472 730q-44 -129 -157 -129t-96 129h4q1 -37 25 -61t76 -24q96 0 144 85h4zM171 0q114 0 187 254l44 153q-28 66 -97 66q-67 0 -125.5 -68.5t-83.5 -168.5q-14 -56 -14 -114q0 -55 23.5 -88.5t65.5 -33.5zM98 -244q-57 0 -91 25t-34 65q0 23 12.5 38.5t33.5 15.5
q18 0 28.5 -10t10.5 -26q0 -18 -15.5 -31.5t-15.5 -23.5q0 -16 19.5 -27t49.5 -11q61 0 103 38.5t68 129.5l11 39q9 32 38.5 115.5t51.5 154.5q-40 -133 -88 -199t-111 -66q-55 0 -94 40.5t-39 118.5q0 134 82.5 240t185.5 106q80 0 124 -56l43 56h9l-46 -123l-120 -410
q-59 -199 -216 -199z" />
    <glyph glyph-name="Gdotaccent" unicode="&#x120;" horiz-adv-x="682" 
d="M512 787q0 -19 -12.5 -31.5t-30.5 -12.5t-30.5 12t-12.5 31t12.5 31.5t30.5 12.5t30.5 -12t12.5 -31zM511 -13l-7 83q-40 -40 -97 -62.5t-116 -22.5q-107 0 -167.5 67.5t-60.5 188.5t50 225t139 166t196 62q132 0 183 -101l53 96h10l-73 -277h-18q6 54 1.5 102.5
t-18.5 85t-49 58t-89 21.5q-77 0 -141.5 -43t-104.5 -110t-62 -144.5t-22 -151.5q0 -106 42.5 -168t129.5 -62t148.5 50t78.5 118l13 51q7 30 -4.5 46t-53.5 20l-71 7l3 13q52 -1 157 -1q104 0 156 1l-3 -13l-58 -7q-38 -4 -55.5 -18.5t-25.5 -44.5l-26 -97l-29 -138h-9z
" />
    <glyph glyph-name="gdotaccent" unicode="&#x121;" horiz-adv-x="467" 
d="M368 660q0 -19 -12.5 -31.5t-30.5 -12.5t-30.5 12t-12.5 31t12.5 31.5t30.5 12.5t30.5 -12t12.5 -31zM171 0q114 0 187 254l44 153q-28 66 -97 66q-67 0 -125.5 -68.5t-83.5 -168.5q-14 -56 -14 -114q0 -55 23.5 -88.5t65.5 -33.5zM98 -244q-57 0 -91 25t-34 65
q0 23 12.5 38.5t33.5 15.5q18 0 28.5 -10t10.5 -26q0 -18 -15.5 -31.5t-15.5 -23.5q0 -16 19.5 -27t49.5 -11q61 0 103 38.5t68 129.5l11 39q9 32 38.5 115.5t51.5 154.5q-40 -133 -88 -199t-111 -66q-55 0 -94 40.5t-39 118.5q0 134 82.5 240t185.5 106q80 0 124 -56l43 56
h9l-46 -123l-120 -410q-59 -199 -216 -199z" />
    <glyph glyph-name="Gcommaaccent" unicode="&#x122;" horiz-adv-x="682" 
d="M511 -13l-7 83q-40 -40 -97 -62.5t-116 -22.5q-107 0 -167.5 67.5t-60.5 188.5t50 225t139 166t196 62q132 0 183 -101l53 96h10l-73 -277h-18q6 54 1.5 102.5t-18.5 85t-49 58t-89 21.5q-77 0 -141.5 -43t-104.5 -110t-62 -144.5t-22 -151.5q0 -106 42.5 -168t129.5 -62
t148.5 50t78.5 118l13 51q7 30 -4.5 46t-53.5 20l-71 7l3 13q52 -1 157 -1q104 0 156 1l-3 -13l-58 -7q-38 -4 -55.5 -18.5t-25.5 -44.5l-26 -97l-29 -138h-9zM213 -245l-8 14q41 19 65 46.5t23 56.5q-9 -19 -32 -19q-16 0 -28.5 11.5t-12.5 28.5q0 19 13 32t32 13
q24 0 37.5 -16.5t13.5 -40.5q0 -41 -29 -73.5t-74 -52.5z" />
    <glyph glyph-name="gcommaaccent" unicode="&#x123;" horiz-adv-x="467" 
d="M394 768l8 -14q-41 -19 -65 -46.5t-23 -56.5q9 19 32 19q16 0 28.5 -11.5t12.5 -28.5q0 -20 -12.5 -32.5t-32.5 -12.5q-24 0 -37.5 16.5t-13.5 40.5q0 41 29 73.5t74 52.5zM171 0q114 0 187 254l44 153q-28 66 -97 66q-67 0 -125.5 -68.5t-83.5 -168.5q-14 -56 -14 -114
q0 -55 23.5 -88.5t65.5 -33.5zM98 -244q-57 0 -91 25t-34 65q0 23 12.5 38.5t33.5 15.5q18 0 28.5 -10t10.5 -26q0 -18 -15.5 -31.5t-15.5 -23.5q0 -16 19.5 -27t49.5 -11q61 0 103 38.5t68 129.5l11 39q9 32 38.5 115.5t51.5 154.5q-40 -133 -88 -199t-111 -66
q-55 0 -94 40.5t-39 118.5q0 134 82.5 240t185.5 106q80 0 124 -56l43 56h9l-46 -123l-120 -410q-59 -199 -216 -199z" />
    <glyph glyph-name="Hcircumflex" unicode="&#x124;" horiz-adv-x="739" 
d="M635 744l-114 91l-161 -91h-5l158 125h51l80 -125h-9zM667 13l-3 -13q-25 0 -74.5 0.5t-74.5 0.5t-74.5 -0.5t-74.5 -0.5l3 13l65 7q38 4 55 18t25 43l68 256h-362l-68 -256q-8 -29 1 -43t47 -18l61 -7l-3 -13q-25 0 -74.5 0.5t-74.5 0.5t-74.5 -0.5t-74.5 -0.5l3 13
l65 7q38 4 55 18t25 43l138 517q8 29 -1 43t-47 18l-61 7l3 13q50 -1 149 -1t149 1l-3 -13l-65 -7q-38 -4 -55 -18t-25 -43l-64 -240h362l64 240q8 29 -1 43t-47 18l-61 7l3 13q50 -1 149 -1t149 1l-3 -13l-65 -7q-38 -4 -55 -18t-25 -43l-138 -517q-8 -29 1 -43t47 -18z
" />
    <glyph glyph-name="hcircumflex" unicode="&#x125;" horiz-adv-x="519" 
d="M260 885l-161 -91h-5l158 125h51l80 -125h-9zM505 152q-35 -88 -62.5 -125t-72.5 -37q-32 0 -52.5 18t-20.5 51q0 36 24 102l58 154q21 54 21 86q0 29 -16 47.5t-49 18.5q-38 0 -75.5 -30.5t-67.5 -80.5t-53 -104.5t-40 -112.5l-41 -139q-11 1 -21 1l-22 -1l197 677
q9 28 2 39t-37 14l-57 6v10l157 27l11 -6q-19 -46 -33 -94l-50 -171q-26 -90 -63 -199t-53 -161q104 346 255 346q45 0 71 -25t26 -63q0 -40 -24 -104l-58 -152q-22 -57 -22 -87q0 -47 42 -47q31 0 56 35.5t54 111.5z" />
    <glyph glyph-name="Hbar" unicode="&#x126;" horiz-adv-x="739" 
d="M588 358l36 134h-362l-36 -134h362zM667 13l-3 -13q-25 0 -74.5 0.5t-74.5 0.5t-74.5 -0.5t-74.5 -0.5l3 13l65 7q38 4 55 18t25 43l68 256h-362l-68 -256q-8 -29 1 -43t47 -18l61 -7l-3 -13q-25 0 -74.5 0.5t-74.5 0.5t-74.5 -0.5t-74.5 -0.5l3 13l65 7q38 4 55 18
t25 43l110 411h-106l5 21h106l23 85q8 29 -1 43t-47 18l-61 7l3 13q50 -1 149 -1t149 1l-3 -13l-65 -7q-38 -4 -55 -18t-25 -43l-23 -85h362l23 85q8 29 -1 43t-47 18l-61 7l3 13q50 -1 149 -1t149 1l-3 -13l-65 -7q-38 -4 -55 -18t-25 -43l-23 -85h102l-5 -21h-102
l-110 -411q-8 -29 1 -43t47 -18z" />
    <glyph glyph-name="hbar" unicode="&#x127;" horiz-adv-x="519" 
d="M505 152q-35 -88 -62.5 -125t-72.5 -37q-32 0 -52.5 18t-20.5 51q0 36 24 102l58 154q21 54 21 86q0 29 -16 47.5t-49 18.5q-38 0 -75.5 -30.5t-67.5 -80.5t-53 -104.5t-40 -112.5l-41 -139q-11 1 -21 1l-22 -1l175 600h-99l5 21h100l16 56q9 28 2 39t-37 14l-57 6v10
l157 27l11 -6q-19 -46 -33 -94l-15 -52h161l-5 -21h-162l-29 -98q-26 -90 -63 -199t-53 -161q104 346 255 346q45 0 71 -25t26 -63q0 -40 -24 -104l-58 -152q-22 -57 -22 -87q0 -47 42 -47q31 0 56 35.5t54 111.5z" />
    <glyph glyph-name="Itilde" unicode="&#x128;" horiz-adv-x="333" 
d="M186 747l-4 -1q-3 13 -3 26q0 31 15 56t52 25q26 0 72 -33t66 -33q21 0 33 10.5t18 41.5h4q-13 -89 -73 -89q-27 0 -72.5 33t-64.5 33q-43 0 -43 -59v-10zM261 13l-3 -13q-25 0 -74.5 0.5t-74.5 0.5t-74.5 -0.5t-74.5 -0.5l3 13l65 7q38 4 55 18t25 43l138 517
q8 29 -1 43t-47 18l-61 7l3 13q50 -1 149 -1t149 1l-3 -13l-65 -7q-38 -4 -55 -18t-25 -43l-138 -517q-8 -29 1 -43t47 -18z" />
    <glyph glyph-name="itilde" unicode="&#x129;" horiz-adv-x="295" 
d="M100 611l-4 -1q-3 14 -3 26q0 31 15 56t52 25q26 0 72 -33t66 -33q21 0 33 10.5t18 41.5h4q-13 -89 -73 -89q-27 0 -72.5 33t-64.5 33q-43 0 -43 -59v-10zM276 152q-34 -86 -62.5 -124t-74.5 -38q-31 0 -51 18t-20 51q0 32 26 97l74 185q21 51 21 76q0 46 -42 46
q-31 0 -56 -35.5t-54 -111.5l-16 5q34 86 62.5 124t74.5 38q32 0 51.5 -17.5t19.5 -50.5q0 -31 -26 -96l-74 -185q-21 -51 -21 -76q0 -48 42 -48q31 0 56 35.5t54 111.5z" />
    <glyph glyph-name="Imacron" unicode="&#x12a;" horiz-adv-x="333" 
d="M172 761l5 26q54 -3 134 -3q81 0 134 3l-5 -26q-52 3 -133 3t-135 -3zM261 13l-3 -13q-25 0 -74.5 0.5t-74.5 0.5t-74.5 -0.5t-74.5 -0.5l3 13l65 7q38 4 55 18t25 43l138 517q8 29 -1 43t-47 18l-61 7l3 13q50 -1 149 -1t149 1l-3 -13l-65 -7q-38 -4 -55 -18t-25 -43
l-138 -517q-8 -29 1 -43t47 -18z" />
    <glyph glyph-name="imacron" unicode="&#x12b;" horiz-adv-x="295" 
d="M92 647l5 26q54 -3 133 -3q80 0 133 3l-5 -26q-52 3 -132 3t-134 -3zM276 152q-34 -86 -62.5 -124t-74.5 -38q-31 0 -51 18t-20 51q0 32 26 97l74 185q21 51 21 76q0 46 -42 46q-31 0 -56 -35.5t-54 -111.5l-16 5q34 86 62.5 124t74.5 38q32 0 51.5 -17.5t19.5 -50.5
q0 -31 -26 -96l-74 -185q-21 -51 -21 -76q0 -48 42 -48q31 0 56 35.5t54 111.5z" />
    <glyph glyph-name="Ibreve" unicode="&#x12c;" horiz-adv-x="333" 
d="M456 869q-44 -125 -161 -125q-53 0 -78.5 32.5t-17.5 92.5h4q3 -81 103 -81q98 0 146 81h4zM261 13l-3 -13q-25 0 -74.5 0.5t-74.5 0.5t-74.5 -0.5t-74.5 -0.5l3 13l65 7q38 4 55 18t25 43l138 517q8 29 -1 43t-47 18l-61 7l3 13q50 -1 149 -1t149 1l-3 -13l-65 -7
q-38 -4 -55 -18t-25 -43l-138 -517q-8 -29 1 -43t47 -18z" />
    <glyph glyph-name="ibreve" unicode="&#x12d;" horiz-adv-x="295" 
d="M366 730q-44 -129 -157 -129t-96 129h4q1 -37 25 -61t76 -24q96 0 144 85h4zM276 152q-34 -86 -62.5 -124t-74.5 -38q-31 0 -51 18t-20 51q0 32 26 97l74 185q21 51 21 76q0 46 -42 46q-31 0 -56 -35.5t-54 -111.5l-16 5q34 86 62.5 124t74.5 38q32 0 51.5 -17.5
t19.5 -50.5q0 -31 -26 -96l-74 -185q-21 -51 -21 -76q0 -48 42 -48q31 0 56 35.5t54 111.5z" />
    <glyph glyph-name="Iogonek" unicode="&#x12e;" horiz-adv-x="333" 
d="M75 -241q-33 0 -53.5 17t-20.5 47q0 38 27 73.5t70 61.5q56 36 124 48q-50 -5 -113 -5q-25 0 -74.5 -0.5t-74.5 -0.5l3 13l65 7q38 4 55 18t25 43l138 517q8 29 -1 43t-47 18l-61 7l3 13q50 -1 149 -1t149 1l-3 -13l-65 -7q-38 -4 -55 -18t-25 -43l-138 -517
q-8 -29 1 -43t47 -18l61 -7l-3 -13q-70 0 -142.5 -49.5t-72.5 -120.5q0 -21 12 -34t33 -13q60 0 122 98l14 -8q-33 -55 -67 -84.5t-82 -29.5z" />
    <glyph glyph-name="iogonek" unicode="&#x12f;" horiz-adv-x="295" 
d="M284 680q0 -19 -13 -32t-33 -13t-33 13t-13 32q0 20 13 33t33 13t33 -13t13 -33zM62 -241q-30 0 -50 18t-20 48q0 36 24.5 66t71.5 64q27 20 68 42q-8 -3 -17 -3q-31 0 -51 16t-20 49q0 32 26 97l74 185q21 51 21 76q0 46 -42 46q-31 0 -56 -35.5t-54 -111.5l-16 5
q34 86 62.5 124t74.5 38q32 0 51.5 -17.5t19.5 -50.5q0 -31 -26 -96l-74 -185q-21 -51 -21 -76q0 -48 42 -48q31 0 56 35.5t54 111.5l16 -5q-27 -68 -47 -102t-49 -50q-47 -26 -82 -55q-68 -55 -68 -116q0 -20 12 -33.5t33 -13.5q61 0 123 98l13 -7q-68 -114 -149 -114z" />
    <glyph glyph-name="Idotaccent" unicode="&#x130;" horiz-adv-x="333" 
d="M344 787q0 -19 -12.5 -31.5t-30.5 -12.5t-30.5 12t-12.5 31t12.5 31.5t30.5 12.5t30.5 -12t12.5 -31zM261 13l-3 -13q-25 0 -74.5 0.5t-74.5 0.5t-74.5 -0.5t-74.5 -0.5l3 13l65 7q38 4 55 18t25 43l138 517q8 29 -1 43t-47 18l-61 7l3 13q50 -1 149 -1t149 1l-3 -13
l-65 -7q-38 -4 -55 -18t-25 -43l-138 -517q-8 -29 1 -43t47 -18z" />
    <glyph glyph-name="dotlessi" unicode="&#x131;" horiz-adv-x="295" 
d="M276 152q-34 -86 -62.5 -124t-74.5 -38q-31 0 -51 18t-20 51q0 32 26 97l74 185q21 51 21 76q0 46 -42 46q-31 0 -56 -35.5t-54 -111.5l-16 5q34 86 62.5 124t74.5 38q32 0 51.5 -17.5t19.5 -50.5q0 -31 -26 -96l-74 -185q-21 -51 -21 -76q0 -48 42 -48q31 0 56 35.5
t54 111.5z" />
    <glyph glyph-name="Jcircumflex" unicode="&#x134;" horiz-adv-x="497" 
d="M488 835l-161 -91h-5l158 125h51l80 -125h-9zM368 216q-60 -231 -248 -231q-66 0 -102.5 35.5t-36.5 92.5q0 32 14 52.5t40 20.5q17 0 27 -10.5t10 -25.5q0 -30 -36 -37q-19 -4 -19 -27q0 -35 24.5 -60.5t80.5 -25.5q144 0 195 188l105 394q10 39 -3 56t-69 23l-47 5
l3 13q52 -1 156 -1q103 0 155 1l-3 -13l-64 -7q-40 -4 -57.5 -19.5t-27.5 -53.5z" />
    <glyph glyph-name="jcircumflex" unicode="&#x135;" horiz-adv-x="310" 
d="M242 708l-174 -130h-6l175 172h42l65 -172h-9zM148 -33q-33 -124 -80.5 -167.5t-108.5 -43.5q-47 0 -75.5 23.5t-28.5 59.5q0 23 13 38t33 15q17 0 28 -10.5t11 -25.5q0 -19 -16 -33q-15 -13 -15 -23q0 -12 14 -20.5t37 -8.5q49 0 81 37t57 131l96 357q21 76 21 121
q0 21 -12 33.5t-33 12.5q-31 0 -58 -36.5t-55 -110.5l-16 5q34 85 64 123.5t76 38.5q32 0 53 -18.5t21 -51.5q0 -45 -21 -126z" />
    <glyph glyph-name="Kcommaaccent" unicode="&#x136;" horiz-adv-x="695" 
d="M261 13l-3 -13q-25 0 -74.5 0.5t-74.5 0.5t-74.5 -0.5t-74.5 -0.5l3 13l65 7q38 4 55 18t25 43l138 517q8 29 -1 43t-47 18l-61 7l3 13q50 -1 149 -1t149 1l-3 -13l-65 -7q-38 -4 -55 -18t-25 -43l-138 -517q-8 -29 1 -43t47 -18zM239 362l250 193q52 40 69 56.5t17 29.5
q0 16 -53 22l-30 3l3 13q47 -1 141 -1t141 1l-2 -13l-31 -4q-61 -8 -108.5 -31t-133.5 -89l-220 -168l166 -240q42 -62 77 -85.5t96 -31.5l30 -4l-3 -13q-27 0 -80.5 0.5t-80.5 0.5t-81 -0.5t-81 -0.5l3 13l50 5q60 6 60 36q0 18 -27 58zM230 -245l-8 14q41 19 65 46.5
t23 56.5q-9 -19 -32 -19q-16 0 -28.5 11.5t-12.5 28.5q0 19 12.5 32t32.5 13q24 0 37.5 -16.5t13.5 -40.5q0 -41 -29 -73.5t-74 -52.5z" />
    <glyph glyph-name="kcommaaccent" unicode="&#x137;" horiz-adv-x="467" 
d="M15 0l197 677q9 28 2 39t-37 14l-57 6v10l157 27l11 -6q-19 -46 -33 -94l-197 -673q-10 1 -21 1zM320 -9q-36 0 -57 20t-21 59q0 28 8 75t8 66q0 46 -29 58q-25 -18 -56 -18q-11 0 -19 2q-5 32 41 32q13 0 25 -3q26 22 56 80q34 64 63 95t68 31q30 0 45 -14.5t15 -37.5
q0 -21 -12.5 -33t-30.5 -12t-27 10.5t-9 25.5q0 4 0.5 10t0.5 9q0 11 -12 11q-14 0 -37.5 -28.5t-48.5 -75.5q-30 -56 -53 -75q54 -22 54 -95q0 -17 -5 -54.5t-5 -53.5q0 -63 48 -63q62 0 105 143l17 -4q-26 -82 -55.5 -121t-76.5 -39zM104 -245l-8 14q41 19 65 46.5
t23 56.5q-9 -19 -32 -19q-16 0 -28.5 11.5t-12.5 28.5q0 19 12.5 32t32.5 13q24 0 37.5 -16.5t13.5 -40.5q0 -41 -29 -73.5t-74 -52.5z" />
    <glyph glyph-name="Lacute" unicode="&#x139;" horiz-adv-x="621" 
d="M240 744h-6q85 65 137 125h74v-2q-84 -66 -205 -123zM-40 0l3 13l65 7q38 4 55 18t25 43l138 517q8 29 -1 43t-47 18l-61 7l3 13q52 -1 156 -1q103 0 155 1l-3 -13l-72 -7q-41 -4 -59.5 -21t-28.5 -51l-134 -499q-10 -37 2 -53.5t50 -16.5h144q45 0 72 7t53.5 33.5
t48.5 68.5t55 121h15l-77 -248h-557z" />
    <glyph glyph-name="lacute" unicode="&#x13a;" horiz-adv-x="281" 
d="M182 794h-6q85 65 137 125h74v-2q-84 -66 -205 -123zM262 152q-34 -86 -62.5 -124t-72.5 -38q-30 0 -50 19.5t-20 55.5q0 28 15 77l155 534q9 29 2 40t-37 14l-57 6v10l157 27l11 -6q-20 -50 -33 -94l-160 -547q-12 -40 -12 -68q0 -48 38 -48q31 0 56 35.5t54 111.5z" />
    <glyph glyph-name="Lcommaaccent" unicode="&#x13b;" horiz-adv-x="621" 
d="M-40 0l3 13l65 7q38 4 55 18t25 43l138 517q8 29 -1 43t-47 18l-61 7l3 13q52 -1 156 -1q103 0 155 1l-3 -13l-72 -7q-41 -4 -59.5 -21t-28.5 -51l-134 -499q-10 -37 2 -53.5t50 -16.5h144q45 0 72 7t53.5 33.5t48.5 68.5t55 121h15l-77 -248h-557zM220 -245l-8 14
q41 19 65 46.5t23 56.5q-9 -19 -32 -19q-16 0 -28.5 11.5t-12.5 28.5q0 19 12.5 32t32.5 13q24 0 37.5 -16.5t13.5 -40.5q0 -41 -29 -73.5t-74 -52.5z" />
    <glyph glyph-name="lcommaaccent" unicode="&#x13c;" horiz-adv-x="281" 
d="M262 152q-34 -86 -62.5 -124t-72.5 -38q-30 0 -50 19.5t-20 55.5q0 28 15 77l155 534q9 29 2 40t-37 14l-57 6v10l157 27l11 -6q-20 -50 -33 -94l-160 -547q-12 -40 -12 -68q0 -48 38 -48q31 0 56 35.5t54 111.5zM52 -245l-8 14q41 19 65 46.5t23 56.5q-9 -19 -32 -19
q-16 0 -28.5 11.5t-12.5 28.5q0 19 12.5 32t32.5 13q24 0 37.5 -16.5t13.5 -40.5q0 -41 -29 -73.5t-74 -52.5z" />
    <glyph glyph-name="Ldot" unicode="&#x13f;" horiz-adv-x="621" 
d="M-40 0l3 13l65 7q38 4 55 18t25 43l138 517q8 29 -1 43t-47 18l-61 7l3 13q52 -1 156 -1q103 0 155 1l-3 -13l-72 -7q-41 -4 -59.5 -21t-28.5 -51l-134 -499q-10 -37 2 -53.5t50 -16.5h144q45 0 72 7t53.5 33.5t48.5 68.5t55 121h15l-77 -248h-557zM527 357
q-18 0 -30.5 12t-12.5 31t12.5 31.5t30.5 12.5t30.5 -12t12.5 -31t-12.5 -31.5t-30.5 -12.5z" />
    <glyph glyph-name="ldot" unicode="&#x140;" horiz-adv-x="293" 
d="M262 152q-34 -86 -62.5 -124t-72.5 -38q-30 0 -50 19.5t-20 55.5q0 28 15 77l155 534q9 29 2 40t-37 14l-57 6v10l157 27l11 -6q-20 -50 -33 -94l-160 -547q-12 -40 -12 -68q0 -48 38 -48q31 0 56 35.5t54 111.5zM313 346q-18 0 -30.5 12t-12.5 31t12.5 31.5t30.5 12.5
t30.5 -12t12.5 -31t-12.5 -31.5t-30.5 -12.5z" />
    <glyph glyph-name="Lslash" unicode="&#x141;" horiz-adv-x="621" 
d="M517 0h-557l3 13l65 7q38 4 55 18t25 43l56 209l-130 -65l7 27l130 64l75 282q8 29 -1 43t-47 18l-61 7l3 13q52 -1 156 -1q103 0 155 1l-3 -13l-72 -7q-41 -4 -59.5 -21t-28.5 -51l-66 -247l231 119l-7 -27l-231 -118l-61 -226q-10 -37 2 -53.5t50 -16.5h144q45 0 72 7
t53.5 33.5t48.5 68.5t55 121h15z" />
    <glyph glyph-name="lslash" unicode="&#x142;" horiz-adv-x="281" 
d="M127 -10q-30 0 -50 19.5t-20 55.5q0 28 15 77l67 230l-118 -51l9 26l116 50l81 279q9 29 2 40t-37 14l-57 6v10l157 27l11 -6q-20 -50 -33 -94l-75 -255l114 49l-9 -26l-112 -49l-78 -266q-12 -40 -12 -68q0 -48 38 -48q31 0 56 35.5t54 111.5l16 -5q-34 -86 -62.5 -124
t-72.5 -38z" />
    <glyph glyph-name="Nacute" unicode="&#x143;" horiz-adv-x="749" 
d="M458 744h-6q85 65 137 125h74v-2q-84 -66 -205 -123zM559 -4h-34l-244 645l-133 -500q-20 -70 -9 -93.5t72 -30.5l33 -4l-3 -13q-23 0 -70 0.5t-70 0.5t-70.5 -0.5t-70.5 -0.5l3 13l34 4q62 8 85 30.5t43 97.5l121 453q8 29 -1 43t-47 18l-61 7l3 13h172l238 -632
l131 491q20 70 9 93.5t-72 30.5l-33 4l3 13q47 -1 141 -1q93 0 140 1l-3 -13l-34 -4q-62 -8 -85 -30.5t-43 -97.5z" />
    <glyph glyph-name="nacute" unicode="&#x144;" horiz-adv-x="571" 
d="M317 578h-6q91 93 139 172h72v-3q-82 -91 -205 -169zM557 152q-35 -88 -62.5 -125t-72.5 -37q-32 0 -52.5 18t-20.5 51q0 36 24 102l58 154q21 54 21 86q0 29 -16.5 47.5t-49.5 18.5q-66 0 -128.5 -96t-104.5 -233l-42 -138q-10 1 -21 1l-22 -1l89 297q28 92 28 120
q0 46 -42 46q-31 0 -56 -35t-55 -112l-16 5q37 90 64 126t73 36q31 0 50 -17.5t19 -50.5q0 -12 -3 -28t-11 -42l-15.5 -50l-22.5 -69.5l-27 -82.5q110 345 252 345q45 0 71.5 -24.5t26.5 -63.5q0 -40 -24 -104l-58 -152q-22 -57 -22 -87q0 -47 42 -47q31 0 56 35.5t54 111.5
z" />
    <glyph glyph-name="Ncommaaccent" unicode="&#x145;" horiz-adv-x="749" 
d="M559 -4h-34l-244 645l-133 -500q-20 -70 -9 -93.5t72 -30.5l33 -4l-3 -13q-23 0 -70 0.5t-70 0.5t-70.5 -0.5t-70.5 -0.5l3 13l34 4q62 8 85 30.5t43 97.5l121 453q8 29 -1 43t-47 18l-61 7l3 13h172l238 -632l131 491q20 70 9 93.5t-72 30.5l-33 4l3 13q47 -1 141 -1
q93 0 140 1l-3 -13l-34 -4q-62 -8 -85 -30.5t-43 -97.5zM268 -245l-8 14q41 19 65 46.5t23 56.5q-9 -19 -32 -19q-16 0 -28.5 11.5t-12.5 28.5q0 19 12.5 32t32.5 13q24 0 37.5 -16.5t13.5 -40.5q0 -41 -29 -73.5t-74 -52.5z" />
    <glyph glyph-name="ncommaaccent" unicode="&#x146;" horiz-adv-x="571" 
d="M557 152q-35 -88 -62.5 -125t-72.5 -37q-32 0 -52.5 18t-20.5 51q0 36 24 102l58 154q21 54 21 86q0 29 -16.5 47.5t-49.5 18.5q-66 0 -128.5 -96t-104.5 -233l-42 -138q-10 1 -21 1l-22 -1l89 297q28 92 28 120q0 46 -42 46q-31 0 -56 -35t-55 -112l-16 5q37 90 64 126
t73 36q31 0 50 -17.5t19 -50.5q0 -12 -3 -28t-11 -42l-15.5 -50l-22.5 -69.5l-27 -82.5q110 345 252 345q45 0 71.5 -24.5t26.5 -63.5q0 -40 -24 -104l-58 -152q-22 -57 -22 -87q0 -47 42 -47q31 0 56 35.5t54 111.5zM174 -245l-8 14q41 19 65 46.5t23 56.5q-9 -19 -32 -19
q-16 0 -28.5 11.5t-12.5 28.5q0 19 12.5 32t32.5 13q24 0 37.5 -16.5t13.5 -40.5q0 -41 -29 -73.5t-74 -52.5z" />
    <glyph glyph-name="Ncaron" unicode="&#x147;" horiz-adv-x="749" 
d="M530 744h-51l-80 125h9l114 -91l161 91h5zM559 -4h-34l-244 645l-133 -500q-20 -70 -9 -93.5t72 -30.5l33 -4l-3 -13q-23 0 -70 0.5t-70 0.5t-70.5 -0.5t-70.5 -0.5l3 13l34 4q62 8 85 30.5t43 97.5l121 453q8 29 -1 43t-47 18l-61 7l3 13h172l238 -632l131 491
q20 70 9 93.5t-72 30.5l-33 4l3 13q47 -1 141 -1q93 0 140 1l-3 -13l-34 -4q-62 -8 -85 -30.5t-43 -97.5z" />
    <glyph glyph-name="ncaron" unicode="&#x148;" horiz-adv-x="571" 
d="M389 578h-42l-65 172h9l93 -130l174 130h6zM557 152q-35 -88 -62.5 -125t-72.5 -37q-32 0 -52.5 18t-20.5 51q0 36 24 102l58 154q21 54 21 86q0 29 -16.5 47.5t-49.5 18.5q-66 0 -128.5 -96t-104.5 -233l-42 -138q-10 1 -21 1l-22 -1l89 297q28 92 28 120q0 46 -42 46
q-31 0 -56 -35t-55 -112l-16 5q37 90 64 126t73 36q31 0 50 -17.5t19 -50.5q0 -12 -3 -28t-11 -42l-15.5 -50l-22.5 -69.5l-27 -82.5q110 345 252 345q45 0 71.5 -24.5t26.5 -63.5q0 -40 -24 -104l-58 -152q-22 -57 -22 -87q0 -47 42 -47q31 0 56 35.5t54 111.5z" />
    <glyph glyph-name="Omacron" unicode="&#x14c;" horiz-adv-x="667" 
d="M327 761l5 26q54 -3 134 -3q82 0 134 3l-5 -26q-53 3 -133 3q-81 0 -135 -3zM672 434q0 -184 -112 -316.5t-262 -132.5q-106 0 -170.5 70t-64.5 190q0 184 112 316.5t262 132.5q106 0 170.5 -70t64.5 -190zM300 0q77 0 140 49q82 63 130 175.5t48 225.5q0 109 -45.5 169
t-137.5 60q-77 0 -140 -49q-82 -63 -130 -175.5t-48 -225.5q0 -109 45.5 -169t137.5 -60z" />
    <glyph glyph-name="omacron" unicode="&#x14d;" horiz-adv-x="472" 
d="M211 647l5 26q54 -3 133 -3q81 0 133 3l-5 -26q-53 3 -132 3q-80 0 -134 -3zM447 319q0 -134 -79 -234t-178 -100q-66 0 -108 44t-42 125q0 134 79 234t178 100q67 0 108.5 -44t41.5 -125zM187 0q53 0 96.5 38.5t67.5 89t37 109.5q13 58 13 104q0 132 -101 132
q-53 0 -96.5 -38.5t-67.5 -89t-37 -109.5q-13 -58 -13 -104q0 -132 101 -132z" />
    <glyph glyph-name="Obreve" unicode="&#x14e;" horiz-adv-x="667" 
d="M621 869q-44 -125 -161 -125q-53 0 -78.5 32.5t-17.5 92.5h4q3 -81 103 -81q98 0 146 81h4zM672 434q0 -184 -112 -316.5t-262 -132.5q-106 0 -170.5 70t-64.5 190q0 184 112 316.5t262 132.5q106 0 170.5 -70t64.5 -190zM117 229q0 -109 45.5 -169t137.5 -60
q77 0 140 49q82 63 130 175.5t48 225.5q0 109 -45.5 169t-137.5 60q-77 0 -140 -49q-82 -63 -130 -175.5t-48 -225.5z" />
    <glyph glyph-name="obreve" unicode="&#x14f;" horiz-adv-x="472" 
d="M475 730q-43 -129 -157 -129q-113 0 -96 129h4q1 -37 25 -61t76 -24q96 0 144 85h4zM447 319q0 -134 -79 -234t-178 -100q-66 0 -108 44t-42 125q0 134 79 234t178 100q67 0 108.5 -44t41.5 -125zM86 132q0 -132 101 -132q53 0 96.5 38.5t67.5 89t37 109.5q13 58 13 104
q0 132 -101 132q-53 0 -96.5 -38.5t-67.5 -89t-37 -109.5q-13 -58 -13 -104z" />
    <glyph glyph-name="Ohungarumlaut" unicode="&#x150;" horiz-adv-x="667" 
d="M459 744h-6q85 65 137 125h74v-2q-84 -66 -205 -123zM321 744h-6q85 65 137 125h74v-2q-84 -66 -205 -123zM672 434q0 -184 -112 -316.5t-262 -132.5q-106 0 -170.5 70t-64.5 190q0 184 112 316.5t262 132.5q106 0 170.5 -70t64.5 -190zM117 229q0 -109 45.5 -169
t137.5 -60q77 0 140 49q82 63 130 175.5t48 225.5q0 109 -45.5 169t-137.5 60q-77 0 -140 -49q-82 -63 -130 -175.5t-48 -225.5z" />
    <glyph glyph-name="ohungarumlaut" unicode="&#x151;" horiz-adv-x="472" 
d="M346 578h-6q91 93 139 172h72v-3q-82 -91 -205 -169zM211 578h-6q91 93 139 172h72v-3q-82 -91 -205 -169zM447 319q0 -134 -79 -234t-178 -100q-66 0 -108 44t-42 125q0 134 79 234t178 100q67 0 108.5 -44t41.5 -125zM187 0q53 0 96.5 38.5t67.5 89t37 109.5
q13 58 13 104q0 132 -101 132q-53 0 -96.5 -38.5t-67.5 -89t-37 -109.5q-13 -58 -13 -104q0 -132 101 -132z" />
    <glyph glyph-name="OE" unicode="&#x152;" horiz-adv-x="975" 
d="M117 229q0 -109 45.5 -169t137.5 -60q74 0 114.5 36.5t60.5 112.5l95 355q25 94 -5.5 134.5t-129.5 40.5q-77 0 -140 -49q-82 -63 -130 -175.5t-48 -225.5zM396 0q-58 -15 -98 -15q-106 0 -170.5 70t-64.5 190q0 184 112 316.5t262 132.5q54 0 111 -15h446l-40 -217h-15
q3 53 4 80.5t-1.5 53.5t-7.5 36t-18 18.5t-28 9.5t-43 1h-189l-81 -302h104q49 0 75.5 29.5t64.5 119.5h14l-43 -161l-42 -161h-13q12 89 2.5 122t-56.5 33h-110l-68 -253q-10 -37 1.5 -53.5t50.5 -16.5h133q84 0 123 38.5t99 180.5h15l-75 -237h-454z" />
    <glyph glyph-name="oe" unicode="&#x153;" horiz-adv-x="776" 
d="M732 137q-88 -152 -207 -152q-62 0 -97 35t-41 98q-36 -62 -88.5 -97.5t-108.5 -35.5q-66 0 -108 44t-42 125q0 134 79 234t178 100q60 0 98 -35.5t45 -104.5q37 64 90.5 102t116.5 38q44 0 75.5 -21.5t31.5 -59.5q0 -121 -320 -186q-9 -40 -9 -77q0 -63 28 -99t79 -36
q57 0 100.5 33t85.5 103zM86 132q0 -132 101 -132q53 0 96.5 38.5t67.5 89t37 109.5q13 58 13 104q0 132 -101 132q-53 0 -96.5 -38.5t-67.5 -89t-37 -109.5q-13 -58 -13 -104zM437 235l10 2q127 26 193 68q71 45 71 104q0 30 -17 47t-48 17q-71 0 -128 -71t-81 -167z" />
    <glyph glyph-name="Racute" unicode="&#x154;" horiz-adv-x="636" 
d="M391 744h-6q85 65 137 125h74v-2q-84 -66 -205 -123zM509 -10q-53 0 -71 33t-18 92v69q0 32 -2.5 51.5t-12 41.5t-32.5 32.5t-59 10.5q-55 0 -97 6l-62 -234q-9 -33 3 -50.5t51 -21.5l68 -7l-3 -13q-26 0 -78.5 0.5t-78.5 0.5t-78.5 -0.5t-78.5 -0.5l3 13l65 7
q38 4 55 18t25 43l138 517q8 29 -1 43t-47 18l-61 7l3 13h268q101 0 158 -39t57 -111q0 -96 -78.5 -148t-209.5 -52v-1q91 0 117 -76q13 -39 15 -102q2 -85 10 -112t38 -27t53 30.5t46 104.5l17 -4q-23 -82 -51 -117t-71 -35zM323 338q111 0 178.5 54.5t67.5 152.5
q0 117 -166 117h-96l-85 -318q42 -6 101 -6z" />
    <glyph glyph-name="racute" unicode="&#x155;" horiz-adv-x="434" 
d="M285 578h-6q91 93 139 172h72v-3q-82 -91 -205 -169zM110 0q-10 1 -21 1l-22 -1l89 297q27 89 27 120q0 46 -41 46q-31 0 -56 -35.5t-54 -111.5l-16 5q34 86 62.5 124t74.5 38q31 0 49.5 -17.5t18.5 -50.5q0 -9 -1 -19t-4.5 -24.5t-6.5 -25t-10 -32l-11 -34.5t-14 -43
l-16 -47q38 106 87 189q65 109 133 109q29 0 47 -15t18 -39q0 -20 -12 -32.5t-32 -12.5q-17 0 -27 9.5t-10 24.5q0 4 1 10.5t1 8.5q0 11 -14 11q-40 0 -92 -82q-72 -114 -114 -256z" />
    <glyph glyph-name="Rcommaaccent" unicode="&#x156;" horiz-adv-x="636" 
d="M509 -10q-53 0 -71 33t-18 92v69q0 32 -2.5 51.5t-12 41.5t-32.5 32.5t-59 10.5q-55 0 -97 6l-62 -234q-9 -33 3 -50.5t51 -21.5l68 -7l-3 -13q-26 0 -78.5 0.5t-78.5 0.5t-78.5 -0.5t-78.5 -0.5l3 13l65 7q38 4 55 18t25 43l138 517q8 29 -1 43t-47 18l-61 7l3 13h268
q101 0 158 -39t57 -111q0 -96 -78.5 -148t-209.5 -52v-1q91 0 117 -76q13 -39 15 -102q2 -85 10 -112t38 -27t53 30.5t46 104.5l17 -4q-23 -82 -51 -117t-71 -35zM307 662l-85 -318q42 -6 101 -6q111 0 178.5 54.5t67.5 152.5q0 117 -166 117h-96zM254 -245l-8 14
q41 19 65 46.5t23 56.5q-9 -19 -32 -19q-16 0 -28.5 11.5t-12.5 28.5q0 19 12.5 32t32.5 13q24 0 37.5 -16.5t13.5 -40.5q0 -41 -29 -73.5t-74 -52.5z" />
    <glyph glyph-name="rcommaaccent" unicode="&#x157;" horiz-adv-x="434" 
d="M110 0q-10 1 -21 1l-22 -1l89 297q27 89 27 120q0 46 -41 46q-31 0 -56 -35.5t-54 -111.5l-16 5q34 86 62.5 124t74.5 38q31 0 49.5 -17.5t18.5 -50.5q0 -9 -1 -19t-4.5 -24.5t-6.5 -25t-10 -32l-11 -34.5t-14 -43l-16 -47q38 106 87 189q65 109 133 109q29 0 47 -15
t18 -39q0 -20 -12 -32.5t-32 -12.5q-17 0 -27 9.5t-10 24.5q0 4 1 10.5t1 8.5q0 11 -14 11q-40 0 -92 -82q-72 -114 -114 -256zM21 -245l-8 14q41 19 65 46.5t23 56.5q-9 -19 -32 -19q-16 0 -28.5 11.5t-12.5 28.5q0 19 13 32t32 13q24 0 37.5 -16.5t13.5 -40.5
q0 -41 -29 -73.5t-74 -52.5z" />
    <glyph glyph-name="Rcaron" unicode="&#x158;" horiz-adv-x="636" 
d="M469 744h-51l-80 125h9l114 -91l161 91h5zM509 -10q-53 0 -71 33t-18 92v69q0 32 -2.5 51.5t-12 41.5t-32.5 32.5t-59 10.5q-55 0 -97 6l-62 -234q-9 -33 3 -50.5t51 -21.5l68 -7l-3 -13q-26 0 -78.5 0.5t-78.5 0.5t-78.5 -0.5t-78.5 -0.5l3 13l65 7q38 4 55 18t25 43
l138 517q8 29 -1 43t-47 18l-61 7l3 13h268q101 0 158 -39t57 -111q0 -96 -78.5 -148t-209.5 -52v-1q91 0 117 -76q13 -39 15 -102q2 -85 10 -112t38 -27t53 30.5t46 104.5l17 -4q-23 -82 -51 -117t-71 -35zM307 662l-85 -318q42 -6 101 -6q111 0 178.5 54.5t67.5 152.5
q0 117 -166 117h-96z" />
    <glyph glyph-name="rcaron" unicode="&#x159;" horiz-adv-x="434" 
d="M327 575h-42l-65 172h9l93 -130l174 130h6zM110 0q-10 1 -21 1l-22 -1l89 297q27 89 27 120q0 46 -41 46q-31 0 -56 -35.5t-54 -111.5l-16 5q34 86 62.5 124t74.5 38q31 0 49.5 -17.5t18.5 -50.5q0 -9 -1 -19t-4.5 -24.5t-6.5 -25t-10 -32l-11 -34.5t-14 -43l-16 -47
q38 106 87 189q65 109 133 109q29 0 47 -15t18 -39q0 -20 -12 -32.5t-32 -12.5q-17 0 -27 9.5t-10 24.5q0 4 1 10.5t1 8.5q0 11 -14 11q-40 0 -92 -82q-72 -114 -114 -256z" />
    <glyph glyph-name="Sacute" unicode="&#x15a;" horiz-adv-x="582" 
d="M354 744h-6q85 65 137 125h74v-2q-84 -66 -205 -123zM504 196q0 -98 -65 -154.5t-159 -56.5q-144 0 -197 100l-58 -97h-10l74 275h18q-14 -125 28.5 -194t143.5 -69q83 0 133 48t50 130q0 55 -32 86t-104 63q-36 16 -59 28.5t-48 33t-37.5 47t-12.5 60.5q0 90 65 144
t150 54q123 0 170 -85l48 82h10l-71 -264h-17q12 126 -17 189t-124 63q-70 0 -121 -44.5t-51 -118.5q0 -26 8.5 -46.5t18 -33.5t34 -28t38 -21.5l48.5 -22.5q71 -32 108.5 -69t37.5 -99z" />
    <glyph glyph-name="sacute" unicode="&#x15b;" horiz-adv-x="396" 
d="M224 578h-6q91 93 139 172h72v-3q-82 -91 -205 -169zM323 144q0 -67 -49 -113t-117 -46q-62 0 -100.5 27.5t-38.5 68.5q0 22 13 36.5t34 14.5q16 0 26.5 -10.5t10.5 -25.5q0 -18 -13.5 -30.5t-13.5 -19.5q0 -19 20.5 -32.5t61.5 -13.5q59 0 95 36.5t36 91.5q0 21 -7 37
t-23 29t-27 19.5t-35 18.5q-29 15 -47.5 27.5t-34 37.5t-15.5 56q0 58 44.5 96.5t109.5 38.5q51 0 86 -23t35 -62q0 -23 -13 -36.5t-32 -13.5q-16 0 -27 10.5t-11 26.5q0 17 13.5 29.5t13.5 19.5q0 14 -16.5 24t-49.5 10q-52 0 -85 -31.5t-33 -76.5q0 -26 14.5 -46
t29.5 -29.5t45 -23.5q47 -23 73.5 -50t26.5 -72z" />
    <glyph glyph-name="Scircumflex" unicode="&#x15c;" horiz-adv-x="582" 
d="M432 835l-161 -91h-5l158 125h51l80 -125h-9zM504 196q0 -98 -65 -154.5t-159 -56.5q-144 0 -197 100l-58 -97h-10l74 275h18q-14 -125 28.5 -194t143.5 -69q83 0 133 48t50 130q0 55 -32 86t-104 63q-36 16 -59 28.5t-48 33t-37.5 47t-12.5 60.5q0 90 65 144t150 54
q123 0 170 -85l48 82h10l-71 -264h-17q12 126 -17 189t-124 63q-70 0 -121 -44.5t-51 -118.5q0 -26 8.5 -46.5t18 -33.5t34 -28t38 -21.5l48.5 -22.5q71 -32 108.5 -69t37.5 -99z" />
    <glyph glyph-name="scircumflex" unicode="&#x15d;" horiz-adv-x="396" 
d="M310 708l-174 -130h-6l175 172h42l65 -172h-9zM323 144q0 -67 -49 -113t-117 -46q-62 0 -100.5 27.5t-38.5 68.5q0 22 13 36.5t34 14.5q16 0 26.5 -10.5t10.5 -25.5q0 -18 -13.5 -30.5t-13.5 -19.5q0 -19 20.5 -32.5t61.5 -13.5q59 0 95 36.5t36 91.5q0 21 -7 37t-23 29
t-27 19.5t-35 18.5q-29 15 -47.5 27.5t-34 37.5t-15.5 56q0 58 44.5 96.5t109.5 38.5q51 0 86 -23t35 -62q0 -23 -13 -36.5t-32 -13.5q-16 0 -27 10.5t-11 26.5q0 17 13.5 29.5t13.5 19.5q0 14 -16.5 24t-49.5 10q-52 0 -85 -31.5t-33 -76.5q0 -26 14.5 -46t29.5 -29.5
t45 -23.5q47 -23 73.5 -50t26.5 -72z" />
    <glyph glyph-name="Scedilla" unicode="&#x15e;" horiz-adv-x="582" 
d="M163 -240q-49 0 -82 23l12 12q27 -16 63 -16q41 0 68.5 22t27.5 66q0 43 -44 43q-19 0 -43 -8l-8 7l48 84q-84 21 -122 92l-58 -97h-10l74 275h18q-14 -125 28.5 -194t143.5 -69q83 0 133 48t50 130q0 55 -32 86t-104 63q-36 16 -59 28.5t-48 33t-37.5 47t-12.5 60.5
q0 90 65 144t150 54q123 0 170 -85l48 82h10l-71 -264h-17q12 126 -17 189t-124 63q-70 0 -121 -44.5t-51 -118.5q0 -26 8.5 -46.5t18 -33.5t34 -28t38 -21.5l48.5 -22.5q71 -32 108.5 -69t37.5 -99q0 -98 -65 -154.5t-159 -56.5q-30 0 -60 5l-33 -69q19 4 43 4
q29 0 48.5 -15.5t19.5 -44.5q0 -48 -42.5 -76.5t-92.5 -28.5z" />
    <glyph glyph-name="scedilla" unicode="&#x15f;" horiz-adv-x="396" 
d="M73 -240q-49 0 -82 23l12 12q27 -16 63 -16q41 0 68.5 22t27.5 66q0 43 -44 43q-19 0 -43 -8l-8 7l46 80q-44 9 -69.5 34t-25.5 58q0 22 13 36.5t34 14.5q16 0 26.5 -10.5t10.5 -25.5q0 -18 -13.5 -30.5t-13.5 -19.5q0 -19 20.5 -32.5t61.5 -13.5q59 0 95 36.5t36 91.5
q0 21 -7 37t-23 29t-27 19.5t-35 18.5q-29 15 -47.5 27.5t-34 37.5t-15.5 56q0 58 44.5 96.5t109.5 38.5q51 0 86 -23t35 -62q0 -23 -13 -36.5t-32 -13.5q-16 0 -27 10.5t-11 26.5q0 17 13.5 29.5t13.5 19.5q0 14 -16.5 24t-49.5 10q-52 0 -85 -31.5t-33 -76.5
q0 -26 14.5 -46t29.5 -29.5t45 -23.5q47 -23 73.5 -50t26.5 -72q0 -67 -49 -113t-117 -46q-10 0 -28 2l-32 -66q19 4 43 4q29 0 48.5 -15.5t19.5 -44.5q0 -48 -42.5 -76.5t-92.5 -28.5z" />
    <glyph glyph-name="Scaron" unicode="&#x160;" horiz-adv-x="582" 
d="M440 744h-51l-80 125h9l114 -91l161 91h5zM504 196q0 -98 -65 -154.5t-159 -56.5q-144 0 -197 100l-58 -97h-10l74 275h18q-14 -125 28.5 -194t143.5 -69q83 0 133 48t50 130q0 55 -32 86t-104 63q-36 16 -59 28.5t-48 33t-37.5 47t-12.5 60.5q0 90 65 144t150 54
q123 0 170 -85l48 82h10l-71 -264h-17q12 126 -17 189t-124 63q-70 0 -121 -44.5t-51 -118.5q0 -26 8.5 -46.5t18 -33.5t34 -28t38 -21.5l48.5 -22.5q71 -32 108.5 -69t37.5 -99z" />
    <glyph glyph-name="scaron" unicode="&#x161;" horiz-adv-x="396" 
d="M304 578h-42l-65 172h9l93 -130l174 130h6zM323 144q0 -67 -49 -113t-117 -46q-62 0 -100.5 27.5t-38.5 68.5q0 22 13 36.5t34 14.5q16 0 26.5 -10.5t10.5 -25.5q0 -18 -13.5 -30.5t-13.5 -19.5q0 -19 20.5 -32.5t61.5 -13.5q59 0 95 36.5t36 91.5q0 21 -7 37t-23 29
t-27 19.5t-35 18.5q-29 15 -47.5 27.5t-34 37.5t-15.5 56q0 58 44.5 96.5t109.5 38.5q51 0 86 -23t35 -62q0 -23 -13 -36.5t-32 -13.5q-16 0 -27 10.5t-11 26.5q0 17 13.5 29.5t13.5 19.5q0 14 -16.5 24t-49.5 10q-52 0 -85 -31.5t-33 -76.5q0 -26 14.5 -46t29.5 -29.5
t45 -23.5q47 -23 73.5 -50t26.5 -72z" />
    <glyph glyph-name="Tcommaaccent" unicode="&#x162;" horiz-adv-x="655" 
d="M447 13l-3 -13q-27 0 -81.5 0.5t-81.5 0.5q-28 0 -82.5 -0.5t-81.5 -0.5l3 13l72 7q41 4 59.5 21t28.5 51l152 569h-113q-63 0 -98 -38q-28 -29 -87 -147q-2 -4 -5 -11q-5 -10 -8 -15h-13l68 229h552l-34 -229h-14q4 95 -2.5 138t-25.5 58t-63 15h-113l-152 -569
q-9 -33 3 -50.5t52 -21.5zM214 -245l-8 14q41 19 65 46.5t23 56.5q-9 -19 -32 -19q-16 0 -28.5 11.5t-12.5 28.5q0 19 12.5 32t32.5 13q24 0 37.5 -16.5t13.5 -40.5q0 -41 -29 -73.5t-74 -52.5z" />
    <glyph glyph-name="tcommaaccent" unicode="&#x163;" horiz-adv-x="366" 
d="M144 -10q-38 0 -61 19.5t-23 57.5q0 23 10 56l94 321l-95 9l4 14l100 9l42 144h43l-43 -147h151l-5 -20l-154 -6l-99 -340q-7 -26 -7 -44q0 -52 52 -52q68 0 131 146l15 -5q-39 -85 -72 -123.5t-83 -38.5zM66 -242l-8 14q41 19 65 46.5t23 56.5q-9 -19 -32 -19
q-16 0 -28.5 11.5t-12.5 28.5q0 20 12.5 32.5t32.5 12.5q24 0 37.5 -16.5t13.5 -40.5q0 -41 -29 -73.5t-74 -52.5z" />
    <glyph glyph-name="Tcaron" unicode="&#x164;" horiz-adv-x="655" 
d="M491 744h-51l-80 125h9l114 -91l161 91h5zM447 13l-3 -13q-27 0 -81.5 0.5t-81.5 0.5q-28 0 -82.5 -0.5t-81.5 -0.5l3 13l72 7q41 4 59.5 21t28.5 51l152 569h-113q-63 0 -98 -38q-28 -29 -87 -147q-2 -4 -5 -11q-5 -10 -8 -15h-13l68 229h552l-34 -229h-14
q4 95 -2.5 138t-25.5 58t-63 15h-113l-152 -569q-9 -33 3 -50.5t52 -21.5z" />
    <glyph glyph-name="tcaron" unicode="&#x165;" horiz-adv-x="366" 
d="M325 546l-8 14q41 19 65 46.5t23 56.5q-9 -19 -32 -19q-16 0 -28.5 11.5t-12.5 28.5q0 20 13 32.5t32 12.5q24 0 37.5 -16.5t13.5 -40.5q0 -41 -29 -73.5t-74 -52.5zM144 -10q-38 0 -61 19.5t-23 57.5q0 23 10 56l94 321l-95 9l4 14l100 9l42 144h43l-43 -147h151l-5 -20
l-154 -6l-99 -340q-7 -26 -7 -44q0 -52 52 -52q68 0 131 146l15 -5q-39 -85 -72 -123.5t-83 -38.5z" />
    <glyph glyph-name="Tbar" unicode="&#x166;" horiz-adv-x="655" 
d="M447 13l-3 -13q-27 0 -81.5 0.5t-81.5 0.5q-28 0 -82.5 -0.5t-81.5 -0.5l3 13l72 7q41 4 59.5 21t28.5 51l62 233h-126l4 27h129l83 309h-113q-63 0 -98 -38q-28 -29 -87 -147q-2 -4 -5 -11q-5 -10 -8 -15h-13l68 229h552l-34 -229h-14q4 95 -2.5 138t-25.5 58t-63 15
h-113l-83 -309h129l-4 -27h-132l-62 -233q-9 -33 3 -50.5t52 -21.5z" />
    <glyph glyph-name="tbar" unicode="&#x167;" horiz-adv-x="366" 
d="M299 152q-39 -85 -72 -123.5t-83 -38.5q-38 0 -61 19.5t-23 57.5q0 23 10 56l40 136h-91l4 21h93l48 164l-95 9l4 14l100 9l42 144h43l-43 -147h151l-5 -20l-154 -6l-48 -167h143l-4 -21h-146l-44 -152q-7 -26 -7 -44q0 -52 52 -52q68 0 131 146z" />
    <glyph glyph-name="Utilde" unicode="&#x168;" horiz-adv-x="756" 
d="M404 747l-4 -1q-3 13 -3 26q0 31 15 56t52 25q26 0 72 -33t66 -33q21 0 33 10.5t18 41.5h4q-13 -89 -73 -89q-27 0 -72.5 33t-64.5 33q-43 0 -43 -59v-10zM631 236q-36 -132 -106 -191t-187 -59q-44 0 -80 8t-66.5 26t-47.5 51.5t-17 80.5q0 42 17 108l90 338q8 29 -1 43
t-47 18l-61 7l3 13q50 -1 149 -1t149 1l-3 -13l-65 -7q-38 -4 -55 -18t-25 -43l-91 -341q-17 -62 -17 -103q0 -81 48 -111.5t130 -30.5q104 0 166.5 53.5t93.5 171.5l80 301q20 70 9 93.5t-72 30.5l-33 4l3 13q47 -1 141 -1q93 0 140 1l-3 -13l-34 -4q-62 -8 -85 -30.5
t-43 -97.5z" />
    <glyph glyph-name="utilde" unicode="&#x169;" horiz-adv-x="565" 
d="M229 611l-4 -1q-3 13 -3 26q0 31 15 56t52 25q27 0 72 -33t66 -33t33 10.5t18 41.5h4q-13 -89 -73 -89q-27 0 -72.5 33t-64.5 33q-43 0 -43 -59v-10zM414 -10q-31 0 -50 17.5t-19 50.5q0 34 66 232q-104 -305 -236 -305q-45 0 -70 24.5t-25 63.5q0 40 24 104l58 152
q22 57 22 87q0 47 -42 47q-31 0 -56 -35.5t-54 -111.5l-16 5q35 88 62.5 125t72.5 37q32 0 52.5 -18t20.5 -51q0 -36 -24 -102l-58 -154q-21 -54 -21 -86q0 -66 63 -66q66 0 127 95.5t103 233.5l42 138q10 -1 21 -1l22 1l-89 -297q-28 -92 -28 -120q0 -46 42 -46q31 0 56 35
t55 112l16 -5q-37 -90 -64 -126t-73 -36z" />
    <glyph glyph-name="Umacron" unicode="&#x16a;" horiz-adv-x="756" 
d="M381 761l5 26q54 -3 134 -3q82 0 134 3l-5 -26q-53 3 -133 3q-81 0 -135 -3zM631 236q-36 -132 -106 -191t-187 -59q-44 0 -80 8t-66.5 26t-47.5 51.5t-17 80.5q0 42 17 108l90 338q8 29 -1 43t-47 18l-61 7l3 13q50 -1 149 -1t149 1l-3 -13l-65 -7q-38 -4 -55 -18
t-25 -43l-91 -341q-17 -62 -17 -103q0 -81 48 -111.5t130 -30.5q104 0 166.5 53.5t93.5 171.5l80 301q20 70 9 93.5t-72 30.5l-33 4l3 13q47 -1 141 -1q93 0 140 1l-3 -13l-34 -4q-62 -8 -85 -30.5t-43 -97.5z" />
    <glyph glyph-name="umacron" unicode="&#x16b;" horiz-adv-x="565" 
d="M235 647l5 26q54 -3 133 -3q81 0 133 3l-5 -26q-52 3 -132 3t-134 -3zM414 -10q-31 0 -50 17.5t-19 50.5q0 34 66 232q-104 -305 -236 -305q-45 0 -70 24.5t-25 63.5q0 40 24 104l58 152q22 57 22 87q0 47 -42 47q-31 0 -56 -35.5t-54 -111.5l-16 5q35 88 62.5 125
t72.5 37q32 0 52.5 -18t20.5 -51q0 -36 -24 -102l-58 -154q-21 -54 -21 -86q0 -66 63 -66q66 0 127 95.5t103 233.5l42 138q10 -1 21 -1l22 1l-89 -297q-28 -92 -28 -120q0 -46 42 -46q31 0 56 35t55 112l16 -5q-37 -90 -64 -126t-73 -36z" />
    <glyph glyph-name="Ubreve" unicode="&#x16c;" horiz-adv-x="756" 
d="M667 869q-44 -125 -161 -125q-53 0 -78.5 32.5t-17.5 92.5h4q3 -81 103 -81q98 0 146 81h4zM631 236q-36 -132 -106 -191t-187 -59q-44 0 -80 8t-66.5 26t-47.5 51.5t-17 80.5q0 42 17 108l90 338q8 29 -1 43t-47 18l-61 7l3 13q50 -1 149 -1t149 1l-3 -13l-65 -7
q-38 -4 -55 -18t-25 -43l-91 -341q-17 -62 -17 -103q0 -81 48 -111.5t130 -30.5q104 0 166.5 53.5t93.5 171.5l80 301q20 70 9 93.5t-72 30.5l-33 4l3 13q47 -1 141 -1q93 0 140 1l-3 -13l-34 -4q-62 -8 -85 -30.5t-43 -97.5z" />
    <glyph glyph-name="ubreve" unicode="&#x16d;" horiz-adv-x="565" 
d="M510 730q-44 -129 -157 -129t-96 129h4q1 -37 25 -61t76 -24q96 0 144 85h4zM414 -10q-31 0 -50 17.5t-19 50.5q0 34 66 232q-104 -305 -236 -305q-45 0 -70 24.5t-25 63.5q0 40 24 104l58 152q22 57 22 87q0 47 -42 47q-31 0 -56 -35.5t-54 -111.5l-16 5q35 88 62.5 125
t72.5 37q32 0 52.5 -18t20.5 -51q0 -36 -24 -102l-58 -154q-21 -54 -21 -86q0 -66 63 -66q66 0 127 95.5t103 233.5l42 138q10 -1 21 -1l22 1l-89 -297q-28 -92 -28 -120q0 -46 42 -46q31 0 56 35t55 112l16 -5q-37 -90 -64 -126t-73 -36z" />
    <glyph glyph-name="Uring" unicode="&#x16e;" horiz-adv-x="756" 
d="M629 825q0 -40 -27.5 -67t-71.5 -28q-43 0 -70.5 27.5t-27.5 67.5t27.5 67t70.5 27q44 0 71.5 -27t27.5 -67zM530 744q34 0 52.5 23.5t18.5 57.5q0 33 -18.5 56.5t-52.5 23.5q-33 0 -51.5 -23.5t-18.5 -56.5q0 -34 18.5 -57.5t51.5 -23.5zM631 236q-36 -132 -106 -191
t-187 -59q-44 0 -80 8t-66.5 26t-47.5 51.5t-17 80.5q0 42 17 108l90 338q8 29 -1 43t-47 18l-61 7l3 13q50 -1 149 -1t149 1l-3 -13l-65 -7q-38 -4 -55 -18t-25 -43l-91 -341q-17 -62 -17 -103q0 -81 48 -111.5t130 -30.5q104 0 166.5 53.5t93.5 171.5l80 301q20 70 9 93.5
t-72 30.5l-33 4l3 13q47 -1 141 -1q93 0 140 1l-3 -13l-34 -4q-62 -8 -85 -30.5t-43 -97.5z" />
    <glyph glyph-name="uring" unicode="&#x16f;" horiz-adv-x="565" 
d="M459 658q0 -40 -27.5 -67t-71.5 -28q-43 0 -70.5 27.5t-27.5 67.5t27.5 67t70.5 27q44 0 71.5 -27t27.5 -67zM360 577q34 0 52.5 23.5t18.5 57.5q0 33 -18.5 56.5t-52.5 23.5q-33 0 -51.5 -23.5t-18.5 -56.5q0 -34 18.5 -57.5t51.5 -23.5zM414 -10q-31 0 -50 17.5
t-19 50.5q0 34 66 232q-104 -305 -236 -305q-45 0 -70 24.5t-25 63.5q0 40 24 104l58 152q22 57 22 87q0 47 -42 47q-31 0 -56 -35.5t-54 -111.5l-16 5q35 88 62.5 125t72.5 37q32 0 52.5 -18t20.5 -51q0 -36 -24 -102l-58 -154q-21 -54 -21 -86q0 -66 63 -66q66 0 127 95.5
t103 233.5l42 138q10 -1 21 -1l22 1l-89 -297q-28 -92 -28 -120q0 -46 42 -46q31 0 56 35t55 112l16 -5q-37 -90 -64 -126t-73 -36z" />
    <glyph glyph-name="Uhungarumlaut" unicode="&#x170;" horiz-adv-x="756" 
d="M555 744h-6q85 65 137 125h74v-2q-84 -66 -205 -123zM417 744h-6q85 65 137 125h74v-2q-84 -66 -205 -123zM631 236q-36 -132 -106 -191t-187 -59q-44 0 -80 8t-66.5 26t-47.5 51.5t-17 80.5q0 42 17 108l90 338q8 29 -1 43t-47 18l-61 7l3 13q50 -1 149 -1t149 1l-3 -13
l-65 -7q-38 -4 -55 -18t-25 -43l-91 -341q-17 -62 -17 -103q0 -81 48 -111.5t130 -30.5q104 0 166.5 53.5t93.5 171.5l80 301q20 70 9 93.5t-72 30.5l-33 4l3 13q47 -1 141 -1q93 0 140 1l-3 -13l-34 -4q-62 -8 -85 -30.5t-43 -97.5z" />
    <glyph glyph-name="uhungarumlaut" unicode="&#x171;" horiz-adv-x="565" 
d="M380 578h-6q91 93 139 172h72v-3q-82 -91 -205 -169zM245 578h-6q91 93 139 172h72v-3q-82 -91 -205 -169zM414 -10q-31 0 -50 17.5t-19 50.5q0 34 66 232q-104 -305 -236 -305q-45 0 -70 24.5t-25 63.5q0 40 24 104l58 152q22 57 22 87q0 47 -42 47q-31 0 -56 -35.5
t-54 -111.5l-16 5q35 88 62.5 125t72.5 37q32 0 52.5 -18t20.5 -51q0 -36 -24 -102l-58 -154q-21 -54 -21 -86q0 -66 63 -66q66 0 127 95.5t103 233.5l42 138q10 -1 21 -1l22 1l-89 -297q-28 -92 -28 -120q0 -46 42 -46q31 0 56 35t55 112l16 -5q-37 -90 -64 -126t-73 -36z
" />
    <glyph glyph-name="Uogonek" unicode="&#x172;" horiz-adv-x="756" 
d="M378 -241q-30 0 -50.5 18t-20.5 48q0 36 24.5 67t71.5 68l88 69q-62 -42 -153 -42q-211 0 -211 165q0 42 17 108l90 338q8 29 -1 43t-47 18l-61 7l3 13q50 -1 149 -1t149 1l-3 -13l-65 -7q-38 -4 -55 -18t-25 -43l-91 -341q-17 -62 -17 -103q0 -81 48 -111.5t130 -30.5
q104 0 166.5 53.5t93.5 171.5l80 301q20 70 9 93.5t-72 30.5l-33 4l3 13q47 -1 141 -1q93 0 140 1l-3 -13l-34 -4q-62 -8 -85 -30.5t-43 -97.5l-80 -298q-38 -139 -116 -199q-38 -29 -101 -88q-69 -66 -69 -119q0 -22 12 -34.5t34 -12.5q59 0 121 98l14 -8
q-33 -55 -67 -84.5t-81 -29.5z" />
    <glyph glyph-name="uogonek" unicode="&#x173;" horiz-adv-x="565" 
d="M337 -241q-30 0 -50 18t-20 48q0 36 24.5 66t71.5 64q27 20 68 42q-7 -3 -17 -3q-69 0 -69 64q0 12 3 28t11 42l15.5 50l22.5 69.5l27 82.5q-109 -345 -249 -345q-45 0 -70 24.5t-25 63.5q0 40 24 104l58 152q22 57 22 87q0 47 -42 47q-31 0 -56 -35.5t-54 -111.5l-16 5
q35 88 62.5 125t72.5 37q32 0 52.5 -18t20.5 -51q0 -36 -24 -102l-58 -154q-21 -54 -21 -86q0 -66 63 -66q66 0 127 95.5t103 233.5l42 138q10 -1 21 -1l22 1l-89 -297q-28 -92 -28 -120q0 -46 43 -46q30 0 56 36t54 111l16 -5q-27 -68 -47 -102t-49 -50q-47 -26 -82 -55
q-68 -55 -68 -115q0 -21 12 -34t33 -13q60 0 122 98l14 -8q-33 -55 -67 -84.5t-82 -29.5z" />
    <glyph glyph-name="Wcircumflex" unicode="&#x174;" horiz-adv-x="927" 
d="M619 835l-161 -91h-5l158 125h51l80 -125h-9zM218 -5l-27 577q-2 47 -15.5 64.5t-53.5 24.5l-27 5l3 13q44 -1 131 -1t130 1l-3 -13l-57 -7q-42 -5 -55 -23.5t-11 -59.5l25 -516l316 621h34l30 -620l221 444q40 81 40 107q0 22 -15 32t-55 17l-30 5l3 13q44 -1 133 -1
q88 0 132 1l-3 -13l-26 -5q-49 -9 -79.5 -41t-79.5 -126l-224 -438l-31 -61h-25l-30 630l-294 -571l-30 -59h-27z" />
    <glyph glyph-name="wcircumflex" unicode="&#x175;" horiz-adv-x="665" 
d="M473 708l-174 -130h-6l175 172h42l65 -172h-9zM561 121q-38 -61 -85 -96t-94 -35q-71 0 -98 77q-38 -37 -69 -57t-64 -20q-40 0 -67.5 29t-27.5 79q0 84 49.5 164t129.5 166l-1 1q-21 -21 -48 -21q-22 0 -52.5 12.5t-43.5 12.5q-33 0 -33 -37q0 -19 6 -43l-10 -3
q-12 33 -12 64q0 29 15 49t42 20t61.5 -26.5t50.5 -26.5q17 0 28 14.5t11 39.5q20 5 20 -13q0 -16 -29 -51q-137 -163 -137 -307q0 -47 19 -70.5t45 -23.5q52 0 113 61q-8 32 -8 65q0 66 22 144t61 135.5t81 57.5q46 0 46 -59q0 -55 -49.5 -152t-113.5 -169q19 -83 80 -83
q80 0 150 112q69 113 69 244q0 33 -20 33q-3 0 -8.5 -0.5t-9.5 -0.5q-16 0 -27.5 10t-11.5 27q0 19 12 31t31 12q59 0 59 -93q0 -142 -82 -273zM316 118l8 10q56 68 94 148t38 135q0 49 -35 49q-47 0 -78.5 -90t-31.5 -199q0 -32 5 -53z" />
    <glyph glyph-name="Ycircumflex" unicode="&#x176;" horiz-adv-x="597" 
d="M427 835l-161 -91h-5l158 125h51l80 -125h-9zM387 0q-27 0 -81.5 0.5t-81.5 0.5q-28 0 -82 -0.5t-82 -0.5l3 13l72 7q41 4 59.5 21t28.5 51l47 177l-90 302q-16 53 -30 68t-53 22l-27 5l3 13q44 -1 133 -1q88 0 132 1l-3 -13l-58 -7q-41 -5 -53.5 -21.5t-2.5 -52.5
l87 -298l195 230q67 79 67 107q0 15 -14.5 23t-49.5 13l-37 6l3 13q44 -1 133 -1q88 0 132 1l-3 -13l-21 -4q-47 -9 -81.5 -37t-114.5 -120l-202 -234l-48 -179q-9 -33 3 -50.5t52 -21.5l68 -7z" />
    <glyph glyph-name="ycircumflex" unicode="&#x177;" horiz-adv-x="492" 
d="M363 708l-174 -130h-6l175 172h42l65 -172h-9zM123 -244q-56 0 -89 25t-33 65q0 23 12.5 38.5t33.5 15.5q18 0 28.5 -10t10.5 -26q0 -18 -15.5 -31.5t-15.5 -23.5q0 -16 19 -27t48 -11q127 0 174 168l11 39q14 50 31.5 103.5l41.5 123l35 103.5q-106 -323 -241 -323
q-44 0 -69 24.5t-25 63.5q0 40 24 104l58 152q22 57 22 87q0 47 -42 47q-31 0 -56 -35.5t-54 -111.5l-16 5q35 88 62.5 125t72.5 37q32 0 52.5 -18t20.5 -51q0 -36 -24 -102l-58 -154q-21 -54 -21 -86q0 -66 63 -66q66 0 127 96t100 233l40 138q12 -1 22 -1l21 1l-151 -518
q-30 -103 -88.5 -151t-131.5 -48z" />
    <glyph glyph-name="Ydieresis" unicode="&#x178;" horiz-adv-x="597" 
d="M551 785q0 -19 -12.5 -31.5t-30.5 -12.5t-30.5 12t-12.5 31t12.5 31.5t30.5 12.5t30.5 -12t12.5 -31zM367 785q0 -19 -12.5 -31.5t-30.5 -12.5t-30.5 12t-12.5 31t12.5 31.5t30.5 12.5t30.5 -12t12.5 -31zM387 0q-27 0 -81.5 0.5t-81.5 0.5q-28 0 -82 -0.5t-82 -0.5l3 13
l72 7q41 4 59.5 21t28.5 51l47 177l-90 302q-16 53 -30 68t-53 22l-27 5l3 13q44 -1 133 -1q88 0 132 1l-3 -13l-58 -7q-41 -5 -53.5 -21.5t-2.5 -52.5l87 -298l195 230q67 79 67 107q0 15 -14.5 23t-49.5 13l-37 6l3 13q44 -1 133 -1q88 0 132 1l-3 -13l-21 -4
q-47 -9 -81.5 -37t-114.5 -120l-202 -234l-48 -179q-9 -33 3 -50.5t52 -21.5l68 -7z" />
    <glyph glyph-name="Zacute" unicode="&#x179;" horiz-adv-x="621" 
d="M392 744h-6q85 65 137 125h74v-2q-84 -66 -205 -123zM619 661h-253q-46 0 -72 -6t-52.5 -31.5t-47.5 -62t-58 -111.5h-15l72 229h483v-18l-618 -643h285q89 0 130.5 39.5t104.5 185.5h15l-75 -243h-518v18z" />
    <glyph glyph-name="zacute" unicode="&#x17a;" horiz-adv-x="449" 
d="M248 578h-6q91 93 139 172h72v-3q-82 -91 -205 -169zM385 95q0 -45 -25.5 -75.5t-71.5 -30.5q-32 0 -68 23.5l-69.5 46.5t-59.5 23q-43 0 -43 -44q0 -20 10 -43q-8 -5 -22 -5q-33 0 -33 38q0 24 21 52q13 18 32.5 38t45.5 41l44 35.5t46.5 35.5t33.5 25q13 10 60 42.5
t74.5 55.5t48.5 51l-1 1q-24 -23 -64 -23q-30 0 -95 28t-85 28q-57 0 -57 -69q0 -17 6 -47l-10 -4q-12 36 -12 71q0 41 21 68t59 27q35 0 98.5 -44t91.5 -44q34 0 34 40q0 20 -10 43q10 5 23 5t23 -10t10 -28q0 -24 -21 -52q-39 -54 -176 -153l-55.5 -40l-64 -46.5
t-47 -39.5t-42.5 -45l1 -1q29 27 67 27t101 -30.5t90 -30.5q75 0 75 72q0 37 -14 68l11 4q19 -40 19 -84z" />
    <glyph glyph-name="Zdotaccent" unicode="&#x17b;" horiz-adv-x="621" 
d="M487 787q0 -19 -12.5 -31.5t-30.5 -12.5t-30.5 12t-12.5 31t12.5 31.5t30.5 12.5t30.5 -12t12.5 -31zM619 661h-253q-46 0 -72 -6t-52.5 -31.5t-47.5 -62t-58 -111.5h-15l72 229h483v-18l-618 -643h285q89 0 130.5 39.5t104.5 185.5h15l-75 -243h-518v18z" />
    <glyph glyph-name="zdotaccent" unicode="&#x17c;" horiz-adv-x="449" 
d="M343 660q0 -19 -12.5 -31.5t-30.5 -12.5t-30.5 12t-12.5 31t12.5 31.5t30.5 12.5t30.5 -12t12.5 -31zM385 95q0 -45 -25.5 -75.5t-71.5 -30.5q-32 0 -68 23.5l-69.5 46.5t-59.5 23q-43 0 -43 -44q0 -20 10 -43q-8 -5 -22 -5q-33 0 -33 38q0 24 21 52q13 18 32.5 38
t45.5 41l44 35.5t46.5 35.5t33.5 25q13 10 60 42.5t74.5 55.5t48.5 51l-1 1q-24 -23 -64 -23q-30 0 -95 28t-85 28q-57 0 -57 -69q0 -17 6 -47l-10 -4q-12 36 -12 71q0 41 21 68t59 27q35 0 98.5 -44t91.5 -44q34 0 34 40q0 20 -10 43q10 5 23 5t23 -10t10 -28
q0 -24 -21 -52q-39 -54 -176 -153l-55.5 -40l-64 -46.5t-47 -39.5t-42.5 -45l1 -1q29 27 67 27t101 -30.5t90 -30.5q75 0 75 72q0 37 -14 68l11 4q19 -40 19 -84z" />
    <glyph glyph-name="Zcaron" unicode="&#x17d;" horiz-adv-x="621" 
d="M456 744h-51l-80 125h9l114 -91l161 91h5zM619 661h-253q-46 0 -72 -6t-52.5 -31.5t-47.5 -62t-58 -111.5h-15l72 229h483v-18l-618 -643h285q89 0 130.5 39.5t104.5 185.5h15l-75 -243h-518v18z" />
    <glyph glyph-name="zcaron" unicode="&#x17e;" horiz-adv-x="449" 
d="M314 578h-42l-65 172h9l93 -130l174 130h6zM385 95q0 -45 -25.5 -75.5t-71.5 -30.5q-32 0 -68 23.5l-69.5 46.5t-59.5 23q-43 0 -43 -44q0 -20 10 -43q-8 -5 -22 -5q-33 0 -33 38q0 24 21 52q13 18 32.5 38t45.5 41l44 35.5t46.5 35.5t33.5 25q13 10 60 42.5t74.5 55.5
t48.5 51l-1 1q-24 -23 -64 -23q-30 0 -95 28t-85 28q-57 0 -57 -69q0 -17 6 -47l-10 -4q-12 36 -12 71q0 41 21 68t59 27q35 0 98.5 -44t91.5 -44q34 0 34 40q0 20 -10 43q10 5 23 5t23 -10t10 -28q0 -24 -21 -52q-39 -54 -176 -153l-55.5 -40l-64 -46.5t-47 -39.5
t-42.5 -45l1 -1q29 27 67 27t101 -30.5t90 -30.5q75 0 75 72q0 37 -14 68l11 4q19 -40 19 -84z" />
    <glyph glyph-name="florin" unicode="&#x192;" horiz-adv-x="410" 
d="M-74 -244q-48 0 -74.5 21t-26.5 53q0 22 13 36.5t33 14.5q17 0 28 -10.5t11 -26.5q0 -18 -15 -30.5t-15 -18.5q0 -10 12.5 -17t33.5 -7q98 0 137 154l64 252l33 131l-100 9l4 14l105 9l22 88q29 114 77 161t121 47q46 0 78.5 -21.5t32.5 -58.5q0 -23 -13 -37.5t-33 -14.5
q-17 0 -28 10.5t-11 26.5q0 17 15.5 31t15.5 19q0 12 -16.5 21t-41.5 9q-56 0 -93 -40t-60 -133q-2 -7 -27 -111h135l-5 -21l-137 -5q-8 -35 -44 -177l-49 -200q-22 -90 -70.5 -134t-111.5 -44z" />
    <glyph glyph-name="Gcaron" unicode="&#x1e6;" horiz-adv-x="682" 
d="M488 744h-51l-80 125h9l114 -91l161 91h5zM511 -13l-7 83q-40 -40 -97 -62.5t-116 -22.5q-107 0 -167.5 67.5t-60.5 188.5t50 225t139 166t196 62q132 0 183 -101l53 96h10l-73 -277h-18q6 54 1.5 102.5t-18.5 85t-49 58t-89 21.5q-77 0 -141.5 -43t-104.5 -110
t-62 -144.5t-22 -151.5q0 -106 42.5 -168t129.5 -62t148.5 50t78.5 118l13 51q7 30 -4.5 46t-53.5 20l-71 7l3 13q52 -1 157 -1q104 0 156 1l-3 -13l-58 -7q-38 -4 -55.5 -18.5t-25.5 -44.5l-26 -97l-29 -138h-9z" />
    <glyph glyph-name="gcaron" unicode="&#x1e7;" horiz-adv-x="467" 
d="M334 578h-42l-65 172h9l93 -130l174 130h6zM171 0q114 0 187 254l44 153q-28 66 -97 66q-67 0 -125.5 -68.5t-83.5 -168.5q-14 -56 -14 -114q0 -55 23.5 -88.5t65.5 -33.5zM98 -244q-57 0 -91 25t-34 65q0 23 12.5 38.5t33.5 15.5q18 0 28.5 -10t10.5 -26
q0 -18 -15.5 -31.5t-15.5 -23.5q0 -16 19.5 -27t49.5 -11q61 0 103 38.5t68 129.5l11 39q9 32 38.5 115.5t51.5 154.5q-40 -133 -88 -199t-111 -66q-55 0 -94 40.5t-39 118.5q0 134 82.5 240t185.5 106q80 0 124 -56l43 56h9l-46 -123l-120 -410q-59 -199 -216 -199z" />
    <glyph glyph-name="Aringacute" unicode="&#x1fa;" horiz-adv-x="631" 
d="M384 919h-6q85 60 137 115h74v-1q-82 -60 -205 -114zM542 812q0 -39 -26 -64.5t-68 -25.5q-41 0 -67 25.5t-26 64.5q0 37 26 63t67 26t67.5 -26t26.5 -63zM448 735q33 0 50.5 22.5t17.5 54.5t-17.5 54t-50.5 22q-31 0 -48.5 -22.5t-17.5 -53.5q0 -32 17.5 -54.5
t48.5 -22.5zM593 0q-22 0 -66.5 0.5t-66.5 0.5t-66.5 -0.5t-66.5 -0.5l3 13l55 6q41 5 57 21.5t13 53.5l-10 131h-275l-33 -55q-36 -59 -43.5 -90t7 -44t56.5 -19l26 -4l-3 -13q-21 0 -63.5 0.5t-63.5 0.5t-64 -0.5t-64 -0.5l3 13l21 4q46 9 76.5 37.5t90.5 126.5l264 434
l37 68h36l47 -579q4 -45 16.5 -61.5t47.5 -23.5l32 -6zM182 246h262l-29 390z" />
    <glyph glyph-name="aringacute" unicode="&#x1fb;" horiz-adv-x="525" 
d="M281 757h-6q85 65 137 125h74v-2q-84 -66 -205 -123zM327 541q-41 0 -67 26t-26 64t26 63.5t67 25.5t67.5 -25.5t26.5 -63.5t-26 -63.5t-68 -26.5zM327 554q33 0 50 22.5t17 54.5t-17 54t-50 22q-32 0 -49.5 -22t-17.5 -54t17.5 -54.5t49.5 -22.5zM166 0q112 0 187 254
l45 154q-26 65 -95 65q-67 0 -124 -68t-82 -169q-14 -56 -14 -114q0 -56 21 -89t62 -33zM357 228l2 5l4 15zM375 -10q-30 0 -47 18.5t-17 48.5q0 36 38 146q-38 -110 -82.5 -165t-102.5 -55q-54 0 -90.5 40t-36.5 119q0 134 81 240t184 106q83 0 122 -58l45 58h9l-50 -126
l-65 -222q-16 -52 -16 -82q0 -48 38 -48q31 0 56 35.5t54 111.5l16 -5q-34 -87 -62 -124.5t-74 -37.5z" />
    <glyph glyph-name="AEacute" unicode="&#x1fc;" horiz-adv-x="920" 
d="M522 744h-6q85 65 137 125h74v-2q-84 -66 -205 -123zM555 657l-312 -378h212zM870 237l-75 -237h-541l3 13l65 7q38 4 55 18t25 43l47 177h-224l-84 -102q-63 -79 -59 -104t70 -35l26 -4l-3 -13q-23 0 -68.5 0.5t-68.5 0.5t-69 -0.5t-69 -0.5l3 13l24 4q48 8 85.5 36
t111.5 116l331 395q46 55 46 71q0 11 -10 16t-37 8l-61 7l3 13h543l-40 -217h-15q3 53 4 80.5t-1.5 53.5t-7.5 36t-18 18.5t-28 9.5t-43 1h-189l-81 -302h104q49 0 75.5 29.5t64.5 119.5h14l-43 -161l-42 -161h-13q12 89 2.5 122t-56.5 33h-110l-68 -253q-10 -37 2 -53.5
t50 -16.5h133q84 0 123 38.5t99 180.5h15z" />
    <glyph glyph-name="aeacute" unicode="&#x1fd;" horiz-adv-x="732" 
d="M395 578h-6q91 93 139 172h72v-3q-82 -91 -205 -169zM393 235l10 2q127 26 193 68q71 45 71 104q0 30 -17 47t-48 17q-71 0 -128 -71t-81 -167zM166 0q112 0 187 254l45 153q-28 66 -95 66t-124 -68t-82 -169q-14 -56 -14 -114q0 -56 21 -89t62 -33zM481 -15
q-69 0 -107 45t-38 119l1 13q-71 -179 -173 -179q-54 0 -90.5 40t-36.5 119q0 134 81 240t184 106q82 0 121 -60l41 60h9l-24 -69q69 69 154 69q44 0 75.5 -21.5t31.5 -59.5q0 -121 -320 -186q-9 -40 -9 -77q0 -63 28 -99t79 -36q57 0 100.5 33t85.5 103l14 -8
q-88 -152 -207 -152z" />
    <glyph glyph-name="Oslashacute" unicode="&#x1fe;" horiz-adv-x="667" 
d="M380 744h-6q85 65 137 125h74v-2q-84 -66 -205 -123zM672 434q0 -184 -112 -316.5t-262 -132.5q-133 0 -195 104l-109 -99l-15 15l113 103q-29 58 -29 137q0 184 112 316.5t262 132.5q130 0 193 -99l103 94l15 -15l-108 -98q32 -59 32 -142zM295 630q-82 -63 -130 -175.5
t-48 -225.5q0 -53 10 -92l472 432q-41 110 -164 110q-77 0 -140 -49zM300 0q77 0 140 49q82 63 130 175.5t48 225.5q0 55 -12 97l-473 -431q40 -116 167 -116z" />
    <glyph glyph-name="oslashacute" unicode="&#x1ff;" horiz-adv-x="472" 
d="M246 578h-6q91 93 139 172h72v-3q-82 -91 -205 -169zM190 -15q-97 0 -135 86l-92 -81l-14 15l99 86q-8 29 -8 63q0 134 79 234t178 100q87 0 126 -69l85 74l14 -15l-89 -78q14 -36 14 -81q0 -134 -79 -234t-178 -100zM86 124l309 271q-18 78 -95 78q-53 0 -96.5 -38.5
t-67.5 -89t-37 -109.5q-13 -58 -13 -104v-8zM187 0q53 0 96.5 38.5t67.5 89t37 109.5q13 58 13 104q0 12 -2 30l-311 -272q13 -99 99 -99z" />
    <glyph glyph-name="Scommaaccent" unicode="&#x218;" horiz-adv-x="582" 
d="M504 196q0 -98 -65 -154.5t-159 -56.5q-144 0 -197 100l-58 -97h-10l74 275h18q-14 -125 28.5 -194t143.5 -69q83 0 133 48t50 130q0 55 -32 86t-104 63q-36 16 -59 28.5t-48 33t-37.5 47t-12.5 60.5q0 90 65 144t150 54q123 0 170 -85l48 82h10l-71 -264h-17
q12 126 -17 189t-124 63q-70 0 -121 -44.5t-51 -118.5q0 -26 8.5 -46.5t18 -33.5t34 -28t38 -21.5l48.5 -22.5q71 -32 108.5 -69t37.5 -99zM179 -244l-8 14q41 19 65 46.5t23 56.5q-9 -19 -32 -19q-16 0 -28.5 11.5t-12.5 28.5q0 20 13 32.5t32 12.5q24 0 37.5 -16.5
t13.5 -40.5q0 -41 -29 -73.5t-74 -52.5z" />
    <glyph glyph-name="scommaaccent" unicode="&#x219;" horiz-adv-x="396" 
d="M323 144q0 -67 -49 -113t-117 -46q-62 0 -100.5 27.5t-38.5 68.5q0 22 13 36.5t34 14.5q16 0 26.5 -10.5t10.5 -25.5q0 -18 -13.5 -30.5t-13.5 -19.5q0 -19 20.5 -32.5t61.5 -13.5q59 0 95 36.5t36 91.5q0 21 -7 37t-23 29t-27 19.5t-35 18.5q-29 15 -47.5 27.5t-34 37.5
t-15.5 56q0 58 44.5 96.5t109.5 38.5q51 0 86 -23t35 -62q0 -23 -13 -36.5t-32 -13.5q-16 0 -27 10.5t-11 26.5q0 17 13.5 29.5t13.5 19.5q0 14 -16.5 24t-49.5 10q-52 0 -85 -31.5t-33 -76.5q0 -26 14.5 -46t29.5 -29.5t45 -23.5q47 -23 73.5 -50t26.5 -72zM77 -245l-8 14
q41 19 65 46.5t23 56.5q-9 -19 -32 -19q-16 0 -28.5 11.5t-12.5 28.5q0 19 13 32t32 13q24 0 37.5 -16.5t13.5 -40.5q0 -41 -29 -73.5t-74 -52.5z" />
    <glyph glyph-name="circumflex" unicode="&#x2c6;" 
d="M405 708l-174 -130h-6l175 172h42l65 -172h-9z" />
    <glyph glyph-name="caron" unicode="&#x2c7;" 
d="M364 578h-42l-65 172h9l93 -130l174 130h6z" />
    <glyph glyph-name="breve" unicode="&#x2d8;" 
d="M514 730q-44 -129 -157 -129t-96 129h4q1 -37 25 -61t76 -24q96 0 144 85h4z" />
    <glyph glyph-name="dotaccent" unicode="&#x2d9;" 
d="M414 660q0 -19 -12.5 -31.5t-30.5 -12.5t-30.5 12t-12.5 31t12.5 31.5t30.5 12.5t30.5 -12t12.5 -31z" />
    <glyph glyph-name="ring" unicode="&#x2da;" 
d="M481 658q0 -40 -27.5 -67t-71.5 -28q-43 0 -70.5 27.5t-27.5 67.5t27.5 67t70.5 27q44 0 71.5 -27t27.5 -67zM312 658q0 -34 18.5 -57.5t51.5 -23.5q34 0 52.5 23.5t18.5 57.5q0 33 -18.5 56.5t-52.5 23.5q-33 0 -51.5 -23.5t-18.5 -56.5z" />
    <glyph glyph-name="ogonek" unicode="&#x2db;" 
d="M265 -127q-32 -55 -67 -84.5t-82 -29.5q-30 0 -50 18t-20 48q0 36 24.5 67t71.5 66q59 45 104 84l6 -7q-86 -75 -100 -88q-68 -65 -68 -118q0 -20 12 -33t33 -13q60 0 122 98z" />
    <glyph glyph-name="tilde" unicode="&#x2dc;" 
d="M260 611l-4 -1q-3 13 -3 26q0 31 15 56t52 25q26 0 72 -33t66 -33q21 0 33 10.5t18 41.5h4q-13 -89 -73 -89q-27 0 -72.5 33t-64.5 33q-43 0 -43 -59v-10z" />
    <glyph glyph-name="hungarumlaut" unicode="&#x2dd;" 
d="M358 578h-6q91 93 139 172h72v-3q-82 -91 -205 -169zM223 578h-6q91 93 139 172h72v-3q-82 -91 -205 -169z" />
    <glyph glyph-name="pi" unicode="&#x3c0;" horiz-adv-x="662" 
d="M510 -2q-23 -3 -44 -3q-49 0 -70 33t-3 100l82 304h-178q-24 -88 -70.5 -217t-87.5 -215h-33q89 163 163 432h-143l24 45h503l-12 -45h-138l-82 -303q-29 -110 51 -110q22 0 41 3z" />
    <glyph glyph-name="Wgrave" unicode="&#x1e80;" horiz-adv-x="927" 
d="M650 744h-6q-83 55 -132 123v2h62q29 -64 76 -125zM218 -5l-27 577q-2 47 -15.5 64.5t-53.5 24.5l-27 5l3 13q44 -1 131 -1t130 1l-3 -13l-57 -7q-42 -5 -55 -23.5t-11 -59.5l25 -516l316 621h34l30 -620l221 444q40 81 40 107q0 22 -15 32t-55 17l-30 5l3 13
q44 -1 133 -1q88 0 132 1l-3 -13l-26 -5q-49 -9 -79.5 -41t-79.5 -126l-224 -438l-31 -61h-25l-30 630l-294 -571l-30 -59h-27z" />
    <glyph glyph-name="wgrave" unicode="&#x1e81;" horiz-adv-x="665" 
d="M476 578h-6q-72 82 -110 169v3h59q14 -80 57 -172zM561 121q-38 -61 -85 -96t-94 -35q-71 0 -98 77q-38 -37 -69 -57t-64 -20q-40 0 -67.5 29t-27.5 79q0 84 49.5 164t129.5 166l-1 1q-21 -21 -48 -21q-22 0 -52.5 12.5t-43.5 12.5q-33 0 -33 -37q0 -19 6 -43l-10 -3
q-12 33 -12 64q0 29 15 49t42 20t61.5 -26.5t50.5 -26.5q17 0 28 14.5t11 39.5q20 5 20 -13q0 -16 -29 -51q-137 -163 -137 -307q0 -47 19 -70.5t45 -23.5q52 0 113 61q-8 32 -8 65q0 66 22 144t61 135.5t81 57.5q46 0 46 -59q0 -55 -49.5 -152t-113.5 -169q19 -83 80 -83
q80 0 150 112q69 113 69 244q0 33 -20 33q-3 0 -8.5 -0.5t-9.5 -0.5q-16 0 -27.5 10t-11.5 27q0 19 12 31t31 12q59 0 59 -93q0 -142 -82 -273zM316 118l8 10q56 68 94 148t38 135q0 49 -35 49q-47 0 -78.5 -90t-31.5 -199q0 -32 5 -53z" />
    <glyph glyph-name="Wacute" unicode="&#x1e82;" horiz-adv-x="927" 
d="M532 744h-6q85 65 137 125h74v-2q-84 -66 -205 -123zM218 -5l-27 577q-2 47 -15.5 64.5t-53.5 24.5l-27 5l3 13q44 -1 131 -1t130 1l-3 -13l-57 -7q-42 -5 -55 -23.5t-11 -59.5l25 -516l316 621h34l30 -620l221 444q40 81 40 107q0 22 -15 32t-55 17l-30 5l3 13
q44 -1 133 -1q88 0 132 1l-3 -13l-26 -5q-49 -9 -79.5 -41t-79.5 -126l-224 -438l-31 -61h-25l-30 630l-294 -571l-30 -59h-27z" />
    <glyph glyph-name="wacute" unicode="&#x1e83;" horiz-adv-x="665" 
d="M372 578h-6q91 93 139 172h72v-3q-82 -91 -205 -169zM561 121q-38 -61 -85 -96t-94 -35q-71 0 -98 77q-38 -37 -69 -57t-64 -20q-40 0 -67.5 29t-27.5 79q0 84 49.5 164t129.5 166l-1 1q-21 -21 -48 -21q-22 0 -52.5 12.5t-43.5 12.5q-33 0 -33 -37q0 -19 6 -43l-10 -3
q-12 33 -12 64q0 29 15 49t42 20t61.5 -26.5t50.5 -26.5q17 0 28 14.5t11 39.5q20 5 20 -13q0 -16 -29 -51q-137 -163 -137 -307q0 -47 19 -70.5t45 -23.5q52 0 113 61q-8 32 -8 65q0 66 22 144t61 135.5t81 57.5q46 0 46 -59q0 -55 -49.5 -152t-113.5 -169q19 -83 80 -83
q80 0 150 112q69 113 69 244q0 33 -20 33q-3 0 -8.5 -0.5t-9.5 -0.5q-16 0 -27.5 10t-11.5 27q0 19 12 31t31 12q59 0 59 -93q0 -142 -82 -273zM316 118l8 10q56 68 94 148t38 135q0 49 -35 49q-47 0 -78.5 -90t-31.5 -199q0 -32 5 -53z" />
    <glyph glyph-name="Wdieresis" unicode="&#x1e84;" horiz-adv-x="927" 
d="M556 787q0 -19 -12.5 -31.5t-30.5 -12.5t-30.5 12t-12.5 31t12.5 31.5t30.5 12.5t30.5 -12t12.5 -31zM740 787q0 -19 -12.5 -31.5t-30.5 -12.5t-30.5 12t-12.5 31t12.5 31.5t30.5 12.5t30.5 -12t12.5 -31zM218 -5l-27 577q-2 47 -15.5 64.5t-53.5 24.5l-27 5l3 13
q44 -1 131 -1t130 1l-3 -13l-57 -7q-42 -5 -55 -23.5t-11 -59.5l25 -516l316 621h34l30 -620l221 444q40 81 40 107q0 22 -15 32t-55 17l-30 5l3 13q44 -1 133 -1q88 0 132 1l-3 -13l-26 -5q-49 -9 -79.5 -41t-79.5 -126l-224 -438l-31 -61h-25l-30 630l-294 -571l-30 -59
h-27z" />
    <glyph glyph-name="wdieresis" unicode="&#x1e85;" horiz-adv-x="665" 
d="M405 660q0 -19 -12.5 -31.5t-30.5 -12.5t-30.5 12t-12.5 31t12.5 31.5t30.5 12.5t30.5 -12t12.5 -31zM589 660q0 -19 -12.5 -31.5t-30.5 -12.5t-30.5 12t-12.5 31t12.5 31.5t30.5 12.5t30.5 -12t12.5 -31zM561 121q-38 -61 -85 -96t-94 -35q-71 0 -98 77q-38 -37 -69 -57
t-64 -20q-40 0 -67.5 29t-27.5 79q0 84 49.5 164t129.5 166l-1 1q-21 -21 -48 -21q-22 0 -52.5 12.5t-43.5 12.5q-33 0 -33 -37q0 -19 6 -43l-10 -3q-12 33 -12 64q0 29 15 49t42 20t61.5 -26.5t50.5 -26.5q17 0 28 14.5t11 39.5q20 5 20 -13q0 -16 -29 -51
q-137 -163 -137 -307q0 -47 19 -70.5t45 -23.5q52 0 113 61q-8 32 -8 65q0 66 22 144t61 135.5t81 57.5q46 0 46 -59q0 -55 -49.5 -152t-113.5 -169q19 -83 80 -83q80 0 150 112q69 113 69 244q0 33 -20 33q-3 0 -8.5 -0.5t-9.5 -0.5q-16 0 -27.5 10t-11.5 27q0 19 12 31
t31 12q59 0 59 -93q0 -142 -82 -273zM316 118l8 10q56 68 94 148t38 135q0 49 -35 49q-47 0 -78.5 -90t-31.5 -199q0 -32 5 -53z" />
    <glyph glyph-name="Ygrave" unicode="&#x1ef2;" horiz-adv-x="597" 
d="M436 744h-6q-83 55 -132 123v2h62q29 -64 76 -125zM387 0q-27 0 -81.5 0.5t-81.5 0.5q-28 0 -82 -0.5t-82 -0.5l3 13l72 7q41 4 59.5 21t28.5 51l47 177l-90 302q-16 53 -30 68t-53 22l-27 5l3 13q44 -1 133 -1q88 0 132 1l-3 -13l-58 -7q-41 -5 -53.5 -21.5t-2.5 -52.5
l87 -298l195 230q67 79 67 107q0 15 -14.5 23t-49.5 13l-37 6l3 13q44 -1 133 -1q88 0 132 1l-3 -13l-21 -4q-47 -9 -81.5 -37t-114.5 -120l-202 -234l-48 -179q-9 -33 3 -50.5t52 -21.5l68 -7z" />
    <glyph glyph-name="ygrave" unicode="&#x1ef3;" horiz-adv-x="492" 
d="M367 578h-6q-72 82 -110 169v3h59q14 -80 57 -172zM123 -244q-56 0 -89 25t-33 65q0 23 12.5 38.5t33.5 15.5q18 0 28.5 -10t10.5 -26q0 -18 -15.5 -31.5t-15.5 -23.5q0 -16 19 -27t48 -11q127 0 174 168l11 39q14 50 31.5 103.5l41.5 123l35 103.5q-106 -323 -241 -323
q-44 0 -69 24.5t-25 63.5q0 40 24 104l58 152q22 57 22 87q0 47 -42 47q-31 0 -56 -35.5t-54 -111.5l-16 5q35 88 62.5 125t72.5 37q32 0 52.5 -18t20.5 -51q0 -36 -24 -102l-58 -154q-21 -54 -21 -86q0 -66 63 -66q66 0 127 96t100 233l40 138q12 -1 22 -1l21 1l-151 -518
q-30 -103 -88.5 -151t-131.5 -48z" />
    <glyph glyph-name="endash" unicode="&#x2013;" horiz-adv-x="495" 
d="M19 221l8 30h460l-10 -30h-458z" />
    <glyph glyph-name="emdash" unicode="&#x2014;" horiz-adv-x="912" 
d="M19 221l8 30h877l-9 -30h-876z" />
    <glyph glyph-name="quoteleft" unicode="&#x2018;" horiz-adv-x="279" 
d="M324 723l6 -12q-50 -22 -81.5 -58t-31.5 -63q0 -12 11 -12q2 0 8.5 1t10.5 1q16 0 27.5 -10.5t11.5 -29.5t-14 -32.5t-36 -13.5q-25 0 -39.5 16.5t-14.5 44.5q0 52 40.5 97.5t101.5 70.5z" />
    <glyph glyph-name="quoteright" unicode="&#x2019;" horiz-adv-x="254" 
d="M159 492l-6 12q50 22 81.5 58t31.5 63q0 12 -11 12q-2 0 -8.5 -1t-10.5 -1q-16 0 -27.5 10.5t-11.5 29.5t14 32.5t36 13.5q25 0 39.5 -16.5t14.5 -44.5q0 -52 -40.5 -97.5t-101.5 -70.5z" />
    <glyph glyph-name="quotesinglbase" unicode="&#x201a;" horiz-adv-x="224" 
d="M-22 -154l-6 12q50 22 81.5 58t31.5 63q0 12 -11 12q-2 0 -8.5 -1t-10.5 -1q-16 0 -27.5 10.5t-11.5 29.5t14 32.5t36 13.5q25 0 39.5 -16.5t14.5 -44.5q0 -52 -40.5 -97.5t-101.5 -70.5z" />
    <glyph glyph-name="quotedblleft" unicode="&#x201c;" horiz-adv-x="431" 
d="M476 723l6 -12q-50 -22 -81.5 -58t-31.5 -63q0 -12 11 -12q2 0 8.5 1t10.5 1q16 0 27.5 -10.5t11.5 -29.5t-14 -32.5t-36 -13.5q-25 0 -39.5 16.5t-14.5 44.5q0 52 40.5 97.5t101.5 70.5zM324 723l6 -12q-50 -22 -81.5 -58t-31.5 -63q0 -12 11 -12q2 0 8.5 1t10.5 1
q16 0 27.5 -10.5t11.5 -29.5t-14 -32.5t-36 -13.5q-25 0 -39.5 16.5t-14.5 44.5q0 52 40.5 97.5t101.5 70.5z" />
    <glyph glyph-name="quotedblright" unicode="&#x201d;" horiz-adv-x="406" 
d="M311 492l-6 12q50 22 81.5 58t31.5 63q0 12 -11 12q-2 0 -8.5 -1t-10.5 -1q-16 0 -27.5 10.5t-11.5 29.5t14 32.5t36 13.5q25 0 39.5 -16.5t14.5 -44.5q0 -52 -40.5 -97.5t-101.5 -70.5zM159 492l-6 12q50 22 81.5 58t31.5 63q0 12 -11 12q-2 0 -8.5 -1t-10.5 -1
q-16 0 -27.5 10.5t-11.5 29.5t14 32.5t36 13.5q25 0 39.5 -16.5t14.5 -44.5q0 -52 -40.5 -97.5t-101.5 -70.5z" />
    <glyph glyph-name="quotedblbase" unicode="&#x201e;" horiz-adv-x="376" 
d="M130 -154l-6 12q50 22 81.5 58t31.5 63q0 12 -11 12q-2 0 -8.5 -1t-10.5 -1q-16 0 -27.5 10.5t-11.5 29.5t14 32.5t36 13.5q25 0 39.5 -16.5t14.5 -44.5q0 -52 -40.5 -97.5t-101.5 -70.5zM-22 -154l-6 12q50 22 81.5 58t31.5 63q0 12 -11 12q-2 0 -8.5 -1t-10.5 -1
q-16 0 -27.5 10.5t-11.5 29.5t14 32.5t36 13.5q25 0 39.5 -16.5t14.5 -44.5q0 -52 -40.5 -97.5t-101.5 -70.5z" />
    <glyph glyph-name="dagger" unicode="&#x2020;" horiz-adv-x="422" 
d="M316 445q-1 -5 -33.5 -79t-65.5 -192l-8 2q22 88 30.5 145t9 83.5t3.5 40.5q6 24 30 61t32 60q-38 0 -74 -15.5t-48 -15.5q-36 0 -36 34q0 14 11 24t29 10q12 0 46 -15.5t73 -15.5q8 38 3 73.5t-2 47.5q5 18 18.5 26.5t27.5 4.5q30 -7 21 -44q-3 -12 -26 -42t-35 -66
q38 0 72 15.5t46 15.5q18 0 27 -9.5t9 -24.5q0 -14 -10.5 -24t-29.5 -10q-12 0 -44 15.5t-71 15.5q-4 -24 -1 -63.5t-4 -57.5z" />
    <glyph glyph-name="daggerdbl" unicode="&#x2021;" horiz-adv-x="423" 
d="M281 313q-3 -10 -17 -37.5t-35 -82t-43 -133.5l-8 2q21 79 29 135.5t9.5 84t4.5 38.5q5 18 25.5 46.5t27.5 49.5q-38 0 -74 -15.5t-48 -15.5q-36 0 -36 34q0 14 11 24t29 10q12 0 46 -15.5t73 -15.5q4 21 -0.5 46t-0.5 38q3 13 20.5 35.5t24.5 43.5q-39 0 -75 -15.5
t-47 -15.5q-36 0 -36 34q0 14 11 24t29 10q11 0 46 -15.5t73 -15.5q6 30 0 61t-3 42q10 36 44 30q31 -6 22 -44q-2 -10 -24 -35t-32 -54q39 0 73 15.5t45 15.5q18 0 27 -9.5t9 -24.5q0 -14 -10.5 -24t-29.5 -10q-11 0 -44 15.5t-71 15.5q-4 -22 0.5 -47.5t1.5 -37.5
q-4 -13 -21.5 -35t-24.5 -43q38 0 72 15.5t46 15.5q18 0 27 -9.5t9 -24.5q0 -14 -10.5 -24t-29.5 -10q-12 0 -44 15.5t-71 15.5q-4 -22 0.5 -54.5t-0.5 -48.5z" />
    <glyph glyph-name="bullet" unicode="&#x2022;" horiz-adv-x="444" 
d="M354 242q0 -57 -42 -97.5t-99 -40.5q-52 0 -87 35.5t-35 87.5q0 58 41 99t99 41q52 0 87.5 -36t35.5 -89z" />
    <glyph glyph-name="ellipsis" unicode="&#x2026;" horiz-adv-x="602" 
d="M123 42q0 -21 -14 -34t-34 -13q-18 0 -32.5 13.5t-14.5 33.5q0 21 14 34t33 13q20 0 34 -13t14 -34zM298 42q0 -21 -14 -34t-34 -13q-18 0 -32.5 13.5t-14.5 33.5q0 21 14 34t33 13q20 0 34 -13t14 -34zM473 42q0 -21 -14 -34t-34 -13q-18 0 -32.5 13.5t-14.5 33.5
q0 21 14 34t33 13q20 0 34 -13t14 -34z" />
    <glyph glyph-name="perthousand" unicode="&#x2030;" horiz-adv-x="946" 
d="M384 519q0 -61 -45 -108t-109 -47q-52 0 -83.5 29.5t-31.5 81.5q0 61 45 108t109 47q52 0 83.5 -29.5t31.5 -81.5zM10 0l320 321l293 301h29l-310 -313l-303 -309h-29zM154 465q0 -84 76 -84q37 0 66.5 26.5t41.5 76.5q7 24 7 45q0 84 -76 84q-37 0 -66.5 -26.5
t-42.5 -76.5q-6 -26 -6 -45zM705 -10q-52 0 -83.5 29.5t-31.5 81.5q0 61 45 108t109 47q52 0 83.5 -29.5t31.5 -81.5q0 -61 -45 -108t-109 -47zM407 -10q-52 0 -83.5 29.5t-31.5 81.5q0 61 45 108t109 47q52 0 83.5 -29.5t31.5 -81.5q0 -61 -45 -108t-109 -47zM705 7
q37 0 66.5 26.5t41.5 76.5q7 24 7 45q0 84 -76 84q-37 0 -66.5 -26.5t-42.5 -76.5q-6 -26 -6 -45q0 -84 76 -84zM407 7q37 0 66.5 26.5t41.5 76.5q7 24 7 45q0 84 -76 84q-37 0 -66.5 -26.5t-42.5 -76.5q-6 -26 -6 -45q0 -84 76 -84z" />
    <glyph glyph-name="guilsinglleft" unicode="&#x2039;" horiz-adv-x="316" 
d="M185 47l-133 182l3 13l209 183h15l-183 -192l103 -186h-14z" />
    <glyph glyph-name="guilsinglright" unicode="&#x203a;" horiz-adv-x="316" 
d="M125 425l133 -182l-3 -13l-209 -183h-15l183 192l-103 186h14z" />
    <glyph glyph-name="asterism" unicode="&#x2042;" horiz-adv-x="750" 
d="M353 426q0 -14 -8 -22t-20 -8q-27 0 -27 31q0 7 11 43.5t13 86.5q-41 -25 -66.5 -54t-32.5 -33q-27 -15 -42 7q-6 11 -2 22.5t15 17.5q6 4 44.5 13t80.5 32q-42 23 -80.5 31t-44.5 12q-12 7 -15 18.5t3 21.5q11 24 42 8q6 -3 32 -32t67 -54q-3 50 -14 85.5t-11 43.5
q0 15 7.5 23t19.5 8q13 0 20.5 -8.5t7.5 -22.5q0 -7 -11 -43t-13 -86q40 25 65.5 53.5t33.5 32.5q11 7 23.5 5t17.5 -12q14 -26 -13 -40q-6 -4 -44 -13t-80 -32q42 -22 80 -30.5t44 -12.5q27 -14 14 -40q-14 -24 -43 -8q-7 4 -32.5 32.5t-65.5 53.5q2 -50 13 -86.5t11 -43.5
zM636 130q0 -14 -8 -22t-20 -8q-27 0 -27 31q0 7 11 43.5t13 86.5q-41 -25 -66.5 -54t-32.5 -33q-27 -15 -42 7q-6 11 -2 22.5t15 17.5q6 4 44.5 13t80.5 32q-42 23 -80.5 31t-44.5 12q-12 7 -15 18.5t3 21.5q11 24 42 8q6 -3 32 -32t67 -54q-3 50 -14 85.5t-11 43.5
q0 15 7.5 23t19.5 8q13 0 20.5 -8.5t7.5 -22.5q0 -7 -11 -43t-13 -86q40 25 65.5 53.5t33.5 32.5q11 7 23.5 5t17.5 -12q14 -26 -13 -40q-6 -4 -44 -13t-80 -32q42 -22 80 -30.5t44 -12.5q27 -14 14 -40q-14 -24 -43 -8q-7 4 -32.5 32.5t-65.5 53.5q2 -50 13 -86.5t11 -43.5
zM237 24q0 -14 -8 -22t-20 -8q-27 0 -27 31q0 7 11 43.5t13 86.5q-41 -25 -66.5 -54t-32.5 -33q-27 -15 -42 7q-6 11 -2 22.5t15 17.5q6 4 44.5 13t80.5 32q-42 23 -80.5 31t-44.5 12q-12 7 -15 18.5t3 21.5q11 24 42 8q6 -3 32 -32t67 -54q-3 50 -14 85.5t-11 43.5
q0 15 7.5 23t19.5 8q13 0 20.5 -8.5t7.5 -22.5q0 -7 -11 -43t-13 -86q40 25 65.5 53.5t33.5 32.5q11 7 23.5 5t17.5 -12q14 -26 -13 -40q-6 -4 -44 -13t-80 -32q42 -22 80 -30.5t44 -12.5q27 -14 14 -40q-14 -24 -43 -8q-7 4 -32.5 32.5t-65.5 53.5q2 -50 13 -86.5t11 -43.5
z" />
    <glyph glyph-name="fraction" unicode="&#x2044;" horiz-adv-x="629" 
d="M30 -13l-24 23l343 335l321 342l24 -23l-336 -330z" />
    <glyph glyph-name="franc" unicode="&#x20a3;" horiz-adv-x="562" 
d="M275 13l-3 -13q-26 0 -78.5 0.5t-78.5 0.5t-78.5 -0.5t-78.5 -0.5l3 13l65 7q38 4 55 18t25 43l123 460q8 29 -1 43t-47 18l-61 7l3 13h486l-40 -217h-15q3 53 4 80.5t-1.5 53.5t-7.5 36t-18 18.5t-28 9.5t-43 1h-170l-73 -274h80q50 0 76 29t62 120h14l-43 -161
l-42 -161h-13q8 59 7.5 93.5t-13.5 48t-46 13.5h-87l-59 -220q-9 -33 3 -50.5t51 -21.5z" />
    <glyph glyph-name="trademark" unicode="&#x2122;" horiz-adv-x="889" 
d="M407 379v-13h-162v13l48 8q10 1 10 11v260h-55q-19 0 -26 -5.5t-11 -20.5l-14 -56h-15l5 103h278l4 -103h-14l-15 56q-4 14 -11.5 20t-25.5 6h-55v-260q0 -10 10 -11zM702 365l-88 202l-23 61h-2v-225q0 -12 12 -15l41 -9v-13h-128v13l42 9q12 3 12 15v244q0 9 -9 11
l-45 8v13h100l84 -196l25 -68h2l117 264h95v-8l-40 -8q-9 -1 -9 -11v-254q0 -10 9 -11l40 -8v-13h-147v13l44 8q9 1 9 11v230h-2l-117 -263h-22z" />
    <glyph glyph-name="ohm" unicode="&#x2126;" horiz-adv-x="742" 
d="M24 0l7 28h224q-64 58 -104.5 138.5t-40.5 169.5q0 144 105.5 247.5t241.5 103.5q113 0 186.5 -62.5t73.5 -180.5q0 -135 -88.5 -244.5t-232.5 -171.5h221l-7 -28h-250l7 33q141 67 222 180t81 239q0 104 -58.5 162t-154.5 58q-117 0 -209.5 -106.5t-92.5 -244.5
q0 -146 123 -288l-8 -33h-246z" />
    <glyph glyph-name="estimated" unicode="&#x212e;" horiz-adv-x="755" 
d="M655 353v230q-80 91 -228 91q-75 0 -138.5 -30t-106.5 -86v-205h473zM706 144q-98 -158 -291 -158q-145 0 -238 97.5t-93 256.5q0 158 97.5 255t245.5 97q149 0 239.5 -87t90.5 -244q0 -21 -1 -31h-574v-217q85 -109 236 -109q176 0 271 151z" />
    <glyph glyph-name="arrowleft" unicode="&#x2190;" horiz-adv-x="900" 
d="M438 10l-6 -6q-132 129 -320 223q-12 6 -12 11t12 11q188 94 320 223l6 -6q-42 -60 -118 -123t-140 -93q328 0 620 11v-46q-292 11 -620 11q64 -30 140 -93t118 -123z" />
    <glyph glyph-name="arrowup" unicode="&#x2191;" horiz-adv-x="900" 
d="M473 -112h-46q11 292 11 620q-30 -64 -93 -140t-123 -118l-6 6q129 132 223 320q6 12 11 12t11 -12q94 -188 223 -320l-6 -6q-60 42 -123 118t-93 140q0 -328 11 -620z" />
    <glyph glyph-name="arrowright" unicode="&#x2192;" horiz-adv-x="900" 
d="M468 4l-6 6q42 60 118 123t140 93q-329 0 -620 -11v46q292 -11 620 -11q-64 30 -140 93t-118 123l6 6q132 -129 320 -223q12 -6 12 -11t-12 -11q-188 -94 -320 -223z" />
    <glyph glyph-name="arrowdown" unicode="&#x2193;" horiz-adv-x="900" 
d="M461 -100q-6 -12 -11 -12t-11 12q-94 188 -223 320l6 6q60 -42 123 -118t93 -140q0 328 -11 620h46q-11 -291 -11 -620q30 64 93 140t123 118l6 -6q-129 -132 -223 -320z" />
    <glyph glyph-name="arrownorthwest" unicode="&#x2196;" horiz-adv-x="900" 
d="M707 13l-32 -33l-431 447q24 -67 33 -163.5t-3 -172.5h-9q-1 182 -68 384q-5 14 -1 17q5 3 16 -1q196 -66 384 -69v-8q-75 -13 -172 -4t-163 33z" />
    <glyph glyph-name="arrownortheast" unicode="&#x2197;" horiz-adv-x="900" 
d="M226 -19l-33 32l447 431q-67 -24 -163.5 -33t-172.5 3v9q182 1 384 68q14 5 17 1q3 -5 -1 -16q-66 -196 -69 -384h-8q-13 75 -4 172t33 163z" />
    <glyph glyph-name="arrowsoutheast" unicode="&#x2198;" horiz-adv-x="900" 
d="M703 0q5 -14 1 -17q-5 -3 -16 1q-196 66 -384 69v8q75 13 172 4t163 -33l-446 430l32 33l431 -447q-24 67 -33 163.5t3 172.5h9q1 -182 68 -384z" />
    <glyph glyph-name="arrowsouthwest" unicode="&#x2199;" horiz-adv-x="900" 
d="M212 -16q-11 -4 -16 -1q-4 3 1 17q67 202 68 384h9q12 -76 3 -172.5t-33 -163.5l431 447l32 -33l-446 -430q66 24 163 33t172 -4v-8q-188 -3 -384 -69z" />
    <glyph glyph-name="partialdiff" unicode="&#x2202;" horiz-adv-x="607" 
d="M269 -15q-74 0 -117.5 43.5t-43.5 117.5q0 77 34.5 148.5t99.5 118.5t143 47q98 0 149 -61q7 46 7 91q0 183 -137 183q-60 0 -145 -37l-5 13q87 40 155 40q84 0 130 -51t46 -151q0 -79 -22 -165t-60.5 -162t-100.5 -125.5t-133 -49.5zM270 0q48 0 91 31.5t75 84.5t55 114
t36 127q-47 88 -142 88q-65 0 -120 -47.5t-84 -118t-29 -143.5q0 -63 29.5 -99.5t88.5 -36.5z" />
    <glyph glyph-name="increment" unicode="&#x2206;" horiz-adv-x="724" 
d="M-29 0l492 679h44l128 -679h-664zM27 28h553l-111 608z" />
    <glyph glyph-name="product" unicode="&#x220f;" horiz-adv-x="771" 
d="M139 -115l200 749h-163l12 45h651l-12 -45h-163l-200 -749h-28l200 749h-269l-200 -749h-28z" />
    <glyph glyph-name="summation" unicode="&#x2211;" horiz-adv-x="549" 
d="M423 -115h-461l7 27l386 388l-181 357l6 22h426l-7 -28h-369l172 -341l-395 -397h423z" />
    <glyph glyph-name="minus" unicode="&#x2212;" horiz-adv-x="550" 
d="M53 222l7 28h438l-7 -28h-438z" />
    <glyph glyph-name="radical" unicode="&#x221a;" horiz-adv-x="618" 
d="M222 -12h-33l22 493l-135 -51l-8 27l191 70l-24 -468l449 706h34z" />
    <glyph glyph-name="infinity" unicode="&#x221e;" horiz-adv-x="583" 
d="M402 112q57 0 105.5 51t48.5 116q0 41 -23.5 64.5t-63.5 23.5q-82 0 -157 -96q2 -8 4 -22q9 -67 28 -102t58 -35zM114 106q82 0 157 96q-2 8 -4 22q-9 67 -28 102t-58 35q-57 0 -105.5 -51t-48.5 -116q0 -41 23.5 -64.5t63.5 -23.5zM580 281q0 -77 -57.5 -136t-135.5 -59
q-44 0 -71 22.5t-40 71.5q-77 -95 -165 -95q-50 0 -79.5 29t-28.5 78q0 77 57.5 136t135.5 59q44 0 71 -22.5t40 -71.5q77 95 165 95q50 0 79.5 -29t28.5 -78z" />
    <glyph glyph-name="integral" unicode="&#x222b;" horiz-adv-x="440" 
d="M-57 -238l6 26q54 0 86 25.5t48 82.5l203 740q20 69 62 103t99 34q40 0 73 -13l-12 -21q-28 10 -59 10q-45 0 -73 -25.5t-45 -87.5l-198 -724q-40 -150 -190 -150z" />
    <glyph glyph-name="approxequal" unicode="&#x2248;" horiz-adv-x="550" 
d="M524 372q-26 -98 -117 -98q-41 0 -112.5 38t-108.5 38q-66 0 -88 -72h-25q26 98 117 98q41 0 112.5 -38t108.5 -38q66 0 87 72h26zM481 196q-26 -98 -117 -98q-41 0 -112.5 38t-108.5 38q-66 0 -88 -72h-25q26 98 117 98q41 0 112.5 -38t108.5 -38q66 0 87 72h26z" />
    <glyph glyph-name="notequal" unicode="&#x2260;" horiz-adv-x="550" 
d="M187 127l-122 -127l-18 16l107 111h-122l7 28h142l155 162h-258l7 28h278l122 127l18 -16l-107 -111h127l-7 -28h-147l-155 -162h263l-7 -28h-283z" />
    <glyph glyph-name="lessequal" unicode="&#x2264;" horiz-adv-x="550" 
d="M392 0h-403l7 28h376l-332 192l8 33l455 202l11 -26l-445 -195l335 -191z" />
    <glyph glyph-name="greaterequal" unicode="&#x2265;" horiz-adv-x="550" 
d="M427 0h-416l11 45l445 193l-335 193l16 24l348 -203l-8 -33l-435 -191h381z" />
    <glyph glyph-name="blackuppointingtriangle" unicode="&#x25b2;" horiz-adv-x="600" 
d="M11 40l239 412l238 -412h-477z" />
    <glyph glyph-name="blackrightpointingtriangle" unicode="&#x25b6;" horiz-adv-x="600" 
d="M139 0v477l412 -239z" />
    <glyph glyph-name="blackdownpointingtriangle" unicode="&#x25bc;" horiz-adv-x="600" 
d="M347 24l-238 412h477z" />
    <glyph glyph-name="blackleftpointingtriangle" unicode="&#x25c0;" horiz-adv-x="600" 
d="M483 0l-412 238l412 239v-477z" />
    <glyph glyph-name="lozenge" unicode="&#x25ca;" horiz-adv-x="631" 
d="M253 0l-152 340l333 339h34l153 -339l-334 -340h-34zM274 26l314 317l-141 310l-314 -317z" />
    <glyph glyph-name="blacklowerrighttriangle" unicode="&#x25e2;" horiz-adv-x="600" 
d="M224 7l-122 461l460 -124z" />
    <glyph glyph-name="blacklowerlefttriangle" unicode="&#x25e3;" horiz-adv-x="600" 
d="M50 7l122 461l338 -337z" />
    <glyph glyph-name="blackupperlefttriangle" unicode="&#x25e4;" horiz-adv-x="600" 
d="M470 7l-460 124l338 337z" />
    <glyph glyph-name="blackupperrighttriangle" unicode="&#x25e5;" horiz-adv-x="600" 
d="M415 8l-338 337l460 124z" />
    <glyph glyph-name="heart" unicode="&#x2665;" horiz-adv-x="793" 
d="M482 509q26 185 167 185q81 0 127 -52t46 -136q0 -56 -38 -122t-88 -120.5t-114 -132t-100 -141.5q-36 64 -99.5 141.5t-113.5 132t-88 120.5t-38 122q0 84 46 136t127 52q144 0 166 -185z" />
    <glyph glyph-name="dotlessj" unicode="&#xf6be;" horiz-adv-x="310" 
d="M148 -33q-33 -124 -80.5 -167.5t-108.5 -43.5q-47 0 -75.5 23.5t-28.5 59.5q0 23 13 38t33 15q17 0 28 -10.5t11 -25.5q0 -19 -16 -33q-15 -13 -15 -23q0 -12 14 -20.5t37 -8.5q49 0 81 37t57 131l96 357q21 76 21 121q0 21 -12 33.5t-33 12.5q-31 0 -58 -36.5
t-55 -110.5l-16 5q34 85 64 123.5t76 38.5q32 0 53 -18.5t21 -51.5q0 -45 -21 -126z" />
    <glyph glyph-name="commaaccent" unicode="&#xf6c3;" 
d="M124 -245l-8 14q41 19 65 46.5t23 56.5q-9 -19 -32 -19q-16 0 -28.5 11.5t-12.5 28.5q0 19 12.5 32t32.5 13q24 0 37.5 -16.5t13.5 -40.5q0 -41 -29 -73.5t-74 -52.5z" />
    <glyph glyph-name="A.small" horiz-adv-x="529" 
d="M492 13l-3 -13q-19 0 -56 0.5t-55 0.5t-55 -0.5t-56 -0.5l3 13l42 4q34 3 46.5 15.5t9.5 42.5l-9 94h-218l-22 -36q-40 -67 -37 -87.5t51 -28.5l23 -4l-3 -13q-17 0 -50.5 0.5t-50.5 0.5q-18 0 -52 -0.5t-52 -0.5l3 13l18 3q36 6 59 27.5t71 97.5l204 324l33 58h34
l46 -442q4 -35 14 -47t38 -17zM331 476l-179 -289h206z" />
    <glyph glyph-name="B.small" horiz-adv-x="514" 
d="M-23 0l3 13l45 5q33 4 46.5 13.5t19.5 31.5l105 393q6 23 -1 32.5t-38 13.5l-49 5l3 13h221q166 0 166 -101q0 -57 -52 -96t-129 -48v-1q147 -10 147 -108q0 -80 -72 -123t-185 -43h-230zM196 282h77q85 0 130 42t45 107q0 38 -27.5 54.5t-91.5 16.5h-74zM179 18h32
q95 0 148 43t53 119q0 84 -140 84h-81l-53 -198q-7 -27 2 -37.5t39 -10.5z" />
    <glyph glyph-name="C.small" horiz-adv-x="545" 
d="M419 -8l-5 60q-67 -64 -166 -64q-86 0 -140 52.5t-54 148.5q0 139 89.5 241t219.5 102q106 0 147 -71l43 68h8l-57 -213h-14q2 48 -1.5 80t-16 61t-39.5 43.5t-70 14.5q-59 0 -108.5 -32t-81 -83t-48.5 -110t-17 -116q0 -81 35.5 -125t103.5 -44q137 0 218 190h16
l-54 -203h-8z" />
    <glyph glyph-name="D.small" horiz-adv-x="563" 
d="M-23 0l3 13l45 5q33 4 46.5 13.5t19.5 31.5l105 393q6 23 -1 32.5t-38 13.5l-49 5l3 13h232q97 0 155 -50.5t58 -140.5q0 -141 -95 -235t-250 -94h-234zM178 18h34q132 0 211.5 96t79.5 235q0 73 -40 113t-122 40h-86l-117 -436q-8 -27 1 -37.5t39 -10.5z" />
    <glyph glyph-name="E.small" horiz-adv-x="518" 
d="M470 182l-57 -182h-436l3 13l45 5q33 4 46.5 13.5t19.5 31.5l105 393q6 23 -1 32.5t-38 13.5l-49 5l3 13h411l-31 -166h-13q1 74 -5 102.5t-22.5 37t-61.5 8.5h-134l-60 -225h73q41 0 63.5 22t53.5 91h12l-34 -124l-32 -125h-11q7 72 -2.5 95.5t-49.5 23.5h-78l-52 -194
q-7 -27 2 -37.5t39 -10.5h92q68 0 102 29.5t84 134.5h13z" />
    <glyph glyph-name="F.small" horiz-adv-x="480" 
d="M236 12l-2 -12q-22 0 -66 0.5t-65 0.5t-63 -0.5t-63 -0.5l3 13l45 5q33 4 46.5 13.5t19.5 31.5l105 393q6 23 -1 32.5t-38 13.5l-49 5l3 13h409l-31 -168h-13q1 56 -1 83t-12.5 44t-26 20t-49.5 3h-133l-60 -226h68q42 0 64 21.5t53 90.5h12l-33 -124l-33 -124h-11
q7 72 -2 95t-49 23h-74l-50 -187q-7 -25 2 -37t40 -16z" />
    <glyph glyph-name="G.small" horiz-adv-x="564" 
d="M421 -10l-10 64q-68 -66 -168 -66q-85 0 -137 52t-52 149q0 139 89.5 241t219.5 102q106 0 147 -72l43 68h8l-57 -213h-14q2 48 -1.5 80.5t-16 61.5t-39.5 43.5t-70 14.5q-59 0 -109 -32t-81 -83t-48 -110t-17 -116q0 -169 134 -169q67 0 112.5 34t58.5 87l11 43
q6 22 -3.5 33.5t-43.5 15.5l-55 6l2 12h257l-3 -13l-46 -5q-30 -4 -43.5 -14.5t-19.5 -33.5l-19 -73l-22 -107h-7z" />
    <glyph glyph-name="H.small" horiz-adv-x="612" 
d="M548 0q-20 0 -61.5 0.5t-62.5 0.5q-20 0 -60.5 -0.5t-61.5 -0.5l3 13l46 5q33 4 46 13.5t19 32.5l52 193h-279l-52 -193q-6 -23 1 -32.5t38 -13.5l49 -5l-3 -13q-21 0 -62.5 0.5t-62.5 0.5t-60.5 -0.5t-59.5 -0.5l3 13l45 5q33 4 46.5 13.5t19.5 31.5l105 393
q6 23 -1 32.5t-38 13.5l-49 5l3 13q41 -1 123 -1q81 0 122 1l-3 -13l-45 -5q-33 -4 -46.5 -13.5t-19.5 -31.5l-48 -180h280l48 179q6 23 -1 32.5t-38 13.5l-49 5l2 13q41 -1 126 -1q78 0 119 1l-2 -13l-46 -5q-33 -4 -46.5 -13.5t-19.5 -32.5l-105 -392q-6 -23 1 -32.5
t38 -13.5l49 -5z" />
    <glyph glyph-name="I.small" horiz-adv-x="287" 
d="M-23 0l3 13l45 5q33 4 46.5 13.5t19.5 31.5l105 393q6 23 -1 32.5t-38 13.5l-49 5l3 13q41 -1 123 -1q81 0 122 1l-3 -13l-45 -5q-33 -4 -46.5 -13.5t-19.5 -31.5l-105 -393q-6 -23 1 -32.5t38 -13.5l49 -5l-3 -13q-21 0 -62.5 0.5t-62.5 0.5t-60.5 -0.5t-59.5 -0.5z" />
    <glyph glyph-name="J.small" horiz-adv-x="416" 
d="M307 173q-49 -187 -201 -187q-54 0 -85 28.5t-31 73.5q0 27 12 44t35 17q15 0 23.5 -9.5t8.5 -22.5q0 -28 -31 -33q-15 -3 -15 -19q0 -25 20 -44t64 -19q56 0 91.5 35t55.5 109l81 300q7 29 -3 41t-52 16l-42 4l3 13q43 -1 130 -1q39 0 125 2l-2 -14l-46 -5
q-34 -4 -47 -14.5t-21 -38.5z" />
    <glyph glyph-name="K.small" horiz-adv-x="579" 
d="M528 0q-23 0 -63.5 0.5t-62.5 0.5q-23 0 -66 -0.5t-65 -0.5l2 12l36 4q26 3 36.5 8.5t10.5 17.5q0 14 -20 43l-135 190l196 147q41 32 54 44.5t13 22.5q0 12 -40 16l-25 3l3 12q38 -1 115 -1t116 1l-2 -13l-24 -3q-49 -6 -88.5 -24.5t-109.5 -70.5l-165 -121l131 -184
q34 -48 59 -65t70 -23l26 -3zM-23 0l3 13l45 5q33 4 46.5 13.5t19.5 31.5l105 393q6 23 -1 32.5t-38 13.5l-49 5l3 13q41 -1 123 -1q81 0 122 1l-3 -13l-45 -5q-33 -4 -46.5 -13.5t-19.5 -31.5l-105 -393q-6 -23 1 -32.5t38 -13.5l48 -5l-2 -13q-21 0 -62.5 0.5t-62.5 0.5
t-60.5 -0.5t-59.5 -0.5z" />
    <glyph glyph-name="L.small" horiz-adv-x="514" 
d="M-23 0l3 13l45 5q33 4 46.5 13.5t19.5 31.5l105 393q6 23 -1 32.5t-38 13.5l-49 5l3 13q42 -1 128 -1q83 0 125 1l-2 -13l-51 -5q-35 -4 -49 -15t-21 -37l-103 -384q-7 -27 2 -37.5t39 -10.5h104q67 0 102 31.5t86 142.5h13l-58 -192h-449z" />
    <glyph glyph-name="M.small" horiz-adv-x="730" 
d="M650 496l-330 -498h-23l-71 493l-102 -380q-16 -55 -7.5 -72.5t55.5 -22.5l29 -3l-3 -13q-18 0 -55.5 0.5t-56.5 0.5t-54.5 -0.5t-54.5 -0.5l3 13l23 3q49 6 66 23t33 76l92 341q8 22 1 32t-38 14l-49 5l3 13h157l65 -466l309 466h157l-2 -13l-46 -5q-33 -4 -46.5 -13.5
t-19.5 -31.5l-105 -393q-6 -23 1 -32.5t38 -13.5l49 -5l-2 -13q-21 0 -63.5 0.5t-62.5 0.5t-60 -0.5t-60 -0.5l3 13l45 5q33 4 46.5 13.5t19.5 32.5z" />
    <glyph glyph-name="N.small" horiz-adv-x="613" 
d="M456 -3h-33l-198 487l-100 -373q-16 -55 -7.5 -72.5t55.5 -22.5l29 -3l-3 -13q-19 0 -56 0.5t-56 0.5t-54.5 -0.5t-54.5 -0.5l3 13l23 3q49 6 66 23t33 76l92 341q8 22 1 32t-38 14l-49 5l2 13h148l189 -467l96 356q16 55 8 72.5t-55 22.5l-29 3l3 13q38 -1 113 -1
q70 0 108 1l-2 -13l-24 -3q-49 -6 -66.5 -23t-33.5 -75z" />
    <glyph glyph-name="O.small" horiz-adv-x="556" 
d="M549 330q0 -139 -89.5 -240.5t-212.5 -101.5q-84 0 -138.5 53.5t-54.5 149.5q0 139 89.5 240.5t212.5 101.5q84 0 138.5 -53.5t54.5 -149.5zM107 173q0 -168 141 -168q62 0 109 36q64 49 101.5 135t37.5 172q0 168 -141 168q-63 0 -109 -36q-64 -49 -101.5 -135
t-37.5 -172z" />
    <glyph glyph-name="P.small" horiz-adv-x="484" 
d="M254 502l-66 -248q54 -2 82 -2q89 0 140 41t51 117q0 49 -30 70.5t-99 21.5h-78zM236 12l-2 -12q-22 0 -66 0.5t-65 0.5t-63 -0.5t-63 -0.5l3 13l45 5q33 4 46.5 13.5t19.5 31.5l105 393q6 23 -1 32.5t-38 13.5l-49 5l3 13h222q84 0 133 -30t49 -88q0 -81 -68 -124.5
t-176 -43.5q-52 0 -88 4l-44 -167q-7 -25 2 -37t40 -16z" />
    <glyph glyph-name="Q.small" horiz-adv-x="556" 
d="M496 -211q-38 0 -71.5 14t-58 34.5l-49 41t-55.5 34.5t-66 14q-17 0 -32.5 -3.5t-33.5 -12l-27 -13t-30 -18t-25 -15.5q-15 -9 -32 -4t-20 21q38 30 117 45q24 11 183 72q-28 -9 -58 -9q-75 0 -129.5 54t-54.5 147q0 139 89.5 240.5t212.5 101.5q84 0 138.5 -53.5
t54.5 -148.5q0 -104 -51 -191.5t-143 -129.5q-38 -17 -105.5 -43l-88.5 -34q35 8 59 8q44 0 86.5 -16.5t71.5 -37t67 -37t73 -16.5q52 0 84.5 23.5t53.5 76.5h13q-49 -145 -173 -145zM107 173q0 -168 141 -168q62 0 109 36q64 49 101.5 135t37.5 172q0 168 -141 168
q-63 0 -109 -36q-64 -49 -101.5 -135t-37.5 -172z" />
    <glyph glyph-name="R.small" horiz-adv-x="532" 
d="M421 -8q-43 0 -59 25t-18 71q-1 21 -1 61q0 48 -15 71.5t-67 23.5q-39 0 -75 4l-47 -177q-7 -25 2 -37t40 -16l55 -6l-2 -12q-21 0 -66 0.5t-66 0.5t-62.5 -0.5t-62.5 -0.5l3 13l45 5q33 4 46.5 13.5t19.5 31.5l105 393q6 23 -1 32.5t-38 13.5l-49 5l3 13h220
q80 0 128.5 -30t48.5 -87q0 -71 -62 -109.5t-165 -39.5v-1q72 -1 95 -55q13 -30 15 -80q3 -66 9.5 -85.5t30.5 -19.5q23 0 40.5 22t34.5 79l15 -2q-18 -65 -41 -92.5t-59 -27.5zM254 503l-63 -237q44 -4 77 -4q85 0 136 41.5t51 113.5q0 44 -30 65t-98 21h-73z" />
    <glyph glyph-name="S.small" horiz-adv-x="482" 
d="M413 152q0 -77 -53 -121t-129 -44q-113 0 -158 74l-46 -70h-8l57 211h14q-7 -101 27.5 -149.5t112.5 -48.5q64 0 103 33.5t39 92.5q0 43 -26.5 67t-83.5 48q-61 25 -94 54t-33 78q0 71 50 113.5t120 42.5q98 0 140 -64l39 60h8l-54 -202h-14q5 99 -20.5 144t-98.5 45
q-54 0 -91.5 -31t-37.5 -86q0 -19 6.5 -35t14.5 -26t26.5 -21t31 -17t39.5 -17q59 -25 89 -53.5t30 -77.5z" />
    <glyph glyph-name="T.small" horiz-adv-x="540" 
d="M368 12l-2 -12q-22 0 -68 0.5t-67 0.5q-23 0 -65.5 -0.5t-64.5 -0.5l2 13l51 5q35 4 49.5 15.5t21.5 37.5l116 431h-77q-57 0 -85 -28t-82 -130h-11l52 176h450l-27 -176h-12q1 73 -6.5 105t-24.5 42.5t-57 10.5h-74l-116 -432q-7 -26 1.5 -37t41.5 -15z" />
    <glyph glyph-name="U.small" horiz-adv-x="616" 
d="M510 182q-28 -104 -82.5 -149t-150.5 -45q-76 0 -124 31.5t-48 98.5q0 32 12 78l70 261q6 23 -0.5 32t-38.5 13l-49 5l2 13q42 -1 124 -1q81 0 122 1l-3 -13l-46 -5q-33 -4 -46 -13.5t-19 -31.5l-70 -264q-12 -42 -12 -74q0 -106 139 -106q80 0 127.5 39t71.5 131l60 226
q16 55 8 72.5t-55 22.5l-29 3l3 13q37 -1 113 -1q70 0 108 1l-3 -13l-24 -3q-49 -6 -66 -23t-33 -75z" />
    <glyph glyph-name="V.small" horiz-adv-x="525" 
d="M204 -3l-48 439q-4 36 -14.5 49t-37.5 18l-27 4l2 13q37 -1 113 -1q70 0 107 1l-2 -13l-42 -5q-34 -4 -46 -16t-9 -40l41 -399l212 341q37 61 37 83q0 15 -12 20.5t-46 11.5l-26 4l2 13q36 -1 109 -1q67 0 103 1l-2 -13l-14 -3q-38 -7 -63.5 -29.5t-71.5 -95.5l-203 -321
l-35 -61h-27z" />
    <glyph glyph-name="W.small" horiz-adv-x="761" 
d="M182 -4l-27 441q-2 36 -12.5 48t-42.5 18l-23 4l2 13q37 -1 112 -1q70 0 106 1l-2 -13l-43 -5q-34 -4 -44 -17t-8 -44l22 -382l244 463h29l30 -463l168 326q31 62 31 82q0 17 -11.5 24t-42.5 12l-29 4l2 13q35 -1 110 -1q67 0 103 1l-2 -13l-18 -4q-39 -8 -64 -32
t-63 -95l-171 -322l-29 -58h-24l-30 468l-219 -411l-29 -57h-25z" />
    <glyph glyph-name="X.small" horiz-adv-x="596" 
d="M551 0q-20 0 -61.5 0.5t-62.5 0.5q-20 0 -59.5 -0.5t-59.5 -0.5l2 13l45 6q33 5 41.5 15t-2.5 36l-84 179l-148 -143q-47 -46 -47 -66q0 -10 11 -14t40 -8l36 -5l-2 -13q-20 0 -61.5 0.5t-61.5 0.5t-57.5 -0.5t-57.5 -0.5l2 13l29 5q39 6 70.5 25.5t87.5 72.5l153 147
l-81 171q-18 38 -33.5 50.5t-45.5 17.5l-35 5l2 13q39 -1 118 -1q75 0 114 1l-2 -13l-44 -5q-31 -4 -38 -15t5 -34l75 -163l130 124q47 44 47 66q0 17 -51 23l-34 4l2 13q40 -1 122 -1q76 0 116 1l-2 -13l-30 -5q-38 -6 -71 -25.5t-88 -72.5l-135 -128l89 -188
q19 -40 34 -52.5t47 -17.5l38 -5z" />
    <glyph glyph-name="Y.small" horiz-adv-x="502" 
d="M327 0q-22 0 -67.5 0.5t-67.5 0.5q-23 0 -66 -0.5t-65 -0.5l3 13l51 5q35 4 49.5 15.5t21.5 37.5l36 136l-72 227q-13 41 -24 52.5t-41 16.5l-22 4l3 13q37 -1 110 -1q72 0 108 1l-3 -13l-45 -5q-33 -4 -42 -16t-1 -39l69 -223l153 174q52 59 52 78q0 20 -53 27l-31 4
l3 13q35 -1 109 -1q69 0 104 1l-3 -13l-17 -3q-36 -7 -62 -27.5t-89 -90.5l-159 -178l-37 -138q-7 -25 1.5 -36t41.5 -15l55 -6z" />
    <glyph glyph-name="Z.small" horiz-adv-x="514" 
d="M424 0h-420v14l480 489h-183q-70 0 -102.5 -27t-87.5 -131h-13l55 176h394v-14l-480 -489h207q72 0 107 30t88 139h13z" />
    <glyph glyph-name="zero.lp" horiz-adv-x="584" 
d="M596 469q0 -52 -13.5 -114.5t-42.5 -128t-69.5 -119t-100.5 -88t-130 -34.5q-85 0 -137.5 56t-52.5 169q0 52 13.5 114.5t42.5 128t69.5 119t100.5 88t130 34.5q85 0 137.5 -56t52.5 -169zM97 186q0 -94 34.5 -140t108.5 -46q57 0 107 33t85 86.5t58 107t37 108.5
q22 86 22 158q0 94 -34.5 140t-108.5 46q-57 0 -107 -33t-85 -86.5t-58 -107t-37 -108.5q-22 -86 -22 -158z" />
    <glyph glyph-name="one.lp" horiz-adv-x="416" 
d="M308 13l-3 -13q-25 0 -74.5 0.5t-74.5 0.5t-74.5 -0.5t-74.5 -0.5l3 13l65 7q38 4 55 18t25 43l120 440q20 68 9.5 86.5t-75.5 21.5l-43 2l3 14l42 3q122 9 142 32h13q-10 -32 -46 -156l-121 -443q-8 -29 1 -43t47 -18z" />
    <glyph glyph-name="two.lp" horiz-adv-x="546" 
d="M51 -3q-11 -7 -23 -7q-31 0 -31 39q0 31 23 66q15 23 39 45.5t61 47t61.5 39l71.5 40.5q11 6 16 9q57 32 95 57t76.5 59.5t58 74t19.5 84.5q0 128 -133 128q-78 0 -134 -55.5t-56 -137.5q0 -29 14 -45.5t37 -16.5q55 0 90 82l13 -4q-22 -55 -50.5 -79.5t-69.5 -24.5
q-32 0 -58 24t-26 66q0 85 70.5 145.5t169.5 60.5q80 0 130 -39.5t50 -108.5q0 -41 -17.5 -78t-40 -62.5t-67 -55.5t-74.5 -47t-86 -45q-47 -24 -74 -39t-71.5 -42.5t-72.5 -54t-39 -52.5h1q7 17 34 32.5t62 15.5q51 0 130.5 -41t116.5 -41q91 0 91 89q0 29 -14 63l11 4
q19 -40 19 -82q0 -50 -28.5 -85t-84.5 -35q-44 0 -93 27l-93 53.5t-76 26.5q-24 0 -40.5 -13t-16.5 -38q0 -26 9 -49z" />
    <glyph glyph-name="three.lp" horiz-adv-x="525" 
d="M496 251q0 -106 -91.5 -186t-217.5 -80q-76 0 -124 32t-48 80q0 26 14 42.5t36 16.5q18 0 28.5 -9.5t10.5 -24.5q0 -21 -19 -33.5t-19 -25.5q0 -21 31.5 -42t88.5 -21q114 0 187.5 79t73.5 185q0 102 -103 102q-38 0 -69 -14t-52.5 -27.5t-36.5 -13.5t-21.5 10.5
t-3.5 21.5q19 10 73.5 23.5t81.5 24.5q166 67 166 192q0 96 -118 96q-73 0 -125 -44.5t-52 -102.5q0 -24 12.5 -39t34.5 -15q57 0 88 85l13 -3q-39 -109 -118 -109q-35 0 -56.5 20t-21.5 56q0 67 69.5 117t156.5 50q74 0 121 -32.5t47 -88.5q0 -69 -55.5 -112t-205.5 -97
q54 15 79 15q59 0 102 -30t43 -98z" />
    <glyph glyph-name="four.lp" horiz-adv-x="522" 
d="M27 242h269l72 260l3 13l37 122zM404 14l-3 -13q-25 0 -74.5 0.5t-74.5 0.5t-74.5 -0.5t-74.5 -0.5l3 13l65 7q38 4 55.5 18.5t25.5 43.5l38 136h-283l-2 22l422 439h32l-120 -438h32q41 0 63 14.5t50 61.5l26 44h13l-64 -147q-64 4 -104 4h-22l-38 -137q-8 -30 1 -43.5
t47 -17.5z" />
    <glyph glyph-name="five.lp" horiz-adv-x="518" 
d="M177 -15q-75 0 -123.5 34t-48.5 79q0 26 14 42t36 16q18 0 28.5 -9.5t10.5 -24.5q0 -21 -19 -33.5t-19 -25.5q0 -21 32.5 -42t89.5 -21q113 0 184.5 76.5t71.5 182.5q0 74 -31 110.5t-102 36.5q-48 0 -80 -18t-78 -61l-33 4l110 349h23q64 -27 166 -27q119 0 170 36l5 -4
q-66 -79 -230 -79q-76 0 -131 11l-78 -249q77 53 159 53q85 0 132 -44t47 -131q0 -106 -92 -183.5t-214 -77.5z" />
    <glyph glyph-name="six.lp" horiz-adv-x="555" 
d="M510 245q0 -105 -73 -182.5t-183 -77.5q-88 0 -143.5 54t-55.5 168q0 87 29 173.5t79 156.5t124.5 113.5t158.5 43.5q65 0 106.5 -27.5t41.5 -71.5q0 -24 -13 -39t-33 -15q-17 0 -28.5 10.5t-11.5 26.5q0 18 16.5 31t16.5 24q0 18 -24.5 32t-69.5 14q-56 0 -107.5 -25.5
t-90.5 -68.5t-67 -93.5t-46 -105.5q-33 -106 -33 -198q0 -188 151 -188q115 0 174 115q32 61 32 141q0 75 -32 110t-85 35q-82 0 -152 -49l-9 11q84 57 167 57q67 0 114 -42.5t47 -132.5z" />
    <glyph glyph-name="seven.lp" horiz-adv-x="522" 
d="M212 -11q-30 0 -30 33q0 65 48.5 170t125.5 208q31 42 65 81.5t87.5 96.5t54.5 58h-287q-45 0 -68.5 -20t-60.5 -91h-15l58 174h11q0 -20 24 -20h372l1 -21q-5 -6 -32 -35.5l-35.5 -39l-31 -35t-34.5 -40.5l-30 -37t-32 -42l-27 -40q-105 -161 -128 -367q-4 -33 -36 -33z
" />
    <glyph glyph-name="eight.lp" horiz-adv-x="553" 
d="M243 -15q-90 0 -147.5 42.5t-57.5 118.5q0 93 68 150.5t176 66.5q-53 10 -87 43t-34 87q0 86 66.5 143.5t169.5 57.5q71 0 116 -37t45 -105q0 -78 -58 -128.5t-142 -60.5q71 -9 111.5 -50t40.5 -106q0 -69 -41 -121.5t-100.5 -76.5t-125.5 -24zM210 484q0 -50 29 -81
t85 -31q71 0 118 40.5t63 110.5q5 21 5 53q0 48 -29.5 75.5t-84.5 27.5q-74 0 -122.5 -42.5t-60.5 -111.5q-3 -15 -3 -41zM91 135q0 -61 40 -98t113 -37q80 0 137 45t73 125q5 21 5 53q0 60 -35 94t-108 34q-92 0 -148.5 -43.5t-72.5 -123.5q-4 -21 -4 -49z" />
    <glyph glyph-name="nine.lp" horiz-adv-x="555" 
d="M572 472q0 -87 -29 -173.5t-79 -156.5t-124.5 -113.5t-158.5 -43.5q-65 0 -106.5 27.5t-41.5 71.5q0 24 13 39t33 15q17 0 28.5 -10.5t11.5 -26.5q0 -17 -16.5 -30t-16.5 -25q0 -18 24.5 -32t69.5 -14q56 0 107.5 25.5t90.5 68.5t67 93.5t46 105.5q33 106 33 198
q0 188 -151 188q-115 0 -174 -115q-32 -61 -32 -141q0 -75 32 -110t85 -35q82 0 152 49l9 -11q-84 -57 -167 -57q-67 0 -114 42.5t-47 132.5q0 105 73 182.5t183 77.5q88 0 143.5 -54t55.5 -168z" />
    <glyph glyph-name="zero.ot" horiz-adv-x="600" 
d="M559 328q0 -130 -89 -236.5t-223 -106.5q-88 0 -141 54t-53 153q0 83 37.5 161t110.5 130t162 52t142.5 -53.5t53.5 -153.5zM105 169q0 -78 34.5 -123.5t108.5 -45.5q65 0 119 38.5t85.5 95.5t45.5 126q8 41 8 91q0 78 -34.5 123.5t-108.5 45.5q-96 0 -162 -76t-87 -184
q-9 -46 -9 -91z" />
    <glyph glyph-name="one.ot" horiz-adv-x="600" 
d="M59 0l3 13l80 7q48 4 70.5 18.5t30.5 42.5l79 281q21 68 6.5 86.5t-101.5 21.5l-53 2l2 14l51 3q151 9 174 32h16q-20 -58 -48 -156l-80 -284q-8 -29 5 -43t62 -18l78 -7l-2 -13q-31 0 -93 0.5t-94 0.5t-93.5 -0.5t-92.5 -0.5z" />
    <glyph glyph-name="two.ot" horiz-adv-x="600" 
d="M387 -15q-40 0 -85 23.5l-87.5 47t-75.5 23.5q-50 0 -50 -39q0 -21 13 -45q-27 -10 -42 -2t-15 32q0 23 23 54q49 63 216 136q114 50 162.5 90.5t48.5 111.5q0 48 -32 75.5t-99 27.5q-72 0 -121 -41t-49 -107q0 -27 13.5 -42t35.5 -15q58 0 86 85l13 -3
q-35 -109 -117 -109q-34 0 -56.5 20t-22.5 62q0 67 64 116t155 49q79 0 130 -36t51 -93q0 -32 -12 -58t-31.5 -45.5t-55 -39t-69.5 -34t-89 -34.5q-54 -20 -116 -53.5t-91 -67.5q24 28 75 28q39 0 120.5 -36.5t113.5 -36.5q73 0 73 70q0 25 -15 61l11 4q23 -48 23 -81
q0 -43 -24 -70.5t-72 -27.5z" />
    <glyph glyph-name="three.ot" horiz-adv-x="600" 
d="M493 93q0 -106 -93.5 -186.5t-222.5 -80.5q-77 0 -126 32t-49 80q0 26 14.5 42.5t36.5 16.5q18 0 29 -9.5t11 -24.5q0 -21 -19.5 -33.5t-19.5 -25.5q0 -21 32 -42t90 -21q117 0 192.5 79.5t75.5 185.5q0 101 -104 101q-39 0 -70.5 -13.5t-53.5 -27.5t-38 -14
q-15 0 -21.5 10.5t-3.5 21.5q19 10 75 23.5t83 24.5q171 67 171 193q0 45 -30 70t-90 25q-74 0 -128 -45t-54 -102q0 -24 13 -39t35 -15q58 0 90 85l13 -3q-39 -109 -120 -109q-36 0 -57.5 20t-21.5 55q0 67 70.5 117.5t160.5 50.5q75 0 122.5 -32.5t47.5 -88.5
q0 -69 -56.5 -112.5t-210.5 -96.5q56 15 80 15q59 0 103 -30t44 -97z" />
    <glyph glyph-name="four.ot" horiz-adv-x="600" 
d="M55 83h269l72 260l3 13l37 122zM432 -145l-3 -13q-25 0 -74.5 0.5t-74.5 0.5t-74.5 -0.5t-74.5 -0.5l3 13l65 7q38 4 55.5 18.5t25.5 43.5l38 136h-283l-2 22l422 439h32l-120 -438h32q41 0 63 14.5t50 61.5l26 44h13l-64 -147q-64 4 -104 4h-22l-38 -137q-8 -30 1 -43.5
t47 -17.5z" />
    <glyph glyph-name="five.ot" horiz-adv-x="600" 
d="M186 -174q-76 0 -125 34t-49 79q0 26 14 42t36 16q18 0 28.5 -9.5t10.5 -24.5q0 -21 -19 -33.5t-19 -25.5q0 -21 33.5 -42t90.5 -21q113 0 185.5 76.5t72.5 181.5q0 75 -31.5 111.5t-103.5 36.5q-48 0 -80.5 -18t-79.5 -61l-33 4l110 349h23q66 -27 168 -27q120 0 172 36
l5 -4q-67 -79 -232 -79q-77 0 -132 11l-79 -250q78 54 161 54q86 0 133.5 -44t47.5 -131q0 -106 -93 -183.5t-215 -77.5z" />
    <glyph glyph-name="six.ot" horiz-adv-x="600" 
d="M539 245q0 -105 -73 -182.5t-183 -77.5q-88 0 -143.5 54t-55.5 168q0 117 48.5 228t140.5 185t203 74q65 0 106 -27.5t41 -71.5q0 -24 -13 -39t-33 -15q-17 0 -28.5 10.5t-11.5 26.5q0 18 16.5 31t16.5 24q0 18 -24.5 32t-69.5 14q-105 0 -184.5 -79t-122.5 -201
q-37 -108 -37 -211q0 -188 151 -188q97 0 151.5 77.5t54.5 178.5q0 145 -117 145q-77 0 -147 -49l-9 11q84 57 162 57q69 0 115 -42t46 -133z" />
    <glyph glyph-name="seven.ot" horiz-adv-x="600" 
d="M203 -170q-30 0 -30 34q0 63 52.5 166.5t132.5 210.5q24 32 56.5 69l54.5 60.5l57 59.5t45 47h-302q-46 0 -70 -20t-62 -91h-16l59 174h11q0 -20 25 -20h390v-21q-7 -8 -45 -48.5t-52 -56.5l-42.5 -49t-49 -60t-38.5 -55q-119 -180 -140 -367q-4 -33 -36 -33z" />
    <glyph glyph-name="eight.ot" horiz-adv-x="600" 
d="M264 -15q-90 0 -146.5 41.5t-56.5 117.5q0 93 70.5 152t179.5 68q-52 10 -86.5 43.5t-34.5 86.5q0 85 68 142.5t171 57.5q71 0 117 -36.5t46 -104.5q0 -78 -60 -129.5t-146 -61.5q70 -9 110.5 -49.5t40.5 -105.5q0 -99 -82.5 -160.5t-190.5 -61.5zM239 485
q0 -50 30 -81.5t86 -31.5q86 0 137.5 59.5t51.5 144.5q0 48 -30 75.5t-85 27.5q-87 0 -138.5 -57.5t-51.5 -136.5zM114 135q0 -61 37.5 -98t109.5 -37q96 0 160.5 65t64.5 158q0 60 -36 94t-109 34q-108 0 -167.5 -60.5t-59.5 -155.5z" />
    <glyph glyph-name="nine.ot" horiz-adv-x="600" 
d="M548 313q0 -117 -48.5 -228t-140.5 -185t-203 -74q-65 0 -106 27.5t-41 71.5q0 24 13 39t33 15q17 0 28.5 -10.5t11.5 -26.5q0 -18 -16.5 -31t-16.5 -24q0 -18 24.5 -32t69.5 -14q99 0 175.5 71t121.5 183q47 118 47 237q0 98 -36 143t-109 45q-97 0 -150 -76t-53 -177
q0 -145 117 -145q77 0 147 49l9 -11q-84 -57 -162 -57q-69 0 -115 42t-46 133q0 105 72 181t181 76q90 0 141.5 -53t51.5 -169z" />
    </font>
</defs>
</svg>
